<svg width="127" height="44" viewBox="0 0 127 44" fill="none" xmlns="http://www.w3.org/2000/svg">
<g clip-path="url(#clip0_450_1676)">
<rect x="7.60449" y="4.50977" width="111.932" height="34.4407" fill="#03303B"/>
<path d="M99.4374 26.3979C98.692 26.3979 98.1927 26.7604 98.0081 27.4306H100.826C100.621 26.6715 100.026 26.3979 99.4374 26.3979Z" fill="#EEF9F8"/>
<path d="M52.9315 13.3486C52.4323 13.3486 52.0972 13.588 51.9809 14.0394H53.8548C53.718 13.5264 53.3213 13.3486 52.9315 13.3486Z" fill="#EEF9F8"/>
<path d="M74.8089 15.5586C75.383 15.5586 75.8484 15.0809 75.8484 14.4917C75.8484 13.9025 75.383 13.4248 74.8089 13.4248C74.2348 13.4248 73.7693 13.9025 73.7693 14.4917C73.7693 15.0809 74.2348 15.5586 74.8089 15.5586Z" fill="#EEF9F8"/>
<path d="M63.7025 12.1587L62.9844 14.4019H64.4206L63.7025 12.1587Z" fill="#EEF9F8"/>
<path d="M64.0802 26.5137C63.1774 26.5137 62.5209 27.1292 62.5209 28.114C62.5209 29.0988 63.1774 29.7143 64.0802 29.7143C64.9829 29.7143 65.6395 29.0988 65.6395 28.114C65.6395 27.1292 64.9829 26.5137 64.0802 26.5137Z" fill="#EEF9F8"/>
<path d="M87.1615 26.5693C86.3066 26.5693 85.6501 27.1848 85.6501 28.1149C85.6501 29.045 86.3066 29.6606 87.1615 29.6606C88.0095 29.6606 88.6661 29.045 88.6661 28.1149C88.6661 27.1848 88.0095 26.5693 87.1615 26.5693Z" fill="#EEF9F8"/>
<path d="M82.0119 13.4585C81.4443 13.4585 81.0066 13.8688 81.0066 14.4912C81.0066 15.1135 81.4443 15.5239 82.0119 15.5239C82.5796 15.5239 83.0173 15.1135 83.0173 14.4912C83.0173 13.8688 82.5796 13.4585 82.0119 13.4585Z" fill="#EEF9F8"/>
<path d="M119.346 0.922363H8.17112C3.89675 0.922363 0.429382 4.38973 0.429382 8.6641V35.514C0.429382 39.7883 3.89675 43.2557 8.17112 43.2557H119.346C123.62 43.2557 127.087 39.7883 127.087 35.514V8.6641C127.087 4.38973 123.62 0.922363 119.346 0.922363ZM84.9866 12.3093H86.2929V12.7196C86.5322 12.3913 86.9699 12.1862 87.5444 12.1862C88.4266 12.1862 89.1789 12.8154 89.1789 13.9917V16.6794H87.8727V14.1832C87.8727 13.6429 87.5307 13.3898 87.1067 13.3898C86.628 13.3898 86.2929 13.6702 86.2929 14.2926V16.6794H84.9866V12.3093ZM72.4576 12.3093H73.7707V12.7196C74.0579 12.3845 74.4888 12.1862 75.0701 12.1862C76.219 12.1862 77.1628 13.1915 77.1628 14.4909C77.1628 15.7972 76.219 16.7957 75.0701 16.7957C74.4888 16.7957 74.0579 16.5973 73.7707 16.2691V18.4233H72.4576V12.3093ZM62.8146 10.5585H64.5928L66.6718 16.6794H65.1467L64.839 15.7151H62.5684L62.2607 16.6794H60.7287L62.8146 10.5585ZM55.4627 12.3093H56.1603V11.4749L57.4734 11.0851V12.3093H58.3761V13.5677H57.4734V15.1133C57.4734 15.4894 57.7948 15.5236 58.3761 15.4894V16.6794C56.6595 16.8504 56.1603 16.3374 56.1603 15.1133V13.5677H55.4627V12.3093ZM52.9391 12.1862C54.218 12.1862 55.1618 13.171 55.1618 14.4909C55.1618 14.6756 55.1413 14.8465 55.1071 15.0175H52.0022C52.1732 15.4689 52.5698 15.6262 53.0554 15.6262C53.411 15.6262 53.7188 15.4894 53.8898 15.2979L54.943 15.8997C54.5121 16.4947 53.8692 16.7957 53.0349 16.7957C51.544 16.7957 50.6139 15.7972 50.6139 14.4909C50.6139 13.1915 51.5577 12.1862 52.9391 12.1862ZM47.0371 10.4354C48.2066 10.4354 49.1982 11.0099 49.7111 11.8374L48.5211 12.5144C48.2681 12.1109 47.721 11.7964 47.0302 11.7964C45.9976 11.7964 45.2248 12.5623 45.2248 13.636C45.2248 14.6756 45.9634 15.4347 47.1533 15.4347C47.9604 15.4347 48.4938 15.0791 48.7126 14.4909H47.0781V13.2667H50.1488V13.7933C50.1488 15.6604 48.8494 16.7957 47.1328 16.7957C45.2111 16.7957 43.8296 15.38 43.8296 13.6292C43.8296 11.8511 45.2384 10.4354 47.0371 10.4354ZM24.571 9.44374C25.4806 8.32899 27.0467 7.47411 28.3803 7.38521C28.606 8.90346 27.9837 10.3944 27.1698 11.4476C26.2944 12.5828 24.7899 13.4582 23.3263 13.4104C23.0596 11.9537 23.7435 10.4559 24.571 9.44374ZM32.7641 28.7981C31.7109 30.4052 30.2337 32.4091 28.4008 32.4227C26.7663 32.4364 26.3491 31.3559 24.1402 31.3695C21.9243 31.3764 21.4661 32.4433 19.8316 32.4227C17.9987 32.4091 16.5968 30.6036 15.5435 28.9896C12.6096 24.4964 12.3019 19.2167 14.1142 16.4058C15.3999 14.4157 17.4311 13.2462 19.3392 13.2462C21.2815 13.2462 22.5056 14.3199 24.1128 14.3199C25.6721 14.3199 26.6227 13.2462 28.8727 13.2462C30.5688 13.2462 32.3743 14.1763 33.6532 15.7835C29.454 18.1019 30.1311 24.1407 34.3781 25.7616C33.7968 27.061 33.5164 27.6423 32.7641 28.7981ZM49.6427 31.3901L49.1845 29.947H45.7719L45.3137 31.3901H43.0226L46.1412 22.2121H48.8152L51.9338 31.3901H49.6427ZM56.4544 31.5747C55.5721 31.5747 54.9293 31.2738 54.4984 30.7745V34.0094H52.5356V24.8383H54.4984V25.4538C54.9293 24.9546 55.5721 24.6537 56.4544 24.6537C58.171 24.6537 59.5866 26.1582 59.5866 28.1142C59.5866 30.0633 58.171 31.5747 56.4544 31.5747ZM64.4697 31.5747C63.5943 31.5747 62.9514 31.2738 62.5206 30.7745V34.0094H60.5509V24.8383H62.5206V25.4538C62.9514 24.9546 63.5943 24.6537 64.4697 24.6537C66.1862 24.6537 67.6019 26.1582 67.6019 28.1142C67.6019 30.0633 66.1862 31.5747 64.4697 31.5747ZM69.7083 16.7957C69.1202 16.7957 68.6893 16.5973 68.4021 16.2691V18.4233H67.089V12.3093H68.4021V12.7196C68.6893 12.3845 69.1202 12.1862 69.7083 12.1862C70.8504 12.1862 71.7942 13.1915 71.7942 14.4909C71.7942 15.7972 70.8504 16.7957 69.7083 16.7957ZM75.0086 31.5747C73.08 31.5747 71.8489 30.6583 71.336 29.3042L73.1483 28.2578C73.4766 29.0169 74.0374 29.5299 75.0769 29.5299C76.0686 29.5299 76.3216 29.1332 76.3216 28.7844C76.3216 28.2168 75.795 27.9979 74.4204 27.6149C73.0526 27.232 71.719 26.5822 71.719 24.8246C71.719 23.0533 73.2099 22.0343 74.7965 22.0343C76.308 22.0343 77.4843 22.7524 78.1545 24.0997L76.3832 25.1392C76.0686 24.4827 75.6377 24.0792 74.7965 24.0792C74.14 24.0792 73.8186 24.4074 73.8186 24.7699C73.8186 25.1939 74.0374 25.4812 75.4668 25.912C76.8551 26.3292 78.4144 26.8148 78.4144 28.757C78.4144 30.5215 76.9987 31.5747 75.0086 31.5747ZM83.017 26.7259H81.6697V29.0443C81.6697 29.6051 82.1553 29.6598 83.017 29.6051V31.3901C80.4524 31.6499 79.7001 30.8771 79.7001 29.0443V26.7259H78.6537V24.8383H79.7001V23.5936L81.6697 22.9986V24.8383H83.017V26.7259ZM82.0117 16.7957C80.7259 16.7957 79.6933 15.7972 79.6933 14.4909C79.6933 13.1915 80.7259 12.1862 82.0117 12.1862C83.2906 12.1862 84.3232 13.1915 84.3232 14.4909C84.3232 15.7972 83.2906 16.7957 82.0117 16.7957ZM87.1614 31.5747C85.2328 31.5747 83.6872 30.0633 83.6872 28.1142C83.6872 26.1582 85.2328 24.6537 87.1614 24.6537C89.09 24.6537 90.6356 26.1582 90.6356 28.1142C90.6356 30.0633 89.09 31.5747 87.1614 31.5747ZM95.5255 26.931C94.7117 26.8011 93.5627 27.1294 93.5627 28.4288V31.3901H91.5931V24.8383H93.5627V26.0009C93.8226 25.1255 94.7048 24.7084 95.5255 24.7084V26.931ZM102.7 28.9007H98.0491C98.2953 29.5777 98.904 29.8171 99.6221 29.8171C100.162 29.8171 100.621 29.6051 100.88 29.3178L102.453 30.2206C101.811 31.1165 100.839 31.5747 99.5947 31.5747C97.3584 31.5747 95.9632 30.0633 95.9632 28.1142C95.9632 26.1582 97.3789 24.6537 99.4511 24.6537C101.366 24.6537 102.782 26.1309 102.782 28.1142C102.782 28.3877 102.754 28.6476 102.7 28.9007Z" fill="#EEF9F8"/>
<path d="M56.058 26.5137C55.1553 26.5137 54.4987 27.1292 54.4987 28.114C54.4987 29.0988 55.1553 29.7143 56.058 29.7143C56.9607 29.7143 57.6173 29.0988 57.6173 28.114C57.6173 27.1292 56.9607 26.5137 56.058 26.5137Z" fill="#EEF9F8"/>
<path d="M69.4408 13.4248C68.8389 13.4248 68.4012 13.8351 68.4012 14.4917C68.4012 15.1482 68.8389 15.5586 69.4408 15.5586C70.0426 15.5586 70.4803 15.1482 70.4803 14.4917C70.4803 13.8351 70.0426 13.4248 69.4408 13.4248Z" fill="#EEF9F8"/>
<path d="M46.4008 27.9839H48.5551L47.4745 24.6123L46.4008 27.9839Z" fill="#EEF9F8"/>
</g>
<defs>
<clipPath id="clip0_450_1676">
<rect width="126.658" height="42.3333" fill="white" transform="translate(0.25 0.922363)"/>
</clipPath>
</defs>
</svg>
