<svg width="40" height="40" viewBox="0 0 40 40" fill="none" xmlns="http://www.w3.org/2000/svg">
<rect width="40" height="40" rx="4" fill="#F3ECFD"/>
<path d="M27 24.01V26C27 28.2 25.5 30 23 30H17C14.5 30 13 28.2 13 26V24.01H27Z" fill="#1A3C57"/>
<path opacity="0.2" d="M27 14V24.01H13V14C13 11.8 14.5 10 17 10H23C25.5 10 27 11.8 27 14Z" fill="#1A3C57"/>
<path d="M11 28.75C10.59 28.75 10.25 28.41 10.25 28V12C10.25 11.59 10.59 11.25 11 11.25C11.41 11.25 11.75 11.59 11.75 12V28C11.75 28.41 11.41 28.75 11 28.75Z" fill="#1A3C57"/>
<path d="M29 28.75C28.59 28.75 28.25 28.41 28.25 28V12C28.25 11.59 28.59 11.25 29 11.25C29.41 11.25 29.75 11.59 29.75 12V28C29.75 28.41 29.41 28.75 29 28.75Z" fill="#1A3C57"/>
</svg>
