<svg width="375" height="279" viewBox="0 0 375 279" fill="none" xmlns="http://www.w3.org/2000/svg">
<g filter="url(#filter0_d_1099_14397)">
<rect x="16" y="70.1873" width="343" height="156" rx="16" fill="white" shape-rendering="crispEdges"/>
<path d="M46.0421 101.33C46.0421 99.606 44.9123 98.67 43.6351 98.67C42.9965 98.67 42.6035 98.8178 42.3088 99.0148C42.3088 97.5863 43.586 96.3547 45.3053 96.0099V94.1873C42.3088 94.6799 40 97.2907 40 100.345C40 102.808 41.4737 104.187 43.193 104.187C44.9123 104.187 46.0421 102.956 46.0421 101.33ZM54 101.33C54 99.606 52.8702 98.67 51.593 98.67C51.0035 98.67 50.5614 98.7685 50.2667 98.9656C50.2667 97.5863 51.5439 96.3547 53.2632 96.0099V94.1873C50.2175 94.6799 47.9088 97.2907 47.9088 100.345C47.9088 102.808 49.4316 104.187 51.1018 104.187C52.8211 104.187 54 102.956 54 101.33Z" fill="#153853"/>
<path d="M45.424 122.407V121.627H41.908V118.387H46.108V117.595H41.044V126.187H41.908V122.407H45.424ZM50.0523 120.307C49.8483 120.259 49.6923 120.247 49.5123 120.247C48.6963 120.247 48.0843 120.655 47.8563 121.279L47.7963 120.379H47.0163V126.187H47.8443V122.875C47.8443 121.771 48.5283 121.051 49.5963 121.051H50.0523V120.307ZM53.3664 126.331C54.7344 126.331 55.6344 125.671 55.9464 124.447H55.1544C54.9384 125.215 54.3264 125.623 53.3784 125.623C52.1304 125.623 51.3864 124.807 51.3264 123.391H55.9464V122.983C55.9464 121.339 54.8784 120.223 53.3064 120.223C51.6504 120.223 50.5224 121.471 50.5224 123.283C50.5224 125.107 51.6624 126.331 53.3664 126.331ZM53.3064 120.931C54.3984 120.931 55.1184 121.675 55.1184 122.791H51.3504C51.4944 121.651 52.2144 120.931 53.3064 120.931ZM59.7063 126.331C61.0743 126.331 61.9743 125.671 62.2863 124.447H61.4943C61.2783 125.215 60.6663 125.623 59.7183 125.623C58.4703 125.623 57.7263 124.807 57.6663 123.391H62.2863V122.983C62.2863 121.339 61.2183 120.223 59.6463 120.223C57.9902 120.223 56.8623 121.471 56.8623 123.283C56.8623 125.107 58.0023 126.331 59.7063 126.331ZM59.6463 120.931C60.7383 120.931 61.4583 121.675 61.4583 122.791H57.6903C57.8343 121.651 58.5543 120.931 59.6463 120.931ZM68.2702 126.187V121.075H69.4342V120.379H68.2702V118.543H67.4542V120.379H66.2902V121.075H67.4542V126.187H68.2702ZM70.9204 118.783C71.2564 118.783 71.5444 118.507 71.5444 118.171C71.5444 117.835 71.2564 117.547 70.9204 117.547C70.5844 117.547 70.3084 117.835 70.3084 118.171C70.3084 118.507 70.5844 118.783 70.9204 118.783ZM70.5124 126.187H71.3404V120.379H70.5124V126.187ZM73.8951 126.187V122.587C73.8951 121.699 74.4831 120.979 75.4551 120.979C76.3311 120.979 76.8951 121.555 76.8951 122.539V126.187H77.7111V122.599C77.7111 121.699 78.2871 120.967 79.2591 120.967C80.1471 120.967 80.6991 121.555 80.6991 122.551V126.187H81.5031V122.383C81.5031 121.039 80.6751 120.223 79.4151 120.223C78.4791 120.223 77.7711 120.703 77.5071 121.459C77.2311 120.703 76.5471 120.223 75.6351 120.223C74.8191 120.223 74.1711 120.595 73.8831 121.207L73.7871 120.379H73.0671V126.187H73.8951ZM85.6047 126.331C86.9727 126.331 87.8727 125.671 88.1847 124.447H87.3927C87.1767 125.215 86.5647 125.623 85.6167 125.623C84.3687 125.623 83.6247 124.807 83.5647 123.391H88.1847V122.983C88.1847 121.339 87.1167 120.223 85.5447 120.223C83.8887 120.223 82.7607 121.471 82.7607 123.283C82.7607 125.107 83.9007 126.331 85.6047 126.331ZM85.5447 120.931C86.6367 120.931 87.3567 121.675 87.3567 122.791H83.5887C83.7327 121.651 84.4527 120.931 85.5447 120.931ZM94.0607 126.187H94.8887L96.0887 122.539C96.2447 122.059 96.3407 121.711 96.4247 121.399C96.4967 121.747 96.5927 122.107 96.7367 122.539L97.9367 126.187H98.7407L100.709 120.379H99.8447L98.6927 123.883C98.4887 124.507 98.4647 124.651 98.3447 125.131C98.2367 124.699 98.0927 124.195 97.9847 123.883L96.8447 120.379H95.9927L94.8407 123.883C94.7807 124.075 94.5887 124.663 94.4927 125.131C94.3727 124.663 94.2647 124.267 94.1327 123.883L92.9927 120.379H92.1407L94.0607 126.187ZM102.151 118.783C102.487 118.783 102.775 118.507 102.775 118.171C102.775 117.835 102.487 117.547 102.151 117.547C101.815 117.547 101.539 117.835 101.539 118.171C101.539 118.507 101.815 118.783 102.151 118.783ZM101.743 126.187H102.571V120.379H101.743V126.187ZM105.63 126.187V121.075H106.794V120.379H105.63V118.543H104.814V120.379H103.65V121.075H104.814V126.187H105.63ZM108.7 126.175V123.019C108.7 121.903 109.348 120.979 110.596 120.979C111.496 120.979 112.132 121.459 112.132 122.815V126.187H112.96V122.635C112.96 121.171 112.276 120.223 110.752 120.223C109.78 120.223 109.072 120.691 108.7 121.387V117.439H107.872V126.175H108.7ZM120.374 126.331C121.742 126.331 122.642 125.671 122.954 124.447H122.162C121.946 125.215 121.334 125.623 120.386 125.623C119.138 125.623 118.394 124.807 118.334 123.391H122.954V122.983C122.954 121.339 121.886 120.223 120.314 120.223C118.658 120.223 117.53 121.471 117.53 123.283C117.53 125.107 118.67 126.331 120.374 126.331ZM120.314 120.931C121.406 120.931 122.126 121.675 122.126 122.791H118.358C118.502 121.651 119.222 120.931 120.314 120.931ZM124.307 126.187L125.927 123.859L127.559 126.187H128.543L126.491 123.295L128.555 120.379H127.595L125.963 122.707L124.319 120.379H123.347L125.411 123.283L123.335 126.187H124.307ZM129.54 128.719H130.368V125.071C130.776 125.911 131.556 126.331 132.54 126.331C134.256 126.331 135.228 125.011 135.228 123.259C135.228 121.507 134.22 120.223 132.54 120.223C131.568 120.223 130.752 120.655 130.344 121.555L130.26 120.379H129.54V128.719ZM130.38 123.283C130.38 121.939 131.124 120.979 132.396 120.979C133.656 120.979 134.388 121.939 134.388 123.283C134.388 124.615 133.656 125.587 132.396 125.587C131.124 125.587 130.38 124.615 130.38 123.283ZM138.984 126.331C140.352 126.331 141.252 125.671 141.564 124.447H140.772C140.556 125.215 139.944 125.623 138.996 125.623C137.748 125.623 137.004 124.807 136.944 123.391H141.564V122.983C141.564 121.339 140.496 120.223 138.924 120.223C137.268 120.223 136.14 121.471 136.14 123.283C136.14 125.107 137.28 126.331 138.984 126.331ZM138.924 120.931C140.016 120.931 140.736 121.675 140.736 122.791H136.968C137.112 121.651 137.832 120.931 138.924 120.931ZM145.923 120.307C145.719 120.259 145.563 120.247 145.383 120.247C144.567 120.247 143.955 120.655 143.727 121.279L143.667 120.379H142.887V126.187H143.715V122.875C143.715 121.771 144.399 121.051 145.467 121.051H145.923V120.307ZM148.591 126.187V121.075H149.755V120.379H148.591V118.543H147.775V120.379H146.611V121.075H147.775V126.187H148.591ZM150.341 124.555C150.341 125.635 151.157 126.331 152.465 126.331C153.785 126.331 154.673 125.647 154.673 124.603C154.673 123.763 154.217 123.295 153.209 123.043L152.213 122.791C151.577 122.635 151.265 122.323 151.265 121.879C151.265 121.255 151.721 120.907 152.537 120.907C153.317 120.907 153.785 121.303 153.809 121.975H154.613C154.577 120.895 153.785 120.223 152.561 120.223C151.313 120.223 150.461 120.871 150.461 121.891C150.461 122.683 150.953 123.211 151.961 123.463L152.957 123.715C153.641 123.883 153.881 124.159 153.881 124.639C153.881 125.263 153.353 125.647 152.453 125.647C151.637 125.647 151.133 125.227 151.133 124.555H150.341ZM158.716 120.379V121.075H159.604V126.187H160.432V121.075H161.8V120.379H160.432V119.251C160.432 118.567 160.624 118.195 161.356 118.195H161.848V117.487C161.656 117.451 161.416 117.439 161.212 117.439C160.324 117.439 159.604 117.943 159.604 119.251V120.379H158.716ZM165.187 126.331C166.555 126.331 167.455 125.671 167.767 124.447H166.975C166.759 125.215 166.147 125.623 165.199 125.623C163.951 125.623 163.207 124.807 163.147 123.391H167.767V122.983C167.767 121.339 166.699 120.223 165.127 120.223C163.471 120.223 162.343 121.471 162.343 123.283C162.343 125.107 163.483 126.331 165.187 126.331ZM165.127 120.931C166.219 120.931 166.939 121.675 166.939 122.791H163.171C163.315 121.651 164.035 120.931 165.127 120.931ZM171.527 126.331C172.895 126.331 173.795 125.671 174.107 124.447H173.315C173.099 125.215 172.487 125.623 171.539 125.623C170.291 125.623 169.547 124.807 169.487 123.391H174.107V122.983C174.107 121.339 173.039 120.223 171.467 120.223C169.811 120.223 168.683 121.471 168.683 123.283C168.683 125.107 169.823 126.331 171.527 126.331ZM171.467 120.931C172.559 120.931 173.279 121.675 173.279 122.791H169.511C169.655 121.651 170.375 120.931 171.467 120.931ZM180.091 126.187V121.075H181.255V120.379H180.091V118.543H179.275V120.379H178.111V121.075H179.275V126.187H180.091ZM182.741 118.783C183.077 118.783 183.365 118.507 183.365 118.171C183.365 117.835 183.077 117.547 182.741 117.547C182.405 117.547 182.129 117.835 182.129 118.171C182.129 118.507 182.405 118.783 182.741 118.783ZM182.333 126.187H183.161V120.379H182.333V126.187ZM185.715 126.187V122.587C185.715 121.699 186.303 120.979 187.275 120.979C188.151 120.979 188.715 121.555 188.715 122.539V126.187H189.531V122.599C189.531 121.699 190.107 120.967 191.079 120.967C191.967 120.967 192.519 121.555 192.519 122.551V126.187H193.323V122.383C193.323 121.039 192.495 120.223 191.235 120.223C190.299 120.223 189.591 120.703 189.327 121.459C189.051 120.703 188.367 120.223 187.455 120.223C186.639 120.223 185.991 120.595 185.703 121.207L185.607 120.379H184.887V126.187H185.715ZM197.425 126.331C198.793 126.331 199.693 125.671 200.005 124.447H199.213C198.997 125.215 198.385 125.623 197.437 125.623C196.189 125.623 195.445 124.807 195.385 123.391H200.005V122.983C200.005 121.339 198.937 120.223 197.365 120.223C195.709 120.223 194.581 121.471 194.581 123.283C194.581 125.107 195.721 126.331 197.425 126.331ZM197.365 120.931C198.457 120.931 199.177 121.675 199.177 122.791H195.409C195.553 121.651 196.273 120.931 197.365 120.931ZM205.881 126.187H206.709L207.909 122.539C208.065 122.059 208.161 121.711 208.245 121.399C208.317 121.747 208.413 122.107 208.557 122.539L209.757 126.187H210.561L212.529 120.379H211.665L210.513 123.883C210.309 124.507 210.285 124.651 210.165 125.131C210.057 124.699 209.913 124.195 209.805 123.883L208.665 120.379H207.813L206.661 123.883C206.601 124.075 206.409 124.663 206.313 125.131C206.193 124.663 206.085 124.267 205.953 123.883L204.813 120.379H203.961L205.881 126.187ZM213.971 118.783C214.307 118.783 214.595 118.507 214.595 118.171C214.595 117.835 214.307 117.547 213.971 117.547C213.635 117.547 213.359 117.835 213.359 118.171C213.359 118.507 213.635 118.783 213.971 118.783ZM213.563 126.187H214.391V120.379H213.563V126.187ZM217.45 126.187V121.075H218.614V120.379H217.45V118.543H216.634V120.379H215.47V121.075H216.634V126.187H217.45ZM220.52 126.175V123.019C220.52 121.903 221.168 120.979 222.416 120.979C223.316 120.979 223.952 121.459 223.952 122.815V126.187H224.78V122.635C224.78 121.171 224.096 120.223 222.572 120.223C221.6 120.223 220.892 120.691 220.52 121.387V117.439H219.692V126.175H220.52ZM232.195 126.331C233.563 126.331 234.463 125.671 234.775 124.447H233.983C233.767 125.215 233.155 125.623 232.207 125.623C230.959 125.623 230.215 124.807 230.155 123.391H234.775V122.983C234.775 121.339 233.707 120.223 232.135 120.223C230.479 120.223 229.351 121.471 229.351 123.283C229.351 125.107 230.491 126.331 232.195 126.331ZM232.135 120.931C233.227 120.931 233.947 121.675 233.947 122.791H230.179C230.323 121.651 231.043 120.931 232.135 120.931ZM236.127 126.187L237.747 123.859L239.379 126.187H240.363L238.311 123.295L240.375 120.379H239.415L237.783 122.707L236.139 120.379H235.167L237.231 123.283L235.155 126.187H236.127ZM241.36 128.719H242.188V125.071C242.596 125.911 243.376 126.331 244.36 126.331C246.076 126.331 247.048 125.011 247.048 123.259C247.048 121.507 246.04 120.223 244.36 120.223C243.388 120.223 242.572 120.655 242.164 121.555L242.08 120.379H241.36V128.719ZM242.2 123.283C242.2 121.939 242.944 120.979 244.216 120.979C245.476 120.979 246.208 121.939 246.208 123.283C246.208 124.615 245.476 125.587 244.216 125.587C242.944 125.587 242.2 124.615 242.2 123.283ZM250.804 126.331C252.172 126.331 253.072 125.671 253.384 124.447H252.592C252.376 125.215 251.764 125.623 250.816 125.623C249.568 125.623 248.824 124.807 248.764 123.391H253.384V122.983C253.384 121.339 252.316 120.223 250.744 120.223C249.088 120.223 247.96 121.471 247.96 123.283C247.96 125.107 249.1 126.331 250.804 126.331ZM250.744 120.931C251.836 120.931 252.556 121.675 252.556 122.791H248.788C248.932 121.651 249.652 120.931 250.744 120.931ZM257.744 120.307C257.54 120.259 257.384 120.247 257.204 120.247C256.388 120.247 255.776 120.655 255.548 121.279L255.488 120.379H254.708V126.187H255.536V122.875C255.536 121.771 256.22 121.051 257.288 121.051H257.744V120.307ZM260.411 126.187V121.075H261.575V120.379H260.411V118.543H259.595V120.379H258.431V121.075H259.595V126.187H260.411ZM262.161 124.555C262.161 125.635 262.977 126.331 264.285 126.331C265.605 126.331 266.493 125.647 266.493 124.603C266.493 123.763 266.037 123.295 265.029 123.043L264.033 122.791C263.397 122.635 263.085 122.323 263.085 121.879C263.085 121.255 263.541 120.907 264.357 120.907C265.137 120.907 265.605 121.303 265.629 121.975H266.433C266.397 120.895 265.605 120.223 264.381 120.223C263.133 120.223 262.281 120.871 262.281 121.891C262.281 122.683 262.773 123.211 263.781 123.463L264.777 123.715C265.461 123.883 265.701 124.159 265.701 124.639C265.701 125.263 265.173 125.647 264.273 125.647C263.457 125.647 262.953 125.227 262.953 124.555H262.161ZM272.408 126.187H273.236L274.436 122.539C274.592 122.059 274.688 121.711 274.772 121.399C274.844 121.747 274.94 122.107 275.084 122.539L276.284 126.187H277.088L279.056 120.379H278.192L277.04 123.883C276.836 124.507 276.812 124.651 276.692 125.131C276.584 124.699 276.44 124.195 276.332 123.883L275.192 120.379H274.34L273.188 123.883C273.128 124.075 272.936 124.663 272.84 125.131C272.72 124.663 272.612 124.267 272.48 123.883L271.34 120.379H270.488L272.408 126.187ZM280.499 118.783C280.835 118.783 281.123 118.507 281.123 118.171C281.123 117.835 280.835 117.547 280.499 117.547C280.163 117.547 279.887 117.835 279.887 118.171C279.887 118.507 280.163 118.783 280.499 118.783ZM280.091 126.187H280.919V120.379H280.091V126.187ZM283.977 126.187V121.075H285.141V120.379H283.977V118.543H283.161V120.379H281.997V121.075H283.161V126.187H283.977ZM287.047 126.175V123.019C287.047 121.903 287.695 120.979 288.943 120.979C289.843 120.979 290.479 121.459 290.479 122.815V126.187H291.307V122.635C291.307 121.171 290.623 120.223 289.099 120.223C288.127 120.223 287.419 120.691 287.047 121.387V117.439H286.219V126.175H287.047ZM298.722 126.331C300.09 126.331 300.99 125.671 301.302 124.447H300.51C300.294 125.215 299.682 125.623 298.734 125.623C297.486 125.623 296.742 124.807 296.682 123.391H301.302V122.983C301.302 121.339 300.234 120.223 298.662 120.223C297.006 120.223 295.878 121.471 295.878 123.283C295.878 125.107 297.018 126.331 298.722 126.331ZM298.662 120.931C299.754 120.931 300.474 121.675 300.474 122.791H296.706C296.85 121.651 297.57 120.931 298.662 120.931ZM302.655 126.187L304.275 123.859L305.907 126.187H306.891L304.839 123.295L306.903 120.379H305.943L304.311 122.707L302.667 120.379H301.695L303.759 123.283L301.683 126.187H302.655ZM307.887 128.719H308.715V125.071C309.123 125.911 309.903 126.331 310.887 126.331C312.603 126.331 313.575 125.011 313.575 123.259C313.575 121.507 312.567 120.223 310.887 120.223C309.915 120.223 309.099 120.655 308.691 121.555L308.607 120.379H307.887V128.719ZM308.727 123.283C308.727 121.939 309.471 120.979 310.743 120.979C312.003 120.979 312.735 121.939 312.735 123.283C312.735 124.615 312.003 125.587 310.743 125.587C309.471 125.587 308.727 124.615 308.727 123.283ZM317.331 126.331C318.699 126.331 319.599 125.671 319.911 124.447H319.119C318.903 125.215 318.291 125.623 317.343 125.623C316.095 125.623 315.351 124.807 315.291 123.391H319.911V122.983C319.911 121.339 318.843 120.223 317.271 120.223C315.615 120.223 314.487 121.471 314.487 123.283C314.487 125.107 315.627 126.331 317.331 126.331ZM317.271 120.931C318.363 120.931 319.083 121.675 319.083 122.791H315.315C315.459 121.651 316.179 120.931 317.271 120.931ZM324.271 120.307C324.067 120.259 323.911 120.247 323.731 120.247C322.915 120.247 322.303 120.655 322.075 121.279L322.015 120.379H321.235V126.187H322.063V122.875C322.063 121.771 322.747 121.051 323.815 121.051H324.271V120.307ZM326.938 126.187V121.075H328.102V120.379H326.938V118.543H326.122V120.379H324.958V121.075H326.122V126.187H326.938ZM328.688 124.555C328.688 125.635 329.504 126.331 330.812 126.331C332.132 126.331 333.02 125.647 333.02 124.603C333.02 123.763 332.564 123.295 331.556 123.043L330.56 122.791C329.924 122.635 329.612 122.323 329.612 121.879C329.612 121.255 330.068 120.907 330.884 120.907C331.664 120.907 332.132 121.303 332.156 121.975H332.96C332.924 120.895 332.132 120.223 330.908 120.223C329.66 120.223 328.808 120.871 328.808 121.891C328.808 122.683 329.3 123.211 330.308 123.463L331.304 123.715C331.988 123.883 332.228 124.159 332.228 124.639C332.228 125.263 331.7 125.647 330.8 125.647C329.984 125.647 329.48 125.227 329.48 124.555H328.688ZM40.216 138.379V139.075H41.104V144.187H41.932V139.075H43.3V138.379H41.932V137.251C41.932 136.567 42.124 136.195 42.856 136.195H43.348V135.487C43.156 135.451 42.916 135.439 42.712 135.439C41.824 135.439 41.104 135.943 41.104 137.251V138.379H40.216ZM46.6867 144.331C48.0547 144.331 48.9547 143.671 49.2667 142.447H48.4747C48.2587 143.215 47.6467 143.623 46.6987 143.623C45.4507 143.623 44.7067 142.807 44.6467 141.391H49.2667V140.983C49.2667 139.339 48.1987 138.223 46.6267 138.223C44.9707 138.223 43.8427 139.471 43.8427 141.283C43.8427 143.107 44.9827 144.331 46.6867 144.331ZM46.6267 138.931C47.7187 138.931 48.4387 139.675 48.4387 140.791H44.6707C44.8147 139.651 45.5347 138.931 46.6267 138.931ZM53.0266 144.331C54.3946 144.331 55.2946 143.671 55.6066 142.447H54.8146C54.5986 143.215 53.9866 143.623 53.0386 143.623C51.7906 143.623 51.0466 142.807 50.9866 141.391H55.6066V140.983C55.6066 139.339 54.5386 138.223 52.9666 138.223C51.3106 138.223 50.1826 139.471 50.1826 141.283C50.1826 143.107 51.3226 144.331 53.0266 144.331ZM52.9666 138.931C54.0586 138.931 54.7786 139.675 54.7786 140.791H51.0106C51.1546 139.651 51.8746 138.931 52.9666 138.931ZM61.5905 144.187V139.075H62.7545V138.379H61.5905V136.543H60.7745V138.379H59.6105V139.075H60.7745V144.187H61.5905ZM64.2408 136.783C64.5768 136.783 64.8648 136.507 64.8648 136.171C64.8648 135.835 64.5768 135.547 64.2408 135.547C63.9048 135.547 63.6288 135.835 63.6288 136.171C63.6288 136.507 63.9048 136.783 64.2408 136.783ZM63.8328 144.187H64.6608V138.379H63.8328V144.187ZM67.2154 144.187V140.587C67.2154 139.699 67.8034 138.979 68.7754 138.979C69.6514 138.979 70.2154 139.555 70.2154 140.539V144.187H71.0314V140.599C71.0314 139.699 71.6074 138.967 72.5794 138.967C73.4674 138.967 74.0194 139.555 74.0194 140.551V144.187H74.8234V140.383C74.8234 139.039 73.9954 138.223 72.7354 138.223C71.7994 138.223 71.0914 138.703 70.8274 139.459C70.5514 138.703 69.8674 138.223 68.9554 138.223C68.1394 138.223 67.4914 138.595 67.2034 139.207L67.1074 138.379H66.3874V144.187H67.2154ZM78.925 144.331C80.293 144.331 81.193 143.671 81.505 142.447H80.713C80.497 143.215 79.885 143.623 78.937 143.623C77.689 143.623 76.945 142.807 76.885 141.391H81.505V140.983C81.505 139.339 80.437 138.223 78.865 138.223C77.209 138.223 76.081 139.471 76.081 141.283C76.081 143.107 77.221 144.331 78.925 144.331ZM78.865 138.931C79.957 138.931 80.677 139.675 80.677 140.791H76.909C77.053 139.651 77.773 138.931 78.865 138.931ZM87.381 144.187H88.209L89.409 140.539C89.565 140.059 89.661 139.711 89.745 139.399C89.817 139.747 89.913 140.107 90.057 140.539L91.257 144.187H92.061L94.029 138.379H93.165L92.013 141.883C91.809 142.507 91.785 142.651 91.665 143.131C91.557 142.699 91.413 142.195 91.305 141.883L90.165 138.379H89.313L88.161 141.883C88.101 142.075 87.909 142.663 87.813 143.131C87.693 142.663 87.585 142.267 87.453 141.883L86.313 138.379H85.461L87.381 144.187ZM95.4712 136.783C95.8072 136.783 96.0952 136.507 96.0952 136.171C96.0952 135.835 95.8072 135.547 95.4712 135.547C95.1352 135.547 94.8592 135.835 94.8592 136.171C94.8592 136.507 95.1352 136.783 95.4712 136.783ZM95.0632 144.187H95.8912V138.379H95.0632V144.187ZM98.9499 144.187V139.075H100.114V138.379H98.9499V136.543H98.1339V138.379H96.9699V139.075H98.1339V144.187H98.9499ZM102.02 144.175V141.019C102.02 139.903 102.668 138.979 103.916 138.979C104.816 138.979 105.452 139.459 105.452 140.815V144.187H106.28V140.635C106.28 139.171 105.596 138.223 104.072 138.223C103.1 138.223 102.392 138.691 102.02 139.387V135.439H101.192V144.175H102.02ZM113.695 144.331C115.063 144.331 115.963 143.671 116.275 142.447H115.483C115.267 143.215 114.655 143.623 113.707 143.623C112.459 143.623 111.715 142.807 111.655 141.391H116.275V140.983C116.275 139.339 115.207 138.223 113.635 138.223C111.979 138.223 110.851 139.471 110.851 141.283C110.851 143.107 111.991 144.331 113.695 144.331ZM113.635 138.931C114.727 138.931 115.447 139.675 115.447 140.791H111.679C111.823 139.651 112.543 138.931 113.635 138.931ZM117.627 144.187L119.247 141.859L120.879 144.187H121.863L119.811 141.295L121.875 138.379H120.915L119.283 140.707L117.639 138.379H116.667L118.731 141.283L116.655 144.187H117.627ZM122.86 146.719H123.688V143.071C124.096 143.911 124.876 144.331 125.86 144.331C127.576 144.331 128.548 143.011 128.548 141.259C128.548 139.507 127.54 138.223 125.86 138.223C124.888 138.223 124.072 138.655 123.664 139.555L123.58 138.379H122.86V146.719ZM123.7 141.283C123.7 139.939 124.444 138.979 125.716 138.979C126.976 138.979 127.708 139.939 127.708 141.283C127.708 142.615 126.976 143.587 125.716 143.587C124.444 143.587 123.7 142.615 123.7 141.283ZM132.304 144.331C133.672 144.331 134.572 143.671 134.884 142.447H134.092C133.876 143.215 133.264 143.623 132.316 143.623C131.068 143.623 130.324 142.807 130.264 141.391H134.884V140.983C134.884 139.339 133.816 138.223 132.244 138.223C130.588 138.223 129.46 139.471 129.46 141.283C129.46 143.107 130.6 144.331 132.304 144.331ZM132.244 138.931C133.336 138.931 134.056 139.675 134.056 140.791H130.288C130.432 139.651 131.152 138.931 132.244 138.931ZM139.244 138.307C139.04 138.259 138.884 138.247 138.704 138.247C137.888 138.247 137.276 138.655 137.048 139.279L136.988 138.379H136.208V144.187H137.036V140.875C137.036 139.771 137.72 139.051 138.788 139.051H139.244V138.307ZM141.911 144.187V139.075H143.075V138.379H141.911V136.543H141.095V138.379H139.931V139.075H141.095V144.187H141.911ZM143.661 142.555C143.661 143.635 144.477 144.331 145.785 144.331C147.105 144.331 147.993 143.647 147.993 142.603C147.993 141.763 147.537 141.295 146.529 141.043L145.533 140.791C144.897 140.635 144.585 140.323 144.585 139.879C144.585 139.255 145.041 138.907 145.857 138.907C146.637 138.907 147.105 139.303 147.129 139.975H147.933C147.897 138.895 147.105 138.223 145.881 138.223C144.633 138.223 143.781 138.871 143.781 139.891C143.781 140.683 144.273 141.211 145.281 141.463L146.277 141.715C146.961 141.883 147.201 142.159 147.201 142.639C147.201 143.263 146.673 143.647 145.773 143.647C144.957 143.647 144.453 143.227 144.453 142.555H143.661ZM154.352 144.331C155.336 144.331 156.128 143.899 156.488 143.167L156.596 144.187H157.292V140.431C157.292 138.895 156.308 138.223 154.964 138.223C153.536 138.223 152.576 138.979 152.576 140.155H153.332C153.332 139.375 153.932 138.919 154.94 138.919C155.792 138.919 156.476 139.279 156.476 140.419V140.611L154.556 140.767C153.2 140.875 152.384 141.547 152.384 142.615C152.384 143.635 153.116 144.331 154.352 144.331ZM154.544 143.659C153.752 143.659 153.224 143.299 153.224 142.591C153.224 141.943 153.668 141.463 154.76 141.367L156.476 141.235V141.547C156.476 142.807 155.768 143.659 154.544 143.659ZM158.462 142.555C158.462 143.635 159.278 144.331 160.586 144.331C161.906 144.331 162.794 143.647 162.794 142.603C162.794 141.763 162.338 141.295 161.33 141.043L160.334 140.791C159.698 140.635 159.386 140.323 159.386 139.879C159.386 139.255 159.842 138.907 160.658 138.907C161.438 138.907 161.906 139.303 161.93 139.975H162.734C162.698 138.895 161.906 138.223 160.682 138.223C159.434 138.223 158.582 138.871 158.582 139.891C158.582 140.683 159.074 141.211 160.082 141.463L161.078 141.715C161.762 141.883 162.002 142.159 162.002 142.639C162.002 143.263 161.474 143.647 160.574 143.647C159.758 143.647 159.254 143.227 159.254 142.555H158.462ZM164.985 144.175V141.019C164.985 139.903 165.633 138.979 166.881 138.979C167.781 138.979 168.417 139.459 168.417 140.815V144.187H169.245V140.635C169.245 139.171 168.561 138.223 167.037 138.223C166.065 138.223 165.357 138.691 164.985 139.387V135.439H164.157V144.175H164.985ZM172.563 144.331C173.547 144.331 174.339 143.899 174.699 143.167L174.807 144.187H175.503V140.431C175.503 138.895 174.519 138.223 173.175 138.223C171.747 138.223 170.787 138.979 170.787 140.155H171.543C171.543 139.375 172.143 138.919 173.151 138.919C174.003 138.919 174.687 139.279 174.687 140.419V140.611L172.767 140.767C171.411 140.875 170.595 141.547 170.595 142.615C170.595 143.635 171.327 144.331 172.563 144.331ZM172.755 143.659C171.963 143.659 171.435 143.299 171.435 142.591C171.435 141.943 171.879 141.463 172.971 141.367L174.687 141.235V141.547C174.687 142.807 173.979 143.659 172.755 143.659ZM176.673 142.555C176.673 143.635 177.489 144.331 178.797 144.331C180.117 144.331 181.005 143.647 181.005 142.603C181.005 141.763 180.549 141.295 179.541 141.043L178.545 140.791C177.909 140.635 177.597 140.323 177.597 139.879C177.597 139.255 178.053 138.907 178.869 138.907C179.649 138.907 180.117 139.303 180.141 139.975H180.945C180.909 138.895 180.117 138.223 178.893 138.223C177.645 138.223 176.793 138.871 176.793 139.891C176.793 140.683 177.285 141.211 178.293 141.463L179.289 141.715C179.973 141.883 180.213 142.159 180.213 142.639C180.213 143.263 179.685 143.647 178.785 143.647C177.969 143.647 177.465 143.227 177.465 142.555H176.673ZM190.356 144.187V139.075H191.52V138.379H190.356V136.543H189.54V138.379H188.376V139.075H189.54V144.187H190.356ZM193.006 136.783C193.342 136.783 193.63 136.507 193.63 136.171C193.63 135.835 193.342 135.547 193.006 135.547C192.67 135.547 192.394 135.835 192.394 136.171C192.394 136.507 192.67 136.783 193.006 136.783ZM192.598 144.187H193.426V138.379H192.598V144.187ZM195.981 144.187V140.587C195.981 139.699 196.569 138.979 197.541 138.979C198.417 138.979 198.981 139.555 198.981 140.539V144.187H199.797V140.599C199.797 139.699 200.373 138.967 201.345 138.967C202.233 138.967 202.785 139.555 202.785 140.551V144.187H203.589V140.383C203.589 139.039 202.761 138.223 201.501 138.223C200.565 138.223 199.857 138.703 199.593 139.459C199.317 138.703 198.633 138.223 197.721 138.223C196.905 138.223 196.257 138.595 195.969 139.207L195.873 138.379H195.153V144.187H195.981ZM207.691 144.331C209.059 144.331 209.959 143.671 210.271 142.447H209.479C209.263 143.215 208.651 143.623 207.703 143.623C206.455 143.623 205.711 142.807 205.651 141.391H210.271V140.983C210.271 139.339 209.203 138.223 207.631 138.223C205.975 138.223 204.847 139.471 204.847 141.283C204.847 143.107 205.987 144.331 207.691 144.331ZM207.631 138.931C208.723 138.931 209.443 139.675 209.443 140.791H205.675C205.819 139.651 206.539 138.931 207.631 138.931ZM216.147 144.187H216.975L218.175 140.539C218.331 140.059 218.427 139.711 218.511 139.399C218.583 139.747 218.679 140.107 218.823 140.539L220.023 144.187H220.827L222.795 138.379H221.931L220.779 141.883C220.575 142.507 220.551 142.651 220.431 143.131C220.323 142.699 220.179 142.195 220.071 141.883L218.931 138.379H218.079L216.927 141.883C216.867 142.075 216.675 142.663 216.579 143.131C216.459 142.663 216.351 142.267 216.219 141.883L215.079 138.379H214.227L216.147 144.187ZM224.237 136.783C224.573 136.783 224.861 136.507 224.861 136.171C224.861 135.835 224.573 135.547 224.237 135.547C223.901 135.547 223.625 135.835 223.625 136.171C223.625 136.507 223.901 136.783 224.237 136.783ZM223.829 144.187H224.657V138.379H223.829V144.187ZM227.716 144.187V139.075H228.88V138.379H227.716V136.543H226.9V138.379H225.736V139.075H226.9V144.187H227.716ZM230.786 144.175V141.019C230.786 139.903 231.434 138.979 232.682 138.979C233.582 138.979 234.218 139.459 234.218 140.815V144.187H235.046V140.635C235.046 139.171 234.362 138.223 232.838 138.223C231.866 138.223 231.158 138.691 230.786 139.387V135.439H229.958V144.175H230.786ZM242.46 144.331C243.828 144.331 244.728 143.671 245.04 142.447H244.248C244.032 143.215 243.42 143.623 242.472 143.623C241.224 143.623 240.48 142.807 240.42 141.391H245.04V140.983C245.04 139.339 243.972 138.223 242.4 138.223C240.744 138.223 239.616 139.471 239.616 141.283C239.616 143.107 240.756 144.331 242.46 144.331ZM242.4 138.931C243.492 138.931 244.212 139.675 244.212 140.791H240.444C240.588 139.651 241.308 138.931 242.4 138.931ZM246.393 144.187L248.013 141.859L249.645 144.187H250.629L248.577 141.295L250.641 138.379H249.681L248.049 140.707L246.405 138.379H245.433L247.497 141.283L245.421 144.187H246.393ZM251.626 146.719H252.454V143.071C252.862 143.911 253.642 144.331 254.626 144.331C256.342 144.331 257.314 143.011 257.314 141.259C257.314 139.507 256.306 138.223 254.626 138.223C253.654 138.223 252.838 138.655 252.43 139.555L252.346 138.379H251.626V146.719ZM252.466 141.283C252.466 139.939 253.21 138.979 254.482 138.979C255.742 138.979 256.474 139.939 256.474 141.283C256.474 142.615 255.742 143.587 254.482 143.587C253.21 143.587 252.466 142.615 252.466 141.283ZM261.07 144.331C262.438 144.331 263.338 143.671 263.65 142.447H262.858C262.642 143.215 262.03 143.623 261.082 143.623C259.834 143.623 259.09 142.807 259.03 141.391H263.65V140.983C263.65 139.339 262.582 138.223 261.01 138.223C259.354 138.223 258.226 139.471 258.226 141.283C258.226 143.107 259.366 144.331 261.07 144.331ZM261.01 138.931C262.102 138.931 262.822 139.675 262.822 140.791H259.054C259.198 139.651 259.918 138.931 261.01 138.931ZM268.009 138.307C267.805 138.259 267.649 138.247 267.469 138.247C266.653 138.247 266.041 138.655 265.813 139.279L265.753 138.379H264.973V144.187H265.801V140.875C265.801 139.771 266.485 139.051 267.553 139.051H268.009V138.307ZM270.676 144.187V139.075H271.84V138.379H270.676V136.543H269.86V138.379H268.696V139.075H269.86V144.187H270.676ZM272.427 142.555C272.427 143.635 273.243 144.331 274.551 144.331C275.871 144.331 276.759 143.647 276.759 142.603C276.759 141.763 276.303 141.295 275.295 141.043L274.299 140.791C273.663 140.635 273.351 140.323 273.351 139.879C273.351 139.255 273.807 138.907 274.623 138.907C275.403 138.907 275.871 139.303 275.895 139.975H276.699C276.663 138.895 275.871 138.223 274.647 138.223C273.399 138.223 272.547 138.871 272.547 139.891C272.547 140.683 273.039 141.211 274.047 141.463L275.043 141.715C275.727 141.883 275.967 142.159 275.967 142.639C275.967 143.263 275.439 143.647 274.539 143.647C273.723 143.647 273.219 143.227 273.219 142.555H272.427ZM280.802 138.379V139.075H281.69V144.187H282.518V139.075H283.886V138.379H282.518V137.251C282.518 136.567 282.71 136.195 283.442 136.195H283.934V135.487C283.742 135.451 283.502 135.439 283.298 135.439C282.41 135.439 281.69 135.943 281.69 137.251V138.379H280.802ZM287.273 144.331C288.641 144.331 289.541 143.671 289.853 142.447H289.061C288.845 143.215 288.233 143.623 287.285 143.623C286.037 143.623 285.293 142.807 285.233 141.391H289.853V140.983C289.853 139.339 288.785 138.223 287.213 138.223C285.557 138.223 284.429 139.471 284.429 141.283C284.429 143.107 285.569 144.331 287.273 144.331ZM287.213 138.931C288.305 138.931 289.025 139.675 289.025 140.791H285.257C285.401 139.651 286.121 138.931 287.213 138.931ZM293.613 144.331C294.981 144.331 295.881 143.671 296.193 142.447H295.401C295.185 143.215 294.573 143.623 293.625 143.623C292.377 143.623 291.633 142.807 291.573 141.391H296.193V140.983C296.193 139.339 295.125 138.223 293.553 138.223C291.896 138.223 290.769 139.471 290.769 141.283C290.769 143.107 291.909 144.331 293.613 144.331ZM293.553 138.931C294.645 138.931 295.365 139.675 295.365 140.791H291.597C291.741 139.651 292.461 138.931 293.553 138.931ZM302.176 144.187V139.075H303.34V138.379H302.176V136.543H301.36V138.379H300.196V139.075H301.36V144.187H302.176ZM304.827 136.783C305.163 136.783 305.451 136.507 305.451 136.171C305.451 135.835 305.163 135.547 304.827 135.547C304.491 135.547 304.215 135.835 304.215 136.171C304.215 136.507 304.491 136.783 304.827 136.783ZM304.419 144.187H305.247V138.379H304.419V144.187ZM307.801 144.187V140.587C307.801 139.699 308.389 138.979 309.361 138.979C310.237 138.979 310.801 139.555 310.801 140.539V144.187H311.617V140.599C311.617 139.699 312.193 138.967 313.165 138.967C314.053 138.967 314.605 139.555 314.605 140.551V144.187H315.409V140.383C315.409 139.039 314.581 138.223 313.321 138.223C312.385 138.223 311.677 138.703 311.413 139.459C311.137 138.703 310.453 138.223 309.541 138.223C308.725 138.223 308.077 138.595 307.789 139.207L307.693 138.379H306.973V144.187H307.801ZM319.511 144.331C320.879 144.331 321.779 143.671 322.091 142.447H321.299C321.083 143.215 320.471 143.623 319.523 143.623C318.275 143.623 317.531 142.807 317.471 141.391H322.091V140.983C322.091 139.339 321.023 138.223 319.451 138.223C317.795 138.223 316.667 139.471 316.667 141.283C316.667 143.107 317.807 144.331 319.511 144.331ZM319.451 138.931C320.543 138.931 321.263 139.675 321.263 140.791H317.495C317.639 139.651 318.359 138.931 319.451 138.931ZM42.088 162.187H42.916L44.116 158.539C44.272 158.059 44.368 157.711 44.452 157.399C44.524 157.747 44.62 158.107 44.764 158.539L45.964 162.187H46.768L48.736 156.379H47.872L46.72 159.883C46.516 160.507 46.492 160.651 46.372 161.131C46.264 160.699 46.12 160.195 46.012 159.883L44.872 156.379H44.02L42.868 159.883C42.808 160.075 42.616 160.663 42.52 161.131C42.4 160.663 42.292 160.267 42.16 159.883L41.02 156.379H40.168L42.088 162.187ZM50.1783 154.783C50.5143 154.783 50.8023 154.507 50.8023 154.171C50.8023 153.835 50.5143 153.547 50.1783 153.547C49.8423 153.547 49.5663 153.835 49.5663 154.171C49.5663 154.507 49.8423 154.783 50.1783 154.783ZM49.7703 162.187H50.5983V156.379H49.7703V162.187ZM53.6569 162.187V157.075H54.8209V156.379H53.6569V154.543H52.8409V156.379H51.6769V157.075H52.8409V162.187H53.6569ZM56.7272 162.175V159.019C56.7272 157.903 57.3752 156.979 58.6232 156.979C59.5232 156.979 60.1592 157.459 60.1592 158.815V162.187H60.9872V158.635C60.9872 157.171 60.3032 156.223 58.7792 156.223C57.8072 156.223 57.0992 156.691 56.7272 157.387V153.439H55.8992V162.175H56.7272ZM68.4016 162.331C69.7696 162.331 70.6696 161.671 70.9816 160.447H70.1896C69.9736 161.215 69.3616 161.623 68.4136 161.623C67.1656 161.623 66.4216 160.807 66.3616 159.391H70.9816V158.983C70.9816 157.339 69.9136 156.223 68.3416 156.223C66.6856 156.223 65.5576 157.471 65.5576 159.283C65.5576 161.107 66.6976 162.331 68.4016 162.331ZM68.3416 156.931C69.4336 156.931 70.1536 157.675 70.1536 158.791H66.3856C66.5296 157.651 67.2496 156.931 68.3416 156.931ZM72.3342 162.187L73.9542 159.859L75.5862 162.187H76.5702L74.5182 159.295L76.5822 156.379H75.6222L73.9902 158.707L72.3462 156.379H71.3742L73.4382 159.283L71.3622 162.187H72.3342ZM77.5671 164.719H78.3951V161.071C78.8031 161.911 79.5831 162.331 80.5671 162.331C82.2831 162.331 83.2551 161.011 83.2551 159.259C83.2551 157.507 82.2471 156.223 80.5671 156.223C79.5951 156.223 78.7791 156.655 78.3711 157.555L78.2871 156.379H77.5671V164.719ZM78.4071 159.283C78.4071 157.939 79.1511 156.979 80.4231 156.979C81.6831 156.979 82.4151 157.939 82.4151 159.283C82.4151 160.615 81.6831 161.587 80.4231 161.587C79.1511 161.587 78.4071 160.615 78.4071 159.283ZM87.0109 162.331C88.3789 162.331 89.2789 161.671 89.5909 160.447H88.7989C88.5829 161.215 87.9709 161.623 87.0229 161.623C85.7749 161.623 85.0309 160.807 84.9709 159.391H89.5909V158.983C89.5909 157.339 88.5229 156.223 86.9509 156.223C85.2949 156.223 84.1669 157.471 84.1669 159.283C84.1669 161.107 85.3069 162.331 87.0109 162.331ZM86.9509 156.931C88.0429 156.931 88.7629 157.675 88.7629 158.791H84.9949C85.1389 157.651 85.8589 156.931 86.9509 156.931ZM93.9508 156.307C93.7468 156.259 93.5908 156.247 93.4108 156.247C92.5948 156.247 91.9828 156.655 91.7548 157.279L91.6948 156.379H90.9148V162.187H91.7428V158.875C91.7428 157.771 92.4268 157.051 93.4948 157.051H93.9508V156.307ZM96.6179 162.187V157.075H97.7819V156.379H96.6179V154.543H95.8019V156.379H94.6379V157.075H95.8019V162.187H96.6179ZM98.3681 160.555C98.3681 161.635 99.1841 162.331 100.492 162.331C101.812 162.331 102.7 161.647 102.7 160.603C102.7 159.763 102.244 159.295 101.236 159.043L100.24 158.791C99.6041 158.635 99.2921 158.323 99.2921 157.879C99.2921 157.255 99.7481 156.907 100.564 156.907C101.344 156.907 101.812 157.303 101.836 157.975H102.64C102.604 156.895 101.812 156.223 100.588 156.223C99.3401 156.223 98.4881 156.871 98.4881 157.891C98.4881 158.683 98.9801 159.211 99.9881 159.463L100.984 159.715C101.668 159.883 101.908 160.159 101.908 160.639C101.908 161.263 101.38 161.647 100.48 161.647C99.6641 161.647 99.1601 161.227 99.1601 160.555H98.3681ZM108.615 162.187H109.443L110.643 158.539C110.799 158.059 110.895 157.711 110.979 157.399C111.051 157.747 111.147 158.107 111.291 158.539L112.491 162.187H113.295L115.263 156.379H114.399L113.247 159.883C113.043 160.507 113.019 160.651 112.899 161.131C112.791 160.699 112.647 160.195 112.539 159.883L111.399 156.379H110.547L109.395 159.883C109.335 160.075 109.143 160.663 109.047 161.131C108.927 160.663 108.819 160.267 108.687 159.883L107.547 156.379H106.695L108.615 162.187ZM116.706 154.783C117.042 154.783 117.33 154.507 117.33 154.171C117.33 153.835 117.042 153.547 116.706 153.547C116.37 153.547 116.094 153.835 116.094 154.171C116.094 154.507 116.37 154.783 116.706 154.783ZM116.298 162.187H117.126V156.379H116.298V162.187ZM120.184 162.187V157.075H121.348V156.379H120.184V154.543H119.368V156.379H118.204V157.075H119.368V162.187H120.184ZM123.255 162.175V159.019C123.255 157.903 123.903 156.979 125.151 156.979C126.051 156.979 126.687 157.459 126.687 158.815V162.187H127.515V158.635C127.515 157.171 126.831 156.223 125.307 156.223C124.335 156.223 123.627 156.691 123.255 157.387V153.439H122.427V162.175H123.255ZM134.929 162.331C136.297 162.331 137.197 161.671 137.509 160.447H136.717C136.501 161.215 135.889 161.623 134.941 161.623C133.693 161.623 132.949 160.807 132.889 159.391H137.509V158.983C137.509 157.339 136.441 156.223 134.869 156.223C133.213 156.223 132.085 157.471 132.085 159.283C132.085 161.107 133.225 162.331 134.929 162.331ZM134.869 156.931C135.961 156.931 136.681 157.675 136.681 158.791H132.913C133.057 157.651 133.777 156.931 134.869 156.931ZM138.862 162.187L140.482 159.859L142.114 162.187H143.098L141.046 159.295L143.11 156.379H142.15L140.518 158.707L138.874 156.379H137.902L139.966 159.283L137.89 162.187H138.862ZM144.094 164.719H144.922V161.071C145.33 161.911 146.11 162.331 147.094 162.331C148.81 162.331 149.782 161.011 149.782 159.259C149.782 157.507 148.774 156.223 147.094 156.223C146.122 156.223 145.306 156.655 144.898 157.555L144.814 156.379H144.094V164.719ZM144.934 159.283C144.934 157.939 145.678 156.979 146.95 156.979C148.21 156.979 148.942 157.939 148.942 159.283C148.942 160.615 148.21 161.587 146.95 161.587C145.678 161.587 144.934 160.615 144.934 159.283ZM153.538 162.331C154.906 162.331 155.806 161.671 156.118 160.447H155.326C155.11 161.215 154.498 161.623 153.55 161.623C152.302 161.623 151.558 160.807 151.498 159.391H156.118V158.983C156.118 157.339 155.05 156.223 153.478 156.223C151.822 156.223 150.694 157.471 150.694 159.283C150.694 161.107 151.834 162.331 153.538 162.331ZM153.478 156.931C154.57 156.931 155.29 157.675 155.29 158.791H151.522C151.666 157.651 152.386 156.931 153.478 156.931ZM160.478 156.307C160.274 156.259 160.118 156.247 159.938 156.247C159.122 156.247 158.51 156.655 158.282 157.279L158.222 156.379H157.442V162.187H158.27V158.875C158.27 157.771 158.954 157.051 160.022 157.051H160.478V156.307ZM163.145 162.187V157.075H164.309V156.379H163.145V154.543H162.329V156.379H161.165V157.075H162.329V162.187H163.145ZM164.895 160.555C164.895 161.635 165.711 162.331 167.019 162.331C168.339 162.331 169.227 161.647 169.227 160.603C169.227 159.763 168.771 159.295 167.763 159.043L166.767 158.791C166.131 158.635 165.819 158.323 165.819 157.879C165.819 157.255 166.275 156.907 167.091 156.907C167.871 156.907 168.339 157.303 168.363 157.975H169.167C169.131 156.895 168.339 156.223 167.115 156.223C165.867 156.223 165.015 156.871 165.015 157.891C165.015 158.683 165.507 159.211 166.515 159.463L167.511 159.715C168.195 159.883 168.435 160.159 168.435 160.639C168.435 161.263 167.907 161.647 167.007 161.647C166.191 161.647 165.687 161.227 165.687 160.555H164.895ZM173.271 156.379V157.075H174.159V162.187H174.987V157.075H176.355V156.379H174.987V155.251C174.987 154.567 175.179 154.195 175.911 154.195H176.403V153.487C176.211 153.451 175.971 153.439 175.767 153.439C174.879 153.439 174.159 153.943 174.159 155.251V156.379H173.271ZM179.741 162.331C181.109 162.331 182.009 161.671 182.321 160.447H181.529C181.313 161.215 180.701 161.623 179.753 161.623C178.505 161.623 177.761 160.807 177.701 159.391H182.321V158.983C182.321 157.339 181.253 156.223 179.681 156.223C178.025 156.223 176.897 157.471 176.897 159.283C176.897 161.107 178.037 162.331 179.741 162.331ZM179.681 156.931C180.773 156.931 181.493 157.675 181.493 158.791H177.725C177.869 157.651 178.589 156.931 179.681 156.931ZM186.081 162.331C187.449 162.331 188.349 161.671 188.661 160.447H187.869C187.653 161.215 187.041 161.623 186.093 161.623C184.845 161.623 184.101 160.807 184.041 159.391H188.661V158.983C188.661 157.339 187.593 156.223 186.021 156.223C184.365 156.223 183.237 157.471 183.237 159.283C183.237 161.107 184.377 162.331 186.081 162.331ZM186.021 156.931C187.113 156.931 187.833 157.675 187.833 158.791H184.065C184.209 157.651 184.929 156.931 186.021 156.931ZM194.645 162.187V157.075H195.809V156.379H194.645V154.543H193.829V156.379H192.665V157.075H193.829V162.187H194.645ZM197.295 154.783C197.631 154.783 197.919 154.507 197.919 154.171C197.919 153.835 197.631 153.547 197.295 153.547C196.959 153.547 196.683 153.835 196.683 154.171C196.683 154.507 196.959 154.783 197.295 154.783ZM196.887 162.187H197.715V156.379H196.887V162.187ZM200.27 162.187V158.587C200.27 157.699 200.858 156.979 201.83 156.979C202.706 156.979 203.27 157.555 203.27 158.539V162.187H204.086V158.599C204.086 157.699 204.662 156.967 205.634 156.967C206.522 156.967 207.074 157.555 207.074 158.551V162.187H207.878V158.383C207.878 157.039 207.05 156.223 205.79 156.223C204.854 156.223 204.146 156.703 203.882 157.459C203.606 156.703 202.922 156.223 202.01 156.223C201.194 156.223 200.546 156.595 200.258 157.207L200.162 156.379H199.442V162.187H200.27ZM211.98 162.331C213.348 162.331 214.248 161.671 214.56 160.447H213.768C213.552 161.215 212.94 161.623 211.992 161.623C210.744 161.623 210 160.807 209.94 159.391H214.56V158.983C214.56 157.339 213.492 156.223 211.92 156.223C210.264 156.223 209.136 157.471 209.136 159.283C209.136 161.107 210.276 162.331 211.98 162.331ZM211.92 156.931C213.012 156.931 213.732 157.675 213.732 158.791H209.964C210.108 157.651 210.828 156.931 211.92 156.931ZM220.436 162.187H221.264L222.464 158.539C222.62 158.059 222.716 157.711 222.8 157.399C222.872 157.747 222.968 158.107 223.112 158.539L224.312 162.187H225.116L227.084 156.379H226.22L225.068 159.883C224.864 160.507 224.84 160.651 224.72 161.131C224.612 160.699 224.468 160.195 224.36 159.883L223.22 156.379H222.368L221.216 159.883C221.156 160.075 220.964 160.663 220.868 161.131C220.748 160.663 220.64 160.267 220.508 159.883L219.368 156.379H218.516L220.436 162.187ZM228.526 154.783C228.862 154.783 229.15 154.507 229.15 154.171C229.15 153.835 228.862 153.547 228.526 153.547C228.19 153.547 227.914 153.835 227.914 154.171C227.914 154.507 228.19 154.783 228.526 154.783ZM228.118 162.187H228.946V156.379H228.118V162.187ZM232.005 162.187V157.075H233.169V156.379H232.005V154.543H231.189V156.379H230.025V157.075H231.189V162.187H232.005ZM235.075 162.175V159.019C235.075 157.903 235.723 156.979 236.971 156.979C237.871 156.979 238.507 157.459 238.507 158.815V162.187H239.335V158.635C239.335 157.171 238.651 156.223 237.127 156.223C236.155 156.223 235.447 156.691 235.075 157.387V153.439H234.247V162.175H235.075ZM246.749 162.331C248.117 162.331 249.017 161.671 249.329 160.447H248.537C248.321 161.215 247.709 161.623 246.761 161.623C245.513 161.623 244.769 160.807 244.709 159.391H249.329V158.983C249.329 157.339 248.261 156.223 246.689 156.223C245.033 156.223 243.905 157.471 243.905 159.283C243.905 161.107 245.045 162.331 246.749 162.331ZM246.689 156.931C247.781 156.931 248.501 157.675 248.501 158.791H244.733C244.877 157.651 245.597 156.931 246.689 156.931ZM250.682 162.187L252.302 159.859L253.934 162.187H254.918L252.866 159.295L254.93 156.379H253.97L252.338 158.707L250.694 156.379H249.722L251.786 159.283L249.71 162.187H250.682ZM255.915 164.719H256.743V161.071C257.151 161.911 257.931 162.331 258.915 162.331C260.631 162.331 261.603 161.011 261.603 159.259C261.603 157.507 260.595 156.223 258.915 156.223C257.943 156.223 257.127 156.655 256.719 157.555L256.635 156.379H255.915V164.719ZM256.755 159.283C256.755 157.939 257.499 156.979 258.771 156.979C260.031 156.979 260.763 157.939 260.763 159.283C260.763 160.615 260.031 161.587 258.771 161.587C257.499 161.587 256.755 160.615 256.755 159.283ZM265.359 162.331C266.727 162.331 267.627 161.671 267.939 160.447H267.147C266.931 161.215 266.319 161.623 265.371 161.623C264.123 161.623 263.379 160.807 263.319 159.391H267.939V158.983C267.939 157.339 266.871 156.223 265.299 156.223C263.643 156.223 262.515 157.471 262.515 159.283C262.515 161.107 263.655 162.331 265.359 162.331ZM265.299 156.931C266.391 156.931 267.111 157.675 267.111 158.791H263.343C263.487 157.651 264.207 156.931 265.299 156.931ZM272.298 156.307C272.094 156.259 271.938 156.247 271.758 156.247C270.942 156.247 270.33 156.655 270.102 157.279L270.042 156.379H269.262V162.187H270.09V158.875C270.09 157.771 270.774 157.051 271.842 157.051H272.298V156.307ZM274.966 162.187V157.075H276.13V156.379H274.966V154.543H274.15V156.379H272.986V157.075H274.15V162.187H274.966ZM276.716 160.555C276.716 161.635 277.532 162.331 278.84 162.331C280.16 162.331 281.048 161.647 281.048 160.603C281.048 159.763 280.592 159.295 279.584 159.043L278.588 158.791C277.952 158.635 277.64 158.323 277.64 157.879C277.64 157.255 278.096 156.907 278.912 156.907C279.692 156.907 280.16 157.303 280.184 157.975H280.988C280.952 156.895 280.16 156.223 278.936 156.223C277.688 156.223 276.836 156.871 276.836 157.891C276.836 158.683 277.328 159.211 278.336 159.463L279.332 159.715C280.016 159.883 280.256 160.159 280.256 160.639C280.256 161.263 279.728 161.647 278.828 161.647C278.012 161.647 277.508 161.227 277.508 160.555H276.716ZM287.407 162.331C288.391 162.331 289.183 161.899 289.543 161.167L289.651 162.187H290.347V158.431C290.347 156.895 289.363 156.223 288.019 156.223C286.591 156.223 285.631 156.979 285.631 158.155H286.387C286.387 157.375 286.987 156.919 287.995 156.919C288.847 156.919 289.531 157.279 289.531 158.419V158.611L287.611 158.767C286.255 158.875 285.439 159.547 285.439 160.615C285.439 161.635 286.171 162.331 287.407 162.331ZM287.599 161.659C286.807 161.659 286.279 161.299 286.279 160.591C286.279 159.943 286.723 159.463 287.815 159.367L289.531 159.235V159.547C289.531 160.807 288.823 161.659 287.599 161.659ZM291.517 160.555C291.517 161.635 292.333 162.331 293.641 162.331C294.961 162.331 295.849 161.647 295.849 160.603C295.849 159.763 295.393 159.295 294.385 159.043L293.389 158.791C292.753 158.635 292.441 158.323 292.441 157.879C292.441 157.255 292.897 156.907 293.713 156.907C294.493 156.907 294.961 157.303 294.985 157.975H295.789C295.753 156.895 294.961 156.223 293.737 156.223C292.489 156.223 291.637 156.871 291.637 157.891C291.637 158.683 292.129 159.211 293.137 159.463L294.133 159.715C294.817 159.883 295.057 160.159 295.057 160.639C295.057 161.263 294.529 161.647 293.629 161.647C292.813 161.647 292.309 161.227 292.309 160.555H291.517ZM298.04 162.175V159.019C298.04 157.903 298.688 156.979 299.936 156.979C300.836 156.979 301.472 157.459 301.472 158.815V162.187H302.3V158.635C302.3 157.171 301.616 156.223 300.092 156.223C299.12 156.223 298.412 156.691 298.04 157.387V153.439H297.212V162.175H298.04ZM305.618 162.331C306.602 162.331 307.394 161.899 307.754 161.167L307.862 162.187H308.558V158.431C308.558 156.895 307.574 156.223 306.23 156.223C304.802 156.223 303.842 156.979 303.842 158.155H304.598C304.598 157.375 305.198 156.919 306.206 156.919C307.058 156.919 307.742 157.279 307.742 158.419V158.611L305.822 158.767C304.466 158.875 303.65 159.547 303.65 160.615C303.65 161.635 304.382 162.331 305.618 162.331ZM305.81 161.659C305.018 161.659 304.49 161.299 304.49 160.591C304.49 159.943 304.934 159.463 306.026 159.367L307.742 159.235V159.547C307.742 160.807 307.034 161.659 305.81 161.659ZM309.727 160.555C309.727 161.635 310.543 162.331 311.851 162.331C313.171 162.331 314.059 161.647 314.059 160.603C314.059 159.763 313.603 159.295 312.595 159.043L311.599 158.791C310.963 158.635 310.651 158.323 310.651 157.879C310.651 157.255 311.107 156.907 311.923 156.907C312.703 156.907 313.171 157.303 313.195 157.975H313.999C313.963 156.895 313.171 156.223 311.947 156.223C310.699 156.223 309.847 156.871 309.847 157.891C309.847 158.683 310.339 159.211 311.347 159.463L312.343 159.715C313.027 159.883 313.267 160.159 313.267 160.639C313.267 161.263 312.739 161.647 311.839 161.647C311.023 161.647 310.519 161.227 310.519 160.555H309.727ZM316.037 162.319C316.445 162.319 316.793 161.983 316.793 161.587C316.793 161.179 316.445 160.831 316.037 160.831C315.629 160.831 315.281 161.179 315.281 161.587C315.281 161.983 315.629 162.319 316.037 162.319ZM45.424 176.407V175.627H41.908V172.387H46.108V171.595H41.044V180.187H41.908V176.407H45.424ZM50.0523 174.307C49.8483 174.259 49.6923 174.247 49.5123 174.247C48.6963 174.247 48.0843 174.655 47.8563 175.279L47.7963 174.379H47.0163V180.187H47.8443V176.875C47.8443 175.771 48.5283 175.051 49.5963 175.051H50.0523V174.307ZM53.3664 180.331C54.7344 180.331 55.6344 179.671 55.9464 178.447H55.1544C54.9384 179.215 54.3264 179.623 53.3784 179.623C52.1304 179.623 51.3864 178.807 51.3264 177.391H55.9464V176.983C55.9464 175.339 54.8784 174.223 53.3064 174.223C51.6504 174.223 50.5224 175.471 50.5224 177.283C50.5224 179.107 51.6624 180.331 53.3664 180.331ZM53.3064 174.931C54.3984 174.931 55.1184 175.675 55.1184 176.791H51.3504C51.4944 175.651 52.2144 174.931 53.3064 174.931ZM59.7063 180.331C61.0743 180.331 61.9743 179.671 62.2863 178.447H61.4943C61.2783 179.215 60.6663 179.623 59.7183 179.623C58.4703 179.623 57.7263 178.807 57.6663 177.391H62.2863V176.983C62.2863 175.339 61.2183 174.223 59.6463 174.223C57.9902 174.223 56.8623 175.471 56.8623 177.283C56.8623 179.107 58.0023 180.331 59.7063 180.331ZM59.6463 174.931C60.7383 174.931 61.4583 175.675 61.4583 176.791H57.6903C57.8343 175.651 58.5543 174.931 59.6463 174.931ZM68.2702 180.187V175.075H69.4342V174.379H68.2702V172.543H67.4542V174.379H66.2902V175.075H67.4542V180.187H68.2702ZM70.9204 172.783C71.2564 172.783 71.5444 172.507 71.5444 172.171C71.5444 171.835 71.2564 171.547 70.9204 171.547C70.5844 171.547 70.3084 171.835 70.3084 172.171C70.3084 172.507 70.5844 172.783 70.9204 172.783ZM70.5124 180.187H71.3404V174.379H70.5124V180.187ZM73.8951 180.187V176.587C73.8951 175.699 74.4831 174.979 75.4551 174.979C76.3311 174.979 76.8951 175.555 76.8951 176.539V180.187H77.7111V176.599C77.7111 175.699 78.2871 174.967 79.2591 174.967C80.1471 174.967 80.6991 175.555 80.6991 176.551V180.187H81.5031V176.383C81.5031 175.039 80.6751 174.223 79.4151 174.223C78.4791 174.223 77.7711 174.703 77.5071 175.459C77.2311 174.703 76.5471 174.223 75.6351 174.223C74.8191 174.223 74.1711 174.595 73.8831 175.207L73.7871 174.379H73.0671V180.187H73.8951ZM85.6047 180.331C86.9727 180.331 87.8727 179.671 88.1847 178.447H87.3927C87.1767 179.215 86.5647 179.623 85.6167 179.623C84.3687 179.623 83.6247 178.807 83.5647 177.391H88.1847V176.983C88.1847 175.339 87.1167 174.223 85.5447 174.223C83.8887 174.223 82.7607 175.471 82.7607 177.283C82.7607 179.107 83.9007 180.331 85.6047 180.331ZM85.5447 174.931C86.6367 174.931 87.3567 175.675 87.3567 176.791H83.5887C83.7327 175.651 84.4527 174.931 85.5447 174.931ZM94.0607 180.187H94.8887L96.0887 176.539C96.2447 176.059 96.3407 175.711 96.4247 175.399C96.4967 175.747 96.5927 176.107 96.7367 176.539L97.9367 180.187H98.7407L100.709 174.379H99.8447L98.6927 177.883C98.4887 178.507 98.4647 178.651 98.3447 179.131C98.2367 178.699 98.0927 178.195 97.9847 177.883L96.8447 174.379H95.9927L94.8407 177.883C94.7807 178.075 94.5887 178.663 94.4927 179.131C94.3727 178.663 94.2647 178.267 94.1327 177.883L92.9927 174.379H92.1407L94.0607 180.187ZM102.151 172.783C102.487 172.783 102.775 172.507 102.775 172.171C102.775 171.835 102.487 171.547 102.151 171.547C101.815 171.547 101.539 171.835 101.539 172.171C101.539 172.507 101.815 172.783 102.151 172.783ZM101.743 180.187H102.571V174.379H101.743V180.187ZM105.63 180.187V175.075H106.794V174.379H105.63V172.543H104.814V174.379H103.65V175.075H104.814V180.187H105.63ZM108.7 180.175V177.019C108.7 175.903 109.348 174.979 110.596 174.979C111.496 174.979 112.132 175.459 112.132 176.815V180.187H112.96V176.635C112.96 175.171 112.276 174.223 110.752 174.223C109.78 174.223 109.072 174.691 108.7 175.387V171.439H107.872V180.175H108.7ZM120.374 180.331C121.742 180.331 122.642 179.671 122.954 178.447H122.162C121.946 179.215 121.334 179.623 120.386 179.623C119.138 179.623 118.394 178.807 118.334 177.391H122.954V176.983C122.954 175.339 121.886 174.223 120.314 174.223C118.658 174.223 117.53 175.471 117.53 177.283C117.53 179.107 118.67 180.331 120.374 180.331ZM120.314 174.931C121.406 174.931 122.126 175.675 122.126 176.791H118.358C118.502 175.651 119.222 174.931 120.314 174.931ZM124.307 180.187L125.927 177.859L127.559 180.187H128.543L126.491 177.295L128.555 174.379H127.595L125.963 176.707L124.319 174.379H123.347L125.411 177.283L123.335 180.187H124.307ZM129.54 182.719H130.368V179.071C130.776 179.911 131.556 180.331 132.54 180.331C134.256 180.331 135.228 179.011 135.228 177.259C135.228 175.507 134.22 174.223 132.54 174.223C131.568 174.223 130.752 174.655 130.344 175.555L130.26 174.379H129.54V182.719ZM130.38 177.283C130.38 175.939 131.124 174.979 132.396 174.979C133.656 174.979 134.388 175.939 134.388 177.283C134.388 178.615 133.656 179.587 132.396 179.587C131.124 179.587 130.38 178.615 130.38 177.283ZM138.984 180.331C140.352 180.331 141.252 179.671 141.564 178.447H140.772C140.556 179.215 139.944 179.623 138.996 179.623C137.748 179.623 137.004 178.807 136.944 177.391H141.564V176.983C141.564 175.339 140.496 174.223 138.924 174.223C137.268 174.223 136.14 175.471 136.14 177.283C136.14 179.107 137.28 180.331 138.984 180.331ZM138.924 174.931C140.016 174.931 140.736 175.675 140.736 176.791H136.968C137.112 175.651 137.832 174.931 138.924 174.931ZM145.923 174.307C145.719 174.259 145.563 174.247 145.383 174.247C144.567 174.247 143.955 174.655 143.727 175.279L143.667 174.379H142.887V180.187H143.715V176.875C143.715 175.771 144.399 175.051 145.467 175.051H145.923V174.307ZM148.591 180.187V175.075H149.755V174.379H148.591V172.543H147.775V174.379H146.611V175.075H147.775V180.187H148.591ZM150.341 178.555C150.341 179.635 151.157 180.331 152.465 180.331C153.785 180.331 154.673 179.647 154.673 178.603C154.673 177.763 154.217 177.295 153.209 177.043L152.213 176.791C151.577 176.635 151.265 176.323 151.265 175.879C151.265 175.255 151.721 174.907 152.537 174.907C153.317 174.907 153.785 175.303 153.809 175.975H154.613C154.577 174.895 153.785 174.223 152.561 174.223C151.313 174.223 150.461 174.871 150.461 175.891C150.461 176.683 150.953 177.211 151.961 177.463L152.957 177.715C153.641 177.883 153.881 178.159 153.881 178.639C153.881 179.263 153.353 179.647 152.453 179.647C151.637 179.647 151.133 179.227 151.133 178.555H150.341ZM158.716 174.379V175.075H159.604V180.187H160.432V175.075H161.8V174.379H160.432V173.251C160.432 172.567 160.624 172.195 161.356 172.195H161.848V171.487C161.656 171.451 161.416 171.439 161.212 171.439C160.324 171.439 159.604 171.943 159.604 173.251V174.379H158.716ZM165.187 180.331C166.555 180.331 167.455 179.671 167.767 178.447H166.975C166.759 179.215 166.147 179.623 165.199 179.623C163.951 179.623 163.207 178.807 163.147 177.391H167.767V176.983C167.767 175.339 166.699 174.223 165.127 174.223C163.471 174.223 162.343 175.471 162.343 177.283C162.343 179.107 163.483 180.331 165.187 180.331ZM165.127 174.931C166.219 174.931 166.939 175.675 166.939 176.791H163.171C163.315 175.651 164.035 174.931 165.127 174.931ZM171.527 180.331C172.895 180.331 173.795 179.671 174.107 178.447H173.315C173.099 179.215 172.487 179.623 171.539 179.623C170.291 179.623 169.547 178.807 169.487 177.391H174.107V176.983C174.107 175.339 173.039 174.223 171.467 174.223C169.811 174.223 168.683 175.471 168.683 177.283C168.683 179.107 169.823 180.331 171.527 180.331ZM171.467 174.931C172.559 174.931 173.279 175.675 173.279 176.791H169.511C169.655 175.651 170.375 174.931 171.467 174.931ZM180.091 180.187V175.075H181.255V174.379H180.091V172.543H179.275V174.379H178.111V175.075H179.275V180.187H180.091ZM182.741 172.783C183.077 172.783 183.365 172.507 183.365 172.171C183.365 171.835 183.077 171.547 182.741 171.547C182.405 171.547 182.129 171.835 182.129 172.171C182.129 172.507 182.405 172.783 182.741 172.783ZM182.333 180.187H183.161V174.379H182.333V180.187ZM185.715 180.187V176.587C185.715 175.699 186.303 174.979 187.275 174.979C188.151 174.979 188.715 175.555 188.715 176.539V180.187H189.531V176.599C189.531 175.699 190.107 174.967 191.079 174.967C191.967 174.967 192.519 175.555 192.519 176.551V180.187H193.323V176.383C193.323 175.039 192.495 174.223 191.235 174.223C190.299 174.223 189.591 174.703 189.327 175.459C189.051 174.703 188.367 174.223 187.455 174.223C186.639 174.223 185.991 174.595 185.703 175.207L185.607 174.379H184.887V180.187H185.715ZM197.425 180.331C198.793 180.331 199.693 179.671 200.005 178.447H199.213C198.997 179.215 198.385 179.623 197.437 179.623C196.189 179.623 195.445 178.807 195.385 177.391H200.005V176.983C200.005 175.339 198.937 174.223 197.365 174.223C195.709 174.223 194.581 175.471 194.581 177.283C194.581 179.107 195.721 180.331 197.425 180.331ZM197.365 174.931C198.457 174.931 199.177 175.675 199.177 176.791H195.409C195.553 175.651 196.273 174.931 197.365 174.931ZM205.881 180.187H206.709L207.909 176.539C208.065 176.059 208.161 175.711 208.245 175.399C208.317 175.747 208.413 176.107 208.557 176.539L209.757 180.187H210.561L212.529 174.379H211.665L210.513 177.883C210.309 178.507 210.285 178.651 210.165 179.131C210.057 178.699 209.913 178.195 209.805 177.883L208.665 174.379H207.813L206.661 177.883C206.601 178.075 206.409 178.663 206.313 179.131C206.193 178.663 206.085 178.267 205.953 177.883L204.813 174.379H203.961L205.881 180.187ZM213.971 172.783C214.307 172.783 214.595 172.507 214.595 172.171C214.595 171.835 214.307 171.547 213.971 171.547C213.635 171.547 213.359 171.835 213.359 172.171C213.359 172.507 213.635 172.783 213.971 172.783ZM213.563 180.187H214.391V174.379H213.563V180.187ZM217.45 180.187V175.075H218.614V174.379H217.45V172.543H216.634V174.379H215.47V175.075H216.634V180.187H217.45Z" fill="#2E3B41"/>
<path d="M328.958 195.044C328.958 196.769 330.088 197.704 331.365 197.704C332.004 197.704 332.396 197.557 332.691 197.36C332.691 198.788 331.414 200.02 329.695 200.365V202.187C332.691 201.695 335 199.084 335 196.03C335 193.567 333.526 192.187 331.807 192.187C330.088 192.187 328.958 193.419 328.958 195.044ZM321 195.044C321 196.769 322.13 197.704 323.407 197.704C323.996 197.704 324.439 197.606 324.733 197.409C324.733 198.788 323.456 200.02 321.737 200.365V202.187C324.782 201.695 327.091 199.084 327.091 196.03C327.091 193.567 325.568 192.187 323.898 192.187C322.179 192.187 321 193.419 321 195.044Z" fill="#153853"/>
</g>
<g filter="url(#filter1_d_1099_14397)">
<path d="M187.5 44.2065L202.5 70.1873H172.5L187.5 44.2065Z" fill="white"/>
</g>
<defs>
<filter id="filter0_d_1099_14397" x="-32" y="26.1873" width="439" height="252" filterUnits="userSpaceOnUse" color-interpolation-filters="sRGB">
<feFlood flood-opacity="0" result="BackgroundImageFix"/>
<feColorMatrix in="SourceAlpha" type="matrix" values="0 0 0 0 0 0 0 0 0 0 0 0 0 0 0 0 0 0 127 0" result="hardAlpha"/>
<feOffset dy="4"/>
<feGaussianBlur stdDeviation="24"/>
<feComposite in2="hardAlpha" operator="out"/>
<feColorMatrix type="matrix" values="0 0 0 0 0 0 0 0 0 0 0 0 0 0 0 0 0 0 0.1 0"/>
<feBlend mode="normal" in2="BackgroundImageFix" result="effect1_dropShadow_1099_14397"/>
<feBlend mode="normal" in="SourceGraphic" in2="effect1_dropShadow_1099_14397" result="shape"/>
</filter>
<filter id="filter1_d_1099_14397" x="124.5" y="0.206543" width="126" height="121.981" filterUnits="userSpaceOnUse" color-interpolation-filters="sRGB">
<feFlood flood-opacity="0" result="BackgroundImageFix"/>
<feColorMatrix in="SourceAlpha" type="matrix" values="0 0 0 0 0 0 0 0 0 0 0 0 0 0 0 0 0 0 127 0" result="hardAlpha"/>
<feOffset dy="4"/>
<feGaussianBlur stdDeviation="24"/>
<feComposite in2="hardAlpha" operator="out"/>
<feColorMatrix type="matrix" values="0 0 0 0 0 0 0 0 0 0 0 0 0 0 0 0 0 0 0.1 0"/>
<feBlend mode="normal" in2="BackgroundImageFix" result="effect1_dropShadow_1099_14397"/>
<feBlend mode="normal" in="SourceGraphic" in2="effect1_dropShadow_1099_14397" result="shape"/>
</filter>
</defs>
</svg>
