<svg width="554" height="288" viewBox="0 0 554 288" fill="none" xmlns="http://www.w3.org/2000/svg">
<g filter="url(#filter0_d_797_1068)">
<rect x="82.641" y="44" width="423" height="192" rx="16" fill="white" shape-rendering="crispEdges"/>
<path d="M118.683 81.1429C118.683 79.4187 117.553 78.4828 116.276 78.4828C115.637 78.4828 115.245 78.6305 114.95 78.8276C114.95 77.399 116.227 76.1675 117.946 75.8227V74C114.95 74.4926 112.641 77.1034 112.641 80.1576C112.641 82.6207 114.115 84 115.834 84C117.553 84 118.683 82.7685 118.683 81.1429ZM126.641 81.1429C126.641 79.4187 125.511 78.4828 124.234 78.4828C123.645 78.4828 123.202 78.5813 122.908 78.7783C122.908 77.399 124.185 76.1675 125.904 75.8227V74C122.859 74.4926 120.55 77.1034 120.55 80.1576C120.55 82.6207 122.073 84 123.743 84C125.462 84 126.641 82.7685 126.641 81.1429Z" fill="#153853"/>
<path d="M118.969 104.59V103.68H114.867V99.9H119.767V98.976H113.859V109H114.867V104.59H118.969ZM124.369 102.14C124.131 102.084 123.949 102.07 123.739 102.07C122.787 102.07 122.073 102.546 121.807 103.274L121.737 102.224H120.827V109H121.793V105.136C121.793 103.848 122.591 103.008 123.837 103.008H124.369V102.14ZM128.235 109.168C129.831 109.168 130.881 108.398 131.245 106.97H130.321C130.069 107.866 129.355 108.342 128.249 108.342C126.793 108.342 125.925 107.39 125.855 105.738H131.245V105.262C131.245 103.344 129.999 102.042 128.165 102.042C126.233 102.042 124.917 103.498 124.917 105.612C124.917 107.74 126.247 109.168 128.235 109.168ZM128.165 102.868C129.439 102.868 130.279 103.736 130.279 105.038H125.883C126.051 103.708 126.891 102.868 128.165 102.868ZM135.632 109.168C137.228 109.168 138.278 108.398 138.642 106.97H137.718C137.466 107.866 136.752 108.342 135.646 108.342C134.19 108.342 133.322 107.39 133.252 105.738H138.642V105.262C138.642 103.344 137.396 102.042 135.562 102.042C133.63 102.042 132.314 103.498 132.314 105.612C132.314 107.74 133.644 109.168 135.632 109.168ZM135.562 102.868C136.836 102.868 137.676 103.736 137.676 105.038H133.28C133.448 103.708 134.288 102.868 135.562 102.868ZM145.623 109V103.036H146.981V102.224H145.623V100.082H144.671V102.224H143.313V103.036H144.671V109H145.623ZM148.715 100.362C149.107 100.362 149.443 100.04 149.443 99.648C149.443 99.256 149.107 98.92 148.715 98.92C148.323 98.92 148.001 99.256 148.001 99.648C148.001 100.04 148.323 100.362 148.715 100.362ZM148.239 109H149.205V102.224H148.239V109ZM152.185 109V104.8C152.185 103.764 152.871 102.924 154.005 102.924C155.027 102.924 155.685 103.596 155.685 104.744V109H156.637V104.814C156.637 103.764 157.309 102.91 158.443 102.91C159.479 102.91 160.123 103.596 160.123 104.758V109H161.061V104.562C161.061 102.994 160.095 102.042 158.625 102.042C157.533 102.042 156.707 102.602 156.399 103.484C156.077 102.602 155.279 102.042 154.215 102.042C153.263 102.042 152.507 102.476 152.171 103.19L152.059 102.224H151.219V109H152.185ZM165.846 109.168C167.442 109.168 168.492 108.398 168.856 106.97H167.932C167.68 107.866 166.966 108.342 165.86 108.342C164.404 108.342 163.536 107.39 163.466 105.738H168.856V105.262C168.856 103.344 167.61 102.042 165.776 102.042C163.844 102.042 162.528 103.498 162.528 105.612C162.528 107.74 163.858 109.168 165.846 109.168ZM165.776 102.868C167.05 102.868 167.89 103.736 167.89 105.038H163.494C163.662 103.708 164.502 102.868 165.776 102.868ZM175.712 109H176.678L178.078 104.744C178.26 104.184 178.372 103.778 178.47 103.414C178.554 103.82 178.666 104.24 178.834 104.744L180.234 109H181.172L183.468 102.224H182.46L181.116 106.312C180.878 107.04 180.85 107.208 180.71 107.768C180.584 107.264 180.416 106.676 180.29 106.312L178.96 102.224H177.966L176.622 106.312C176.552 106.536 176.328 107.222 176.216 107.768C176.076 107.222 175.95 106.76 175.796 106.312L174.466 102.224H173.472L175.712 109ZM185.15 100.362C185.542 100.362 185.878 100.04 185.878 99.648C185.878 99.256 185.542 98.92 185.15 98.92C184.758 98.92 184.436 99.256 184.436 99.648C184.436 100.04 184.758 100.362 185.15 100.362ZM184.674 109H185.64V102.224H184.674V109ZM189.209 109V103.036H190.567V102.224H189.209V100.082H188.257V102.224H186.899V103.036H188.257V109H189.209ZM192.791 108.986V105.304C192.791 104.002 193.547 102.924 195.003 102.924C196.053 102.924 196.795 103.484 196.795 105.066V109H197.761V104.856C197.761 103.148 196.963 102.042 195.185 102.042C194.051 102.042 193.225 102.588 192.791 103.4V98.794H191.825V108.986H192.791ZM206.411 109.168C208.007 109.168 209.057 108.398 209.421 106.97H208.497C208.245 107.866 207.531 108.342 206.425 108.342C204.969 108.342 204.101 107.39 204.031 105.738H209.421V105.262C209.421 103.344 208.175 102.042 206.341 102.042C204.409 102.042 203.093 103.498 203.093 105.612C203.093 107.74 204.423 109.168 206.411 109.168ZM206.341 102.868C207.615 102.868 208.455 103.736 208.455 105.038H204.059C204.227 103.708 205.067 102.868 206.341 102.868ZM210.999 109L212.889 106.284L214.793 109H215.941L213.547 105.626L215.955 102.224H214.835L212.931 104.94L211.013 102.224H209.879L212.287 105.612L209.865 109H210.999ZM217.104 111.954H218.07V107.698C218.546 108.678 219.456 109.168 220.604 109.168C222.606 109.168 223.74 107.628 223.74 105.584C223.74 103.54 222.564 102.042 220.604 102.042C219.47 102.042 218.518 102.546 218.042 103.596L217.944 102.224H217.104V111.954ZM218.084 105.612C218.084 104.044 218.952 102.924 220.436 102.924C221.906 102.924 222.76 104.044 222.76 105.612C222.76 107.166 221.906 108.3 220.436 108.3C218.952 108.3 218.084 107.166 218.084 105.612ZM228.122 109.168C229.718 109.168 230.768 108.398 231.132 106.97H230.208C229.956 107.866 229.242 108.342 228.136 108.342C226.68 108.342 225.812 107.39 225.742 105.738H231.132V105.262C231.132 103.344 229.886 102.042 228.052 102.042C226.12 102.042 224.804 103.498 224.804 105.612C224.804 107.74 226.134 109.168 228.122 109.168ZM228.052 102.868C229.326 102.868 230.166 103.736 230.166 105.038H225.77C225.938 103.708 226.778 102.868 228.052 102.868ZM236.218 102.14C235.98 102.084 235.798 102.07 235.588 102.07C234.636 102.07 233.922 102.546 233.656 103.274L233.586 102.224H232.676V109H233.642V105.136C233.642 103.848 234.44 103.008 235.686 103.008H236.218V102.14ZM239.33 109V103.036H240.688V102.224H239.33V100.082H238.378V102.224H237.02V103.036H238.378V109H239.33ZM241.372 107.096C241.372 108.356 242.324 109.168 243.85 109.168C245.39 109.168 246.426 108.37 246.426 107.152C246.426 106.172 245.894 105.626 244.718 105.332L243.556 105.038C242.814 104.856 242.45 104.492 242.45 103.974C242.45 103.246 242.982 102.84 243.934 102.84C244.844 102.84 245.39 103.302 245.418 104.086H246.356C246.314 102.826 245.39 102.042 243.962 102.042C242.506 102.042 241.512 102.798 241.512 103.988C241.512 104.912 242.086 105.528 243.262 105.822L244.424 106.116C245.222 106.312 245.502 106.634 245.502 107.194C245.502 107.922 244.886 108.37 243.836 108.37C242.884 108.37 242.296 107.88 242.296 107.096H241.372ZM251.143 102.224V103.036H252.179V109H253.145V103.036H254.741V102.224H253.145V100.908C253.145 100.11 253.369 99.676 254.223 99.676H254.797V98.85C254.573 98.808 254.293 98.794 254.055 98.794C253.019 98.794 252.179 99.382 252.179 100.908V102.224H251.143ZM258.692 109.168C260.288 109.168 261.338 108.398 261.702 106.97H260.778C260.526 107.866 259.812 108.342 258.706 108.342C257.25 108.342 256.382 107.39 256.312 105.738H261.702V105.262C261.702 103.344 260.456 102.042 258.622 102.042C256.69 102.042 255.374 103.498 255.374 105.612C255.374 107.74 256.704 109.168 258.692 109.168ZM258.622 102.868C259.896 102.868 260.736 103.736 260.736 105.038H256.34C256.508 103.708 257.348 102.868 258.622 102.868ZM266.089 109.168C267.685 109.168 268.735 108.398 269.099 106.97H268.175C267.923 107.866 267.209 108.342 266.103 108.342C264.647 108.342 263.779 107.39 263.709 105.738H269.099V105.262C269.099 103.344 267.853 102.042 266.019 102.042C264.087 102.042 262.771 103.498 262.771 105.612C262.771 107.74 264.101 109.168 266.089 109.168ZM266.019 102.868C267.293 102.868 268.133 103.736 268.133 105.038H263.737C263.905 103.708 264.745 102.868 266.019 102.868ZM276.08 109V103.036H277.438V102.224H276.08V100.082H275.128V102.224H273.77V103.036H275.128V109H276.08ZM279.172 100.362C279.564 100.362 279.9 100.04 279.9 99.648C279.9 99.256 279.564 98.92 279.172 98.92C278.78 98.92 278.458 99.256 278.458 99.648C278.458 100.04 278.78 100.362 279.172 100.362ZM278.696 109H279.662V102.224H278.696V109ZM282.642 109V104.8C282.642 103.764 283.328 102.924 284.462 102.924C285.484 102.924 286.142 103.596 286.142 104.744V109H287.094V104.814C287.094 103.764 287.766 102.91 288.9 102.91C289.936 102.91 290.58 103.596 290.58 104.758V109H291.518V104.562C291.518 102.994 290.552 102.042 289.082 102.042C287.99 102.042 287.164 102.602 286.856 103.484C286.534 102.602 285.736 102.042 284.672 102.042C283.72 102.042 282.964 102.476 282.628 103.19L282.516 102.224H281.676V109H282.642ZM296.303 109.168C297.899 109.168 298.949 108.398 299.313 106.97H298.389C298.137 107.866 297.423 108.342 296.317 108.342C294.861 108.342 293.993 107.39 293.923 105.738H299.313V105.262C299.313 103.344 298.067 102.042 296.233 102.042C294.301 102.042 292.985 103.498 292.985 105.612C292.985 107.74 294.315 109.168 296.303 109.168ZM296.233 102.868C297.507 102.868 298.347 103.736 298.347 105.038H293.951C294.119 103.708 294.959 102.868 296.233 102.868ZM306.169 109H307.135L308.535 104.744C308.717 104.184 308.829 103.778 308.927 103.414C309.011 103.82 309.123 104.24 309.291 104.744L310.691 109H311.629L313.925 102.224H312.917L311.573 106.312C311.335 107.04 311.307 107.208 311.167 107.768C311.041 107.264 310.873 106.676 310.747 106.312L309.417 102.224H308.423L307.079 106.312C307.009 106.536 306.785 107.222 306.673 107.768C306.533 107.222 306.407 106.76 306.253 106.312L304.923 102.224H303.929L306.169 109ZM315.607 100.362C315.999 100.362 316.335 100.04 316.335 99.648C316.335 99.256 315.999 98.92 315.607 98.92C315.215 98.92 314.893 99.256 314.893 99.648C314.893 100.04 315.215 100.362 315.607 100.362ZM315.131 109H316.097V102.224H315.131V109ZM319.666 109V103.036H321.024V102.224H319.666V100.082H318.714V102.224H317.356V103.036H318.714V109H319.666ZM323.248 108.986V105.304C323.248 104.002 324.004 102.924 325.46 102.924C326.51 102.924 327.252 103.484 327.252 105.066V109H328.218V104.856C328.218 103.148 327.42 102.042 325.642 102.042C324.508 102.042 323.682 102.588 323.248 103.4V98.794H322.282V108.986H323.248ZM336.868 109.168C338.464 109.168 339.514 108.398 339.878 106.97H338.954C338.702 107.866 337.988 108.342 336.882 108.342C335.426 108.342 334.558 107.39 334.488 105.738H339.878V105.262C339.878 103.344 338.632 102.042 336.798 102.042C334.866 102.042 333.55 103.498 333.55 105.612C333.55 107.74 334.88 109.168 336.868 109.168ZM336.798 102.868C338.072 102.868 338.912 103.736 338.912 105.038H334.516C334.684 103.708 335.524 102.868 336.798 102.868ZM341.456 109L343.346 106.284L345.25 109H346.398L344.004 105.626L346.412 102.224H345.292L343.388 104.94L341.47 102.224H340.336L342.744 105.612L340.322 109H341.456ZM347.561 111.954H348.527V107.698C349.003 108.678 349.913 109.168 351.061 109.168C353.063 109.168 354.197 107.628 354.197 105.584C354.197 103.54 353.021 102.042 351.061 102.042C349.927 102.042 348.975 102.546 348.499 103.596L348.401 102.224H347.561V111.954ZM348.541 105.612C348.541 104.044 349.409 102.924 350.893 102.924C352.363 102.924 353.217 104.044 353.217 105.612C353.217 107.166 352.363 108.3 350.893 108.3C349.409 108.3 348.541 107.166 348.541 105.612ZM358.579 109.168C360.175 109.168 361.225 108.398 361.589 106.97H360.665C360.413 107.866 359.699 108.342 358.593 108.342C357.137 108.342 356.269 107.39 356.199 105.738H361.589V105.262C361.589 103.344 360.343 102.042 358.509 102.042C356.577 102.042 355.261 103.498 355.261 105.612C355.261 107.74 356.591 109.168 358.579 109.168ZM358.509 102.868C359.783 102.868 360.623 103.736 360.623 105.038H356.227C356.395 103.708 357.235 102.868 358.509 102.868ZM366.675 102.14C366.437 102.084 366.255 102.07 366.045 102.07C365.093 102.07 364.379 102.546 364.113 103.274L364.043 102.224H363.133V109H364.099V105.136C364.099 103.848 364.897 103.008 366.143 103.008H366.675V102.14ZM369.787 109V103.036H371.145V102.224H369.787V100.082H368.835V102.224H367.477V103.036H368.835V109H369.787ZM371.829 107.096C371.829 108.356 372.781 109.168 374.307 109.168C375.847 109.168 376.883 108.37 376.883 107.152C376.883 106.172 376.351 105.626 375.175 105.332L374.013 105.038C373.271 104.856 372.907 104.492 372.907 103.974C372.907 103.246 373.439 102.84 374.391 102.84C375.301 102.84 375.847 103.302 375.875 104.086H376.813C376.771 102.826 375.847 102.042 374.419 102.042C372.963 102.042 371.969 102.798 371.969 103.988C371.969 104.912 372.543 105.528 373.719 105.822L374.881 106.116C375.679 106.312 375.959 106.634 375.959 107.194C375.959 107.922 375.343 108.37 374.293 108.37C373.341 108.37 372.753 107.88 372.753 107.096H371.829ZM383.784 109H384.75L386.15 104.744C386.332 104.184 386.444 103.778 386.542 103.414C386.626 103.82 386.738 104.24 386.906 104.744L388.306 109H389.244L391.54 102.224H390.532L389.188 106.312C388.95 107.04 388.922 107.208 388.782 107.768C388.656 107.264 388.488 106.676 388.362 106.312L387.032 102.224H386.038L384.694 106.312C384.624 106.536 384.4 107.222 384.288 107.768C384.148 107.222 384.022 106.76 383.868 106.312L382.538 102.224H381.544L383.784 109ZM393.223 100.362C393.615 100.362 393.951 100.04 393.951 99.648C393.951 99.256 393.615 98.92 393.223 98.92C392.831 98.92 392.509 99.256 392.509 99.648C392.509 100.04 392.831 100.362 393.223 100.362ZM392.747 109H393.713V102.224H392.747V109ZM397.281 109V103.036H398.639V102.224H397.281V100.082H396.329V102.224H394.971V103.036H396.329V109H397.281ZM400.863 108.986V105.304C400.863 104.002 401.619 102.924 403.075 102.924C404.125 102.924 404.867 103.484 404.867 105.066V109H405.833V104.856C405.833 103.148 405.035 102.042 403.257 102.042C402.123 102.042 401.297 102.588 400.863 103.4V98.794H399.897V108.986H400.863ZM414.483 109.168C416.079 109.168 417.129 108.398 417.493 106.97H416.569C416.317 107.866 415.603 108.342 414.497 108.342C413.041 108.342 412.173 107.39 412.103 105.738H417.493V105.262C417.493 103.344 416.247 102.042 414.413 102.042C412.481 102.042 411.165 103.498 411.165 105.612C411.165 107.74 412.495 109.168 414.483 109.168ZM414.413 102.868C415.687 102.868 416.527 103.736 416.527 105.038H412.131C412.299 103.708 413.139 102.868 414.413 102.868ZM419.071 109L420.961 106.284L422.865 109H424.013L421.619 105.626L424.027 102.224H422.907L421.003 104.94L419.085 102.224H417.951L420.359 105.612L417.937 109H419.071ZM425.176 111.954H426.142V107.698C426.618 108.678 427.528 109.168 428.676 109.168C430.678 109.168 431.812 107.628 431.812 105.584C431.812 103.54 430.636 102.042 428.676 102.042C427.542 102.042 426.59 102.546 426.114 103.596L426.016 102.224H425.176V111.954ZM426.156 105.612C426.156 104.044 427.024 102.924 428.508 102.924C429.978 102.924 430.832 104.044 430.832 105.612C430.832 107.166 429.978 108.3 428.508 108.3C427.024 108.3 426.156 107.166 426.156 105.612ZM436.194 109.168C437.79 109.168 438.84 108.398 439.204 106.97H438.28C438.028 107.866 437.314 108.342 436.208 108.342C434.752 108.342 433.884 107.39 433.814 105.738H439.204V105.262C439.204 103.344 437.958 102.042 436.124 102.042C434.192 102.042 432.876 103.498 432.876 105.612C432.876 107.74 434.206 109.168 436.194 109.168ZM436.124 102.868C437.398 102.868 438.238 103.736 438.238 105.038H433.842C434.01 103.708 434.85 102.868 436.124 102.868ZM444.291 102.14C444.053 102.084 443.871 102.07 443.661 102.07C442.709 102.07 441.995 102.546 441.729 103.274L441.659 102.224H440.749V109H441.715V105.136C441.715 103.848 442.513 103.008 443.759 103.008H444.291V102.14ZM447.402 109V103.036H448.76V102.224H447.402V100.082H446.45V102.224H445.092V103.036H446.45V109H447.402ZM449.444 107.096C449.444 108.356 450.396 109.168 451.922 109.168C453.462 109.168 454.498 108.37 454.498 107.152C454.498 106.172 453.966 105.626 452.79 105.332L451.628 105.038C450.886 104.856 450.522 104.492 450.522 103.974C450.522 103.246 451.054 102.84 452.006 102.84C452.916 102.84 453.462 103.302 453.49 104.086H454.428C454.386 102.826 453.462 102.042 452.034 102.042C450.578 102.042 449.584 102.798 449.584 103.988C449.584 104.912 450.158 105.528 451.334 105.822L452.496 106.116C453.294 106.312 453.574 106.634 453.574 107.194C453.574 107.922 452.958 108.37 451.908 108.37C450.956 108.37 450.368 107.88 450.368 107.096H449.444ZM112.893 126.224V127.036H113.929V133H114.895V127.036H116.491V126.224H114.895V124.908C114.895 124.11 115.119 123.676 115.973 123.676H116.547V122.85C116.323 122.808 116.043 122.794 115.805 122.794C114.769 122.794 113.929 123.382 113.929 124.908V126.224H112.893ZM120.442 133.168C122.038 133.168 123.088 132.398 123.452 130.97H122.528C122.276 131.866 121.562 132.342 120.456 132.342C119 132.342 118.132 131.39 118.062 129.738H123.452V129.262C123.452 127.344 122.206 126.042 120.372 126.042C118.44 126.042 117.124 127.498 117.124 129.612C117.124 131.74 118.454 133.168 120.442 133.168ZM120.372 126.868C121.646 126.868 122.486 127.736 122.486 129.038H118.09C118.258 127.708 119.098 126.868 120.372 126.868ZM127.839 133.168C129.435 133.168 130.485 132.398 130.849 130.97H129.925C129.673 131.866 128.959 132.342 127.853 132.342C126.397 132.342 125.529 131.39 125.459 129.738H130.849V129.262C130.849 127.344 129.603 126.042 127.769 126.042C125.837 126.042 124.521 127.498 124.521 129.612C124.521 131.74 125.851 133.168 127.839 133.168ZM127.769 126.868C129.043 126.868 129.883 127.736 129.883 129.038H125.487C125.655 127.708 126.495 126.868 127.769 126.868ZM137.83 133V127.036H139.188V126.224H137.83V124.082H136.878V126.224H135.52V127.036H136.878V133H137.83ZM140.922 124.362C141.314 124.362 141.65 124.04 141.65 123.648C141.65 123.256 141.314 122.92 140.922 122.92C140.53 122.92 140.208 123.256 140.208 123.648C140.208 124.04 140.53 124.362 140.922 124.362ZM140.446 133H141.412V126.224H140.446V133ZM144.392 133V128.8C144.392 127.764 145.078 126.924 146.212 126.924C147.234 126.924 147.892 127.596 147.892 128.744V133H148.844V128.814C148.844 127.764 149.516 126.91 150.65 126.91C151.686 126.91 152.33 127.596 152.33 128.758V133H153.268V128.562C153.268 126.994 152.302 126.042 150.832 126.042C149.74 126.042 148.914 126.602 148.606 127.484C148.284 126.602 147.486 126.042 146.422 126.042C145.47 126.042 144.714 126.476 144.378 127.19L144.266 126.224H143.426V133H144.392ZM158.053 133.168C159.649 133.168 160.699 132.398 161.063 130.97H160.139C159.887 131.866 159.173 132.342 158.067 132.342C156.611 132.342 155.743 131.39 155.673 129.738H161.063V129.262C161.063 127.344 159.817 126.042 157.983 126.042C156.051 126.042 154.735 127.498 154.735 129.612C154.735 131.74 156.065 133.168 158.053 133.168ZM157.983 126.868C159.257 126.868 160.097 127.736 160.097 129.038H155.701C155.869 127.708 156.709 126.868 157.983 126.868ZM167.919 133H168.885L170.285 128.744C170.467 128.184 170.579 127.778 170.677 127.414C170.761 127.82 170.873 128.24 171.041 128.744L172.441 133H173.379L175.675 126.224H174.667L173.323 130.312C173.085 131.04 173.057 131.208 172.917 131.768C172.791 131.264 172.623 130.676 172.497 130.312L171.167 126.224H170.173L168.829 130.312C168.759 130.536 168.535 131.222 168.423 131.768C168.283 131.222 168.157 130.76 168.003 130.312L166.673 126.224H165.679L167.919 133ZM177.357 124.362C177.749 124.362 178.085 124.04 178.085 123.648C178.085 123.256 177.749 122.92 177.357 122.92C176.965 122.92 176.643 123.256 176.643 123.648C176.643 124.04 176.965 124.362 177.357 124.362ZM176.881 133H177.847V126.224H176.881V133ZM181.416 133V127.036H182.774V126.224H181.416V124.082H180.464V126.224H179.106V127.036H180.464V133H181.416ZM184.998 132.986V129.304C184.998 128.002 185.754 126.924 187.21 126.924C188.26 126.924 189.002 127.484 189.002 129.066V133H189.968V128.856C189.968 127.148 189.17 126.042 187.392 126.042C186.258 126.042 185.432 126.588 184.998 127.4V122.794H184.032V132.986H184.998ZM198.618 133.168C200.214 133.168 201.264 132.398 201.628 130.97H200.704C200.452 131.866 199.738 132.342 198.632 132.342C197.176 132.342 196.308 131.39 196.238 129.738H201.628V129.262C201.628 127.344 200.382 126.042 198.548 126.042C196.616 126.042 195.3 127.498 195.3 129.612C195.3 131.74 196.63 133.168 198.618 133.168ZM198.548 126.868C199.822 126.868 200.662 127.736 200.662 129.038H196.266C196.434 127.708 197.274 126.868 198.548 126.868ZM203.206 133L205.096 130.284L207 133H208.148L205.754 129.626L208.162 126.224H207.042L205.138 128.94L203.22 126.224H202.086L204.494 129.612L202.072 133H203.206ZM209.311 135.954H210.277V131.698C210.753 132.678 211.663 133.168 212.811 133.168C214.813 133.168 215.947 131.628 215.947 129.584C215.947 127.54 214.771 126.042 212.811 126.042C211.677 126.042 210.725 126.546 210.249 127.596L210.151 126.224H209.311V135.954ZM210.291 129.612C210.291 128.044 211.159 126.924 212.643 126.924C214.113 126.924 214.967 128.044 214.967 129.612C214.967 131.166 214.113 132.3 212.643 132.3C211.159 132.3 210.291 131.166 210.291 129.612ZM220.329 133.168C221.925 133.168 222.975 132.398 223.339 130.97H222.415C222.163 131.866 221.449 132.342 220.343 132.342C218.887 132.342 218.019 131.39 217.949 129.738H223.339V129.262C223.339 127.344 222.093 126.042 220.259 126.042C218.327 126.042 217.011 127.498 217.011 129.612C217.011 131.74 218.341 133.168 220.329 133.168ZM220.259 126.868C221.533 126.868 222.373 127.736 222.373 129.038H217.977C218.145 127.708 218.985 126.868 220.259 126.868ZM228.425 126.14C228.187 126.084 228.005 126.07 227.795 126.07C226.843 126.07 226.129 126.546 225.863 127.274L225.793 126.224H224.883V133H225.849V129.136C225.849 127.848 226.647 127.008 227.893 127.008H228.425V126.14ZM231.537 133V127.036H232.895V126.224H231.537V124.082H230.585V126.224H229.227V127.036H230.585V133H231.537ZM233.579 131.096C233.579 132.356 234.531 133.168 236.057 133.168C237.597 133.168 238.633 132.37 238.633 131.152C238.633 130.172 238.101 129.626 236.925 129.332L235.763 129.038C235.021 128.856 234.657 128.492 234.657 127.974C234.657 127.246 235.189 126.84 236.141 126.84C237.051 126.84 237.597 127.302 237.625 128.086H238.563C238.521 126.826 237.597 126.042 236.169 126.042C234.713 126.042 233.719 126.798 233.719 127.988C233.719 128.912 234.293 129.528 235.469 129.822L236.631 130.116C237.429 130.312 237.709 130.634 237.709 131.194C237.709 131.922 237.093 132.37 236.043 132.37C235.091 132.37 234.503 131.88 234.503 131.096H233.579ZM246.052 133.168C247.2 133.168 248.124 132.664 248.544 131.81L248.67 133H249.482V128.618C249.482 126.826 248.334 126.042 246.766 126.042C245.1 126.042 243.98 126.924 243.98 128.296H244.862C244.862 127.386 245.562 126.854 246.738 126.854C247.732 126.854 248.53 127.274 248.53 128.604V128.828L246.29 129.01C244.708 129.136 243.756 129.92 243.756 131.166C243.756 132.356 244.61 133.168 246.052 133.168ZM246.276 132.384C245.352 132.384 244.736 131.964 244.736 131.138C244.736 130.382 245.254 129.822 246.528 129.71L248.53 129.556V129.92C248.53 131.39 247.704 132.384 246.276 132.384ZM250.846 131.096C250.846 132.356 251.798 133.168 253.324 133.168C254.864 133.168 255.9 132.37 255.9 131.152C255.9 130.172 255.368 129.626 254.192 129.332L253.03 129.038C252.288 128.856 251.924 128.492 251.924 127.974C251.924 127.246 252.456 126.84 253.408 126.84C254.318 126.84 254.864 127.302 254.892 128.086H255.83C255.788 126.826 254.864 126.042 253.436 126.042C251.98 126.042 250.986 126.798 250.986 127.988C250.986 128.912 251.56 129.528 252.736 129.822L253.898 130.116C254.696 130.312 254.976 130.634 254.976 131.194C254.976 131.922 254.36 132.37 253.31 132.37C252.358 132.37 251.77 131.88 251.77 131.096H250.846ZM258.457 132.986V129.304C258.457 128.002 259.213 126.924 260.669 126.924C261.719 126.924 262.461 127.484 262.461 129.066V133H263.427V128.856C263.427 127.148 262.629 126.042 260.851 126.042C259.717 126.042 258.891 126.588 258.457 127.4V122.794H257.491V132.986H258.457ZM267.298 133.168C268.446 133.168 269.37 132.664 269.79 131.81L269.916 133H270.728V128.618C270.728 126.826 269.58 126.042 268.012 126.042C266.346 126.042 265.226 126.924 265.226 128.296H266.108C266.108 127.386 266.808 126.854 267.984 126.854C268.978 126.854 269.776 127.274 269.776 128.604V128.828L267.536 129.01C265.954 129.136 265.002 129.92 265.002 131.166C265.002 132.356 265.856 133.168 267.298 133.168ZM267.522 132.384C266.598 132.384 265.982 131.964 265.982 131.138C265.982 130.382 266.5 129.822 267.774 129.71L269.776 129.556V129.92C269.776 131.39 268.95 132.384 267.522 132.384ZM272.093 131.096C272.093 132.356 273.045 133.168 274.571 133.168C276.111 133.168 277.147 132.37 277.147 131.152C277.147 130.172 276.615 129.626 275.439 129.332L274.277 129.038C273.535 128.856 273.171 128.492 273.171 127.974C273.171 127.246 273.703 126.84 274.655 126.84C275.565 126.84 276.111 127.302 276.139 128.086H277.077C277.035 126.826 276.111 126.042 274.683 126.042C273.227 126.042 272.233 126.798 272.233 127.988C272.233 128.912 272.807 129.528 273.983 129.822L275.145 130.116C275.943 130.312 276.223 130.634 276.223 131.194C276.223 131.922 275.607 132.37 274.557 132.37C273.605 132.37 273.017 131.88 273.017 131.096H272.093ZM288.057 133V127.036H289.415V126.224H288.057V124.082H287.105V126.224H285.747V127.036H287.105V133H288.057ZM291.148 124.362C291.54 124.362 291.876 124.04 291.876 123.648C291.876 123.256 291.54 122.92 291.148 122.92C290.756 122.92 290.434 123.256 290.434 123.648C290.434 124.04 290.756 124.362 291.148 124.362ZM290.672 133H291.638V126.224H290.672V133ZM294.619 133V128.8C294.619 127.764 295.305 126.924 296.439 126.924C297.461 126.924 298.119 127.596 298.119 128.744V133H299.071V128.814C299.071 127.764 299.743 126.91 300.877 126.91C301.913 126.91 302.557 127.596 302.557 128.758V133H303.495V128.562C303.495 126.994 302.529 126.042 301.059 126.042C299.967 126.042 299.141 126.602 298.833 127.484C298.511 126.602 297.713 126.042 296.649 126.042C295.697 126.042 294.941 126.476 294.605 127.19L294.493 126.224H293.653V133H294.619ZM308.28 133.168C309.876 133.168 310.926 132.398 311.29 130.97H310.366C310.114 131.866 309.4 132.342 308.294 132.342C306.838 132.342 305.97 131.39 305.9 129.738H311.29V129.262C311.29 127.344 310.044 126.042 308.21 126.042C306.278 126.042 304.962 127.498 304.962 129.612C304.962 131.74 306.292 133.168 308.28 133.168ZM308.21 126.868C309.484 126.868 310.324 127.736 310.324 129.038H305.928C306.096 127.708 306.936 126.868 308.21 126.868ZM318.145 133H319.111L320.511 128.744C320.693 128.184 320.805 127.778 320.903 127.414C320.987 127.82 321.099 128.24 321.267 128.744L322.667 133H323.605L325.901 126.224H324.893L323.549 130.312C323.311 131.04 323.283 131.208 323.143 131.768C323.017 131.264 322.849 130.676 322.723 130.312L321.393 126.224H320.399L319.055 130.312C318.985 130.536 318.761 131.222 318.649 131.768C318.509 131.222 318.383 130.76 318.229 130.312L316.899 126.224H315.905L318.145 133ZM327.584 124.362C327.976 124.362 328.312 124.04 328.312 123.648C328.312 123.256 327.976 122.92 327.584 122.92C327.192 122.92 326.87 123.256 326.87 123.648C326.87 124.04 327.192 124.362 327.584 124.362ZM327.108 133H328.074V126.224H327.108V133ZM331.642 133V127.036H333V126.224H331.642V124.082H330.69V126.224H329.332V127.036H330.69V133H331.642ZM335.224 132.986V129.304C335.224 128.002 335.98 126.924 337.436 126.924C338.486 126.924 339.228 127.484 339.228 129.066V133H340.194V128.856C340.194 127.148 339.396 126.042 337.618 126.042C336.484 126.042 335.658 126.588 335.224 127.4V122.794H334.258V132.986H335.224ZM348.845 133.168C350.441 133.168 351.491 132.398 351.855 130.97H350.931C350.679 131.866 349.965 132.342 348.859 132.342C347.403 132.342 346.535 131.39 346.465 129.738H351.855V129.262C351.855 127.344 350.609 126.042 348.775 126.042C346.843 126.042 345.527 127.498 345.527 129.612C345.527 131.74 346.857 133.168 348.845 133.168ZM348.775 126.868C350.049 126.868 350.889 127.736 350.889 129.038H346.493C346.661 127.708 347.501 126.868 348.775 126.868ZM353.433 133L355.323 130.284L357.227 133H358.375L355.981 129.626L358.389 126.224H357.269L355.365 128.94L353.447 126.224H352.313L354.721 129.612L352.299 133H353.433ZM359.538 135.954H360.504V131.698C360.98 132.678 361.89 133.168 363.038 133.168C365.04 133.168 366.174 131.628 366.174 129.584C366.174 127.54 364.998 126.042 363.038 126.042C361.904 126.042 360.952 126.546 360.476 127.596L360.378 126.224H359.538V135.954ZM360.518 129.612C360.518 128.044 361.386 126.924 362.87 126.924C364.34 126.924 365.194 128.044 365.194 129.612C365.194 131.166 364.34 132.3 362.87 132.3C361.386 132.3 360.518 131.166 360.518 129.612ZM370.555 133.168C372.151 133.168 373.201 132.398 373.565 130.97H372.641C372.389 131.866 371.675 132.342 370.569 132.342C369.113 132.342 368.245 131.39 368.175 129.738H373.565V129.262C373.565 127.344 372.319 126.042 370.485 126.042C368.553 126.042 367.237 127.498 367.237 129.612C367.237 131.74 368.567 133.168 370.555 133.168ZM370.485 126.868C371.759 126.868 372.599 127.736 372.599 129.038H368.203C368.371 127.708 369.211 126.868 370.485 126.868ZM378.652 126.14C378.414 126.084 378.232 126.07 378.022 126.07C377.07 126.07 376.356 126.546 376.09 127.274L376.02 126.224H375.11V133H376.076V129.136C376.076 127.848 376.874 127.008 378.12 127.008H378.652V126.14ZM381.764 133V127.036H383.122V126.224H381.764V124.082H380.812V126.224H379.454V127.036H380.812V133H381.764ZM383.805 131.096C383.805 132.356 384.757 133.168 386.283 133.168C387.823 133.168 388.859 132.37 388.859 131.152C388.859 130.172 388.327 129.626 387.151 129.332L385.989 129.038C385.247 128.856 384.883 128.492 384.883 127.974C384.883 127.246 385.415 126.84 386.367 126.84C387.277 126.84 387.823 127.302 387.851 128.086H388.789C388.747 126.826 387.823 126.042 386.395 126.042C384.939 126.042 383.945 126.798 383.945 127.988C383.945 128.912 384.519 129.528 385.695 129.822L386.857 130.116C387.655 130.312 387.935 130.634 387.935 131.194C387.935 131.922 387.319 132.37 386.269 132.37C385.317 132.37 384.729 131.88 384.729 131.096H383.805ZM393.577 126.224V127.036H394.613V133H395.579V127.036H397.175V126.224H395.579V124.908C395.579 124.11 395.803 123.676 396.657 123.676H397.231V122.85C397.007 122.808 396.727 122.794 396.489 122.794C395.453 122.794 394.613 123.382 394.613 124.908V126.224H393.577ZM401.126 133.168C402.722 133.168 403.772 132.398 404.136 130.97H403.212C402.96 131.866 402.246 132.342 401.14 132.342C399.684 132.342 398.816 131.39 398.746 129.738H404.136V129.262C404.136 127.344 402.89 126.042 401.056 126.042C399.124 126.042 397.808 127.498 397.808 129.612C397.808 131.74 399.138 133.168 401.126 133.168ZM401.056 126.868C402.33 126.868 403.17 127.736 403.17 129.038H398.774C398.942 127.708 399.782 126.868 401.056 126.868ZM408.522 133.168C410.118 133.168 411.168 132.398 411.532 130.97H410.608C410.356 131.866 409.642 132.342 408.536 132.342C407.08 132.342 406.212 131.39 406.142 129.738H411.532V129.262C411.532 127.344 410.286 126.042 408.452 126.042C406.52 126.042 405.204 127.498 405.204 129.612C405.204 131.74 406.534 133.168 408.522 133.168ZM408.452 126.868C409.726 126.868 410.566 127.736 410.566 129.038H406.17C406.338 127.708 407.178 126.868 408.452 126.868ZM418.514 133V127.036H419.872V126.224H418.514V124.082H417.562V126.224H416.204V127.036H417.562V133H418.514ZM421.605 124.362C421.997 124.362 422.333 124.04 422.333 123.648C422.333 123.256 421.997 122.92 421.605 122.92C421.213 122.92 420.891 123.256 420.891 123.648C420.891 124.04 421.213 124.362 421.605 124.362ZM421.129 133H422.095V126.224H421.129V133ZM425.076 133V128.8C425.076 127.764 425.762 126.924 426.896 126.924C427.918 126.924 428.576 127.596 428.576 128.744V133H429.528V128.814C429.528 127.764 430.2 126.91 431.334 126.91C432.37 126.91 433.014 127.596 433.014 128.758V133H433.952V128.562C433.952 126.994 432.986 126.042 431.516 126.042C430.424 126.042 429.598 126.602 429.29 127.484C428.968 126.602 428.17 126.042 427.106 126.042C426.154 126.042 425.398 126.476 425.062 127.19L424.95 126.224H424.11V133H425.076ZM438.737 133.168C440.333 133.168 441.383 132.398 441.747 130.97H440.823C440.571 131.866 439.857 132.342 438.751 132.342C437.295 132.342 436.427 131.39 436.357 129.738H441.747V129.262C441.747 127.344 440.501 126.042 438.667 126.042C436.735 126.042 435.419 127.498 435.419 129.612C435.419 131.74 436.749 133.168 438.737 133.168ZM438.667 126.868C439.941 126.868 440.781 127.736 440.781 129.038H436.385C436.553 127.708 437.393 126.868 438.667 126.868ZM448.602 133H449.568L450.968 128.744C451.15 128.184 451.262 127.778 451.36 127.414C451.444 127.82 451.556 128.24 451.724 128.744L453.124 133H454.062L456.358 126.224H455.35L454.006 130.312C453.768 131.04 453.74 131.208 453.6 131.768C453.474 131.264 453.306 130.676 453.18 130.312L451.85 126.224H450.856L449.512 130.312C449.442 130.536 449.218 131.222 449.106 131.768C448.966 131.222 448.84 130.76 448.686 130.312L447.356 126.224H446.362L448.602 133ZM458.041 124.362C458.433 124.362 458.769 124.04 458.769 123.648C458.769 123.256 458.433 122.92 458.041 122.92C457.649 122.92 457.327 123.256 457.327 123.648C457.327 124.04 457.649 124.362 458.041 124.362ZM457.565 133H458.531V126.224H457.565V133ZM462.099 133V127.036H463.457V126.224H462.099V124.082H461.147V126.224H459.789V127.036H461.147V133H462.099ZM465.681 132.986V129.304C465.681 128.002 466.437 126.924 467.893 126.924C468.943 126.924 469.685 127.484 469.685 129.066V133H470.651V128.856C470.651 127.148 469.853 126.042 468.075 126.042C466.941 126.042 466.115 126.588 465.681 127.4V122.794H464.715V132.986H465.681ZM116.491 157.168C118.087 157.168 119.137 156.398 119.501 154.97H118.577C118.325 155.866 117.611 156.342 116.505 156.342C115.049 156.342 114.181 155.39 114.111 153.738H119.501V153.262C119.501 151.344 118.255 150.042 116.421 150.042C114.489 150.042 113.173 151.498 113.173 153.612C113.173 155.74 114.503 157.168 116.491 157.168ZM116.421 150.868C117.695 150.868 118.535 151.736 118.535 153.038H114.139C114.307 151.708 115.147 150.868 116.421 150.868ZM121.079 157L122.969 154.284L124.873 157H126.021L123.627 153.626L126.035 150.224H124.915L123.011 152.94L121.093 150.224H119.959L122.367 153.612L119.945 157H121.079ZM127.184 159.954H128.15V155.698C128.626 156.678 129.536 157.168 130.684 157.168C132.686 157.168 133.82 155.628 133.82 153.584C133.82 151.54 132.644 150.042 130.684 150.042C129.55 150.042 128.598 150.546 128.122 151.596L128.024 150.224H127.184V159.954ZM128.164 153.612C128.164 152.044 129.032 150.924 130.516 150.924C131.986 150.924 132.84 152.044 132.84 153.612C132.84 155.166 131.986 156.3 130.516 156.3C129.032 156.3 128.164 155.166 128.164 153.612ZM138.202 157.168C139.798 157.168 140.848 156.398 141.212 154.97H140.288C140.036 155.866 139.322 156.342 138.216 156.342C136.76 156.342 135.892 155.39 135.822 153.738H141.212V153.262C141.212 151.344 139.966 150.042 138.132 150.042C136.2 150.042 134.884 151.498 134.884 153.612C134.884 155.74 136.214 157.168 138.202 157.168ZM138.132 150.868C139.406 150.868 140.246 151.736 140.246 153.038H135.85C136.018 151.708 136.858 150.868 138.132 150.868ZM146.298 150.14C146.06 150.084 145.878 150.07 145.668 150.07C144.716 150.07 144.002 150.546 143.736 151.274L143.666 150.224H142.756V157H143.722V153.136C143.722 151.848 144.52 151.008 145.766 151.008H146.298V150.14ZM149.41 157V151.036H150.768V150.224H149.41V148.082H148.458V150.224H147.1V151.036H148.458V157H149.41ZM151.452 155.096C151.452 156.356 152.404 157.168 153.93 157.168C155.47 157.168 156.506 156.37 156.506 155.152C156.506 154.172 155.974 153.626 154.798 153.332L153.636 153.038C152.894 152.856 152.53 152.492 152.53 151.974C152.53 151.246 153.062 150.84 154.014 150.84C154.924 150.84 155.47 151.302 155.498 152.086H156.436C156.394 150.826 155.47 150.042 154.042 150.042C152.586 150.042 151.592 150.798 151.592 151.988C151.592 152.912 152.166 153.528 153.342 153.822L154.504 154.116C155.302 154.312 155.582 154.634 155.582 155.194C155.582 155.922 154.966 156.37 153.916 156.37C152.964 156.37 152.376 155.88 152.376 155.096H151.452ZM163.407 157H164.373L165.773 152.744C165.955 152.184 166.067 151.778 166.165 151.414C166.249 151.82 166.361 152.24 166.529 152.744L167.929 157H168.867L171.163 150.224H170.155L168.811 154.312C168.573 155.04 168.545 155.208 168.405 155.768C168.279 155.264 168.111 154.676 167.985 154.312L166.655 150.224H165.661L164.317 154.312C164.247 154.536 164.023 155.222 163.911 155.768C163.771 155.222 163.645 154.76 163.491 154.312L162.161 150.224H161.167L163.407 157ZM172.846 148.362C173.238 148.362 173.574 148.04 173.574 147.648C173.574 147.256 173.238 146.92 172.846 146.92C172.454 146.92 172.132 147.256 172.132 147.648C172.132 148.04 172.454 148.362 172.846 148.362ZM172.37 157H173.336V150.224H172.37V157ZM176.904 157V151.036H178.262V150.224H176.904V148.082H175.952V150.224H174.594V151.036H175.952V157H176.904ZM180.486 156.986V153.304C180.486 152.002 181.242 150.924 182.698 150.924C183.748 150.924 184.49 151.484 184.49 153.066V157H185.456V152.856C185.456 151.148 184.658 150.042 182.88 150.042C181.746 150.042 180.92 150.588 180.486 151.4V146.794H179.52V156.986H180.486ZM194.106 157.168C195.702 157.168 196.752 156.398 197.116 154.97H196.192C195.94 155.866 195.226 156.342 194.12 156.342C192.664 156.342 191.796 155.39 191.726 153.738H197.116V153.262C197.116 151.344 195.87 150.042 194.036 150.042C192.104 150.042 190.788 151.498 190.788 153.612C190.788 155.74 192.118 157.168 194.106 157.168ZM194.036 150.868C195.31 150.868 196.15 151.736 196.15 153.038H191.754C191.922 151.708 192.762 150.868 194.036 150.868ZM198.694 157L200.584 154.284L202.488 157H203.636L201.242 153.626L203.65 150.224H202.53L200.626 152.94L198.708 150.224H197.574L199.982 153.612L197.56 157H198.694ZM204.799 159.954H205.765V155.698C206.241 156.678 207.151 157.168 208.299 157.168C210.301 157.168 211.435 155.628 211.435 153.584C211.435 151.54 210.259 150.042 208.299 150.042C207.165 150.042 206.213 150.546 205.737 151.596L205.639 150.224H204.799V159.954ZM205.779 153.612C205.779 152.044 206.647 150.924 208.131 150.924C209.601 150.924 210.455 152.044 210.455 153.612C210.455 155.166 209.601 156.3 208.131 156.3C206.647 156.3 205.779 155.166 205.779 153.612ZM215.817 157.168C217.413 157.168 218.463 156.398 218.827 154.97H217.903C217.651 155.866 216.937 156.342 215.831 156.342C214.375 156.342 213.507 155.39 213.437 153.738H218.827V153.262C218.827 151.344 217.581 150.042 215.747 150.042C213.815 150.042 212.499 151.498 212.499 153.612C212.499 155.74 213.829 157.168 215.817 157.168ZM215.747 150.868C217.021 150.868 217.861 151.736 217.861 153.038H213.465C213.633 151.708 214.473 150.868 215.747 150.868ZM223.914 150.14C223.676 150.084 223.494 150.07 223.284 150.07C222.332 150.07 221.618 150.546 221.352 151.274L221.282 150.224H220.372V157H221.338V153.136C221.338 151.848 222.136 151.008 223.382 151.008H223.914V150.14ZM227.025 157V151.036H228.383V150.224H227.025V148.082H226.073V150.224H224.715V151.036H226.073V157H227.025ZM229.067 155.096C229.067 156.356 230.019 157.168 231.545 157.168C233.085 157.168 234.121 156.37 234.121 155.152C234.121 154.172 233.589 153.626 232.413 153.332L231.251 153.038C230.509 152.856 230.145 152.492 230.145 151.974C230.145 151.246 230.677 150.84 231.629 150.84C232.539 150.84 233.085 151.302 233.113 152.086H234.051C234.009 150.826 233.085 150.042 231.657 150.042C230.201 150.042 229.207 150.798 229.207 151.988C229.207 152.912 229.781 153.528 230.957 153.822L232.119 154.116C232.917 154.312 233.197 154.634 233.197 155.194C233.197 155.922 232.581 156.37 231.531 156.37C230.579 156.37 229.991 155.88 229.991 155.096H229.067ZM238.838 150.224V151.036H239.874V157H240.84V151.036H242.436V150.224H240.84V148.908C240.84 148.11 241.064 147.676 241.918 147.676H242.492V146.85C242.268 146.808 241.988 146.794 241.75 146.794C240.714 146.794 239.874 147.382 239.874 148.908V150.224H238.838ZM246.387 157.168C247.983 157.168 249.033 156.398 249.397 154.97H248.473C248.221 155.866 247.507 156.342 246.401 156.342C244.945 156.342 244.077 155.39 244.007 153.738H249.397V153.262C249.397 151.344 248.151 150.042 246.317 150.042C244.385 150.042 243.069 151.498 243.069 153.612C243.069 155.74 244.399 157.168 246.387 157.168ZM246.317 150.868C247.591 150.868 248.431 151.736 248.431 153.038H244.035C244.203 151.708 245.043 150.868 246.317 150.868ZM253.784 157.168C255.38 157.168 256.43 156.398 256.794 154.97H255.87C255.618 155.866 254.904 156.342 253.798 156.342C252.342 156.342 251.474 155.39 251.404 153.738H256.794V153.262C256.794 151.344 255.548 150.042 253.714 150.042C251.782 150.042 250.466 151.498 250.466 153.612C250.466 155.74 251.796 157.168 253.784 157.168ZM253.714 150.868C254.988 150.868 255.828 151.736 255.828 153.038H251.432C251.6 151.708 252.44 150.868 253.714 150.868ZM263.775 157V151.036H265.133V150.224H263.775V148.082H262.823V150.224H261.465V151.036H262.823V157H263.775ZM266.867 148.362C267.259 148.362 267.595 148.04 267.595 147.648C267.595 147.256 267.259 146.92 266.867 146.92C266.475 146.92 266.153 147.256 266.153 147.648C266.153 148.04 266.475 148.362 266.867 148.362ZM266.391 157H267.357V150.224H266.391V157ZM270.338 157V152.8C270.338 151.764 271.024 150.924 272.158 150.924C273.18 150.924 273.838 151.596 273.838 152.744V157H274.79V152.814C274.79 151.764 275.462 150.91 276.596 150.91C277.632 150.91 278.276 151.596 278.276 152.758V157H279.214V152.562C279.214 150.994 278.248 150.042 276.778 150.042C275.686 150.042 274.86 150.602 274.552 151.484C274.23 150.602 273.432 150.042 272.368 150.042C271.416 150.042 270.66 150.476 270.324 151.19L270.212 150.224H269.372V157H270.338ZM283.999 157.168C285.595 157.168 286.645 156.398 287.009 154.97H286.085C285.833 155.866 285.119 156.342 284.013 156.342C282.557 156.342 281.689 155.39 281.619 153.738H287.009V153.262C287.009 151.344 285.763 150.042 283.929 150.042C281.997 150.042 280.681 151.498 280.681 153.612C280.681 155.74 282.011 157.168 283.999 157.168ZM283.929 150.868C285.203 150.868 286.043 151.736 286.043 153.038H281.647C281.815 151.708 282.655 150.868 283.929 150.868ZM293.864 157H294.83L296.23 152.744C296.412 152.184 296.524 151.778 296.622 151.414C296.706 151.82 296.818 152.24 296.986 152.744L298.386 157H299.324L301.62 150.224H300.612L299.268 154.312C299.03 155.04 299.002 155.208 298.862 155.768C298.736 155.264 298.568 154.676 298.442 154.312L297.112 150.224H296.118L294.774 154.312C294.704 154.536 294.48 155.222 294.368 155.768C294.228 155.222 294.102 154.76 293.948 154.312L292.618 150.224H291.624L293.864 157ZM303.303 148.362C303.695 148.362 304.031 148.04 304.031 147.648C304.031 147.256 303.695 146.92 303.303 146.92C302.911 146.92 302.589 147.256 302.589 147.648C302.589 148.04 302.911 148.362 303.303 148.362ZM302.827 157H303.793V150.224H302.827V157ZM307.361 157V151.036H308.719V150.224H307.361V148.082H306.409V150.224H305.051V151.036H306.409V157H307.361ZM310.943 156.986V153.304C310.943 152.002 311.699 150.924 313.155 150.924C314.205 150.924 314.947 151.484 314.947 153.066V157H315.913V152.856C315.913 151.148 315.115 150.042 313.337 150.042C312.203 150.042 311.377 150.588 310.943 151.4V146.794H309.977V156.986H310.943ZM324.563 157.168C326.159 157.168 327.209 156.398 327.573 154.97H326.649C326.397 155.866 325.683 156.342 324.577 156.342C323.121 156.342 322.253 155.39 322.183 153.738H327.573V153.262C327.573 151.344 326.327 150.042 324.493 150.042C322.561 150.042 321.245 151.498 321.245 153.612C321.245 155.74 322.575 157.168 324.563 157.168ZM324.493 150.868C325.767 150.868 326.607 151.736 326.607 153.038H322.211C322.379 151.708 323.219 150.868 324.493 150.868ZM329.151 157L331.041 154.284L332.945 157H334.093L331.699 153.626L334.107 150.224H332.987L331.083 152.94L329.165 150.224H328.031L330.439 153.612L328.017 157H329.151ZM335.256 159.954H336.222V155.698C336.698 156.678 337.608 157.168 338.756 157.168C340.758 157.168 341.892 155.628 341.892 153.584C341.892 151.54 340.716 150.042 338.756 150.042C337.622 150.042 336.67 150.546 336.194 151.596L336.096 150.224H335.256V159.954ZM336.236 153.612C336.236 152.044 337.104 150.924 338.588 150.924C340.058 150.924 340.912 152.044 340.912 153.612C340.912 155.166 340.058 156.3 338.588 156.3C337.104 156.3 336.236 155.166 336.236 153.612ZM346.274 157.168C347.87 157.168 348.92 156.398 349.284 154.97H348.36C348.108 155.866 347.394 156.342 346.288 156.342C344.832 156.342 343.964 155.39 343.894 153.738H349.284V153.262C349.284 151.344 348.038 150.042 346.204 150.042C344.272 150.042 342.956 151.498 342.956 153.612C342.956 155.74 344.286 157.168 346.274 157.168ZM346.204 150.868C347.478 150.868 348.318 151.736 348.318 153.038H343.922C344.09 151.708 344.93 150.868 346.204 150.868ZM354.371 150.14C354.133 150.084 353.951 150.07 353.741 150.07C352.789 150.07 352.075 150.546 351.809 151.274L351.739 150.224H350.829V157H351.795V153.136C351.795 151.848 352.593 151.008 353.839 151.008H354.371V150.14ZM357.482 157V151.036H358.84V150.224H357.482V148.082H356.53V150.224H355.172V151.036H356.53V157H357.482ZM359.524 155.096C359.524 156.356 360.476 157.168 362.002 157.168C363.542 157.168 364.578 156.37 364.578 155.152C364.578 154.172 364.046 153.626 362.87 153.332L361.708 153.038C360.966 152.856 360.602 152.492 360.602 151.974C360.602 151.246 361.134 150.84 362.086 150.84C362.996 150.84 363.542 151.302 363.57 152.086H364.508C364.466 150.826 363.542 150.042 362.114 150.042C360.658 150.042 359.664 150.798 359.664 151.988C359.664 152.912 360.238 153.528 361.414 153.822L362.576 154.116C363.374 154.312 363.654 154.634 363.654 155.194C363.654 155.922 363.038 156.37 361.988 156.37C361.036 156.37 360.448 155.88 360.448 155.096H359.524ZM371.997 157.168C373.145 157.168 374.069 156.664 374.489 155.81L374.615 157H375.427V152.618C375.427 150.826 374.279 150.042 372.711 150.042C371.045 150.042 369.925 150.924 369.925 152.296H370.807C370.807 151.386 371.507 150.854 372.683 150.854C373.677 150.854 374.475 151.274 374.475 152.604V152.828L372.235 153.01C370.653 153.136 369.701 153.92 369.701 155.166C369.701 156.356 370.555 157.168 371.997 157.168ZM372.221 156.384C371.297 156.384 370.681 155.964 370.681 155.138C370.681 154.382 371.199 153.822 372.473 153.71L374.475 153.556V153.92C374.475 155.39 373.649 156.384 372.221 156.384ZM376.792 155.096C376.792 156.356 377.744 157.168 379.27 157.168C380.81 157.168 381.846 156.37 381.846 155.152C381.846 154.172 381.314 153.626 380.138 153.332L378.976 153.038C378.234 152.856 377.87 152.492 377.87 151.974C377.87 151.246 378.402 150.84 379.354 150.84C380.264 150.84 380.81 151.302 380.838 152.086H381.776C381.734 150.826 380.81 150.042 379.382 150.042C377.926 150.042 376.932 150.798 376.932 151.988C376.932 152.912 377.506 153.528 378.682 153.822L379.844 154.116C380.642 154.312 380.922 154.634 380.922 155.194C380.922 155.922 380.306 156.37 379.256 156.37C378.304 156.37 377.716 155.88 377.716 155.096H376.792ZM384.402 156.986V153.304C384.402 152.002 385.158 150.924 386.614 150.924C387.664 150.924 388.406 151.484 388.406 153.066V157H389.372V152.856C389.372 151.148 388.574 150.042 386.796 150.042C385.662 150.042 384.836 150.588 384.402 151.4V146.794H383.436V156.986H384.402ZM393.243 157.168C394.391 157.168 395.315 156.664 395.735 155.81L395.861 157H396.673V152.618C396.673 150.826 395.525 150.042 393.957 150.042C392.291 150.042 391.171 150.924 391.171 152.296H392.053C392.053 151.386 392.753 150.854 393.929 150.854C394.923 150.854 395.721 151.274 395.721 152.604V152.828L393.481 153.01C391.899 153.136 390.947 153.92 390.947 155.166C390.947 156.356 391.801 157.168 393.243 157.168ZM393.467 156.384C392.543 156.384 391.927 155.964 391.927 155.138C391.927 154.382 392.445 153.822 393.719 153.71L395.721 153.556V153.92C395.721 155.39 394.895 156.384 393.467 156.384ZM398.038 155.096C398.038 156.356 398.99 157.168 400.516 157.168C402.056 157.168 403.092 156.37 403.092 155.152C403.092 154.172 402.56 153.626 401.384 153.332L400.222 153.038C399.48 152.856 399.116 152.492 399.116 151.974C399.116 151.246 399.648 150.84 400.6 150.84C401.51 150.84 402.056 151.302 402.084 152.086H403.022C402.98 150.826 402.056 150.042 400.628 150.042C399.172 150.042 398.178 150.798 398.178 151.988C398.178 152.912 398.752 153.528 399.928 153.822L401.09 154.116C401.888 154.312 402.168 154.634 402.168 155.194C402.168 155.922 401.552 156.37 400.502 156.37C399.55 156.37 398.962 155.88 398.962 155.096H398.038ZM405.399 157.154C405.875 157.154 406.281 156.762 406.281 156.3C406.281 155.824 405.875 155.418 405.399 155.418C404.923 155.418 404.517 155.824 404.517 156.3C404.517 156.762 404.923 157.154 405.399 157.154ZM417.44 152.59V151.68H413.338V147.9H418.238V146.976H412.33V157H413.338V152.59H417.44ZM422.839 150.14C422.601 150.084 422.419 150.07 422.209 150.07C421.257 150.07 420.543 150.546 420.277 151.274L420.207 150.224H419.297V157H420.263V153.136C420.263 151.848 421.061 151.008 422.307 151.008H422.839V150.14ZM426.706 157.168C428.302 157.168 429.352 156.398 429.716 154.97H428.792C428.54 155.866 427.826 156.342 426.72 156.342C425.264 156.342 424.396 155.39 424.326 153.738H429.716V153.262C429.716 151.344 428.47 150.042 426.636 150.042C424.704 150.042 423.388 151.498 423.388 153.612C423.388 155.74 424.718 157.168 426.706 157.168ZM426.636 150.868C427.91 150.868 428.75 151.736 428.75 153.038H424.354C424.522 151.708 425.362 150.868 426.636 150.868ZM434.102 157.168C435.698 157.168 436.748 156.398 437.112 154.97H436.188C435.936 155.866 435.222 156.342 434.116 156.342C432.66 156.342 431.792 155.39 431.722 153.738H437.112V153.262C437.112 151.344 435.866 150.042 434.032 150.042C432.1 150.042 430.784 151.498 430.784 153.612C430.784 155.74 432.114 157.168 434.102 157.168ZM434.032 150.868C435.306 150.868 436.146 151.736 436.146 153.038H431.75C431.918 151.708 432.758 150.868 434.032 150.868ZM444.094 157V151.036H445.452V150.224H444.094V148.082H443.142V150.224H441.784V151.036H443.142V157H444.094ZM447.186 148.362C447.578 148.362 447.914 148.04 447.914 147.648C447.914 147.256 447.578 146.92 447.186 146.92C446.794 146.92 446.472 147.256 446.472 147.648C446.472 148.04 446.794 148.362 447.186 148.362ZM446.71 157H447.676V150.224H446.71V157ZM450.656 157V152.8C450.656 151.764 451.342 150.924 452.476 150.924C453.498 150.924 454.156 151.596 454.156 152.744V157H455.108V152.814C455.108 151.764 455.78 150.91 456.914 150.91C457.95 150.91 458.594 151.596 458.594 152.758V157H459.532V152.562C459.532 150.994 458.566 150.042 457.096 150.042C456.004 150.042 455.178 150.602 454.87 151.484C454.548 150.602 453.75 150.042 452.686 150.042C451.734 150.042 450.978 150.476 450.642 151.19L450.53 150.224H449.69V157H450.656ZM464.317 157.168C465.913 157.168 466.963 156.398 467.327 154.97H466.403C466.151 155.866 465.437 156.342 464.331 156.342C462.875 156.342 462.007 155.39 461.937 153.738H467.327V153.262C467.327 151.344 466.081 150.042 464.247 150.042C462.315 150.042 460.999 151.498 460.999 153.612C460.999 155.74 462.329 157.168 464.317 157.168ZM464.247 150.868C465.521 150.868 466.361 151.736 466.361 153.038H461.965C462.133 151.708 462.973 150.868 464.247 150.868ZM115.077 181H116.043L117.443 176.744C117.625 176.184 117.737 175.778 117.835 175.414C117.919 175.82 118.031 176.24 118.199 176.744L119.599 181H120.537L122.833 174.224H121.825L120.481 178.312C120.243 179.04 120.215 179.208 120.075 179.768C119.949 179.264 119.781 178.676 119.655 178.312L118.325 174.224H117.331L115.987 178.312C115.917 178.536 115.693 179.222 115.581 179.768C115.441 179.222 115.315 178.76 115.161 178.312L113.831 174.224H112.837L115.077 181ZM124.516 172.362C124.908 172.362 125.244 172.04 125.244 171.648C125.244 171.256 124.908 170.92 124.516 170.92C124.124 170.92 123.802 171.256 123.802 171.648C123.802 172.04 124.124 172.362 124.516 172.362ZM124.04 181H125.006V174.224H124.04V181ZM128.574 181V175.036H129.932V174.224H128.574V172.082H127.622V174.224H126.264V175.036H127.622V181H128.574ZM132.156 180.986V177.304C132.156 176.002 132.912 174.924 134.368 174.924C135.418 174.924 136.16 175.484 136.16 177.066V181H137.126V176.856C137.126 175.148 136.328 174.042 134.55 174.042C133.416 174.042 132.59 174.588 132.156 175.4V170.794H131.19V180.986H132.156ZM145.776 181.168C147.372 181.168 148.422 180.398 148.786 178.97H147.862C147.61 179.866 146.896 180.342 145.79 180.342C144.334 180.342 143.466 179.39 143.396 177.738H148.786V177.262C148.786 175.344 147.54 174.042 145.706 174.042C143.774 174.042 142.458 175.498 142.458 177.612C142.458 179.74 143.788 181.168 145.776 181.168ZM145.706 174.868C146.98 174.868 147.82 175.736 147.82 177.038H143.424C143.592 175.708 144.432 174.868 145.706 174.868ZM150.364 181L152.254 178.284L154.158 181H155.306L152.912 177.626L155.32 174.224H154.2L152.296 176.94L150.378 174.224H149.244L151.652 177.612L149.23 181H150.364ZM156.469 183.954H157.435V179.698C157.911 180.678 158.821 181.168 159.969 181.168C161.971 181.168 163.105 179.628 163.105 177.584C163.105 175.54 161.929 174.042 159.969 174.042C158.835 174.042 157.883 174.546 157.407 175.596L157.309 174.224H156.469V183.954ZM157.449 177.612C157.449 176.044 158.317 174.924 159.801 174.924C161.271 174.924 162.125 176.044 162.125 177.612C162.125 179.166 161.271 180.3 159.801 180.3C158.317 180.3 157.449 179.166 157.449 177.612ZM167.487 181.168C169.083 181.168 170.133 180.398 170.497 178.97H169.573C169.321 179.866 168.607 180.342 167.501 180.342C166.045 180.342 165.177 179.39 165.107 177.738H170.497V177.262C170.497 175.344 169.251 174.042 167.417 174.042C165.485 174.042 164.169 175.498 164.169 177.612C164.169 179.74 165.499 181.168 167.487 181.168ZM167.417 174.868C168.691 174.868 169.531 175.736 169.531 177.038H165.135C165.303 175.708 166.143 174.868 167.417 174.868ZM175.584 174.14C175.346 174.084 175.164 174.07 174.954 174.07C174.002 174.07 173.288 174.546 173.022 175.274L172.952 174.224H172.042V181H173.008V177.136C173.008 175.848 173.806 175.008 175.052 175.008H175.584V174.14ZM178.695 181V175.036H180.053V174.224H178.695V172.082H177.743V174.224H176.385V175.036H177.743V181H178.695ZM180.737 179.096C180.737 180.356 181.689 181.168 183.215 181.168C184.755 181.168 185.791 180.37 185.791 179.152C185.791 178.172 185.259 177.626 184.083 177.332L182.921 177.038C182.179 176.856 181.815 176.492 181.815 175.974C181.815 175.246 182.347 174.84 183.299 174.84C184.209 174.84 184.755 175.302 184.783 176.086H185.721C185.679 174.826 184.755 174.042 183.327 174.042C181.871 174.042 180.877 174.798 180.877 175.988C180.877 176.912 181.451 177.528 182.627 177.822L183.789 178.116C184.587 178.312 184.867 178.634 184.867 179.194C184.867 179.922 184.251 180.37 183.201 180.37C182.249 180.37 181.661 179.88 181.661 179.096H180.737ZM190.508 174.224V175.036H191.544V181H192.51V175.036H194.106V174.224H192.51V172.908C192.51 172.11 192.734 171.676 193.588 171.676H194.162V170.85C193.938 170.808 193.658 170.794 193.42 170.794C192.384 170.794 191.544 171.382 191.544 172.908V174.224H190.508ZM198.057 181.168C199.653 181.168 200.703 180.398 201.067 178.97H200.143C199.891 179.866 199.177 180.342 198.071 180.342C196.615 180.342 195.747 179.39 195.677 177.738H201.067V177.262C201.067 175.344 199.821 174.042 197.987 174.042C196.055 174.042 194.739 175.498 194.739 177.612C194.739 179.74 196.069 181.168 198.057 181.168ZM197.987 174.868C199.261 174.868 200.101 175.736 200.101 177.038H195.705C195.873 175.708 196.713 174.868 197.987 174.868ZM205.454 181.168C207.05 181.168 208.1 180.398 208.464 178.97H207.54C207.288 179.866 206.574 180.342 205.468 180.342C204.012 180.342 203.144 179.39 203.074 177.738H208.464V177.262C208.464 175.344 207.218 174.042 205.384 174.042C203.452 174.042 202.136 175.498 202.136 177.612C202.136 179.74 203.466 181.168 205.454 181.168ZM205.384 174.868C206.658 174.868 207.498 175.736 207.498 177.038H203.102C203.27 175.708 204.11 174.868 205.384 174.868ZM215.445 181V175.036H216.803V174.224H215.445V172.082H214.493V174.224H213.135V175.036H214.493V181H215.445ZM218.537 172.362C218.929 172.362 219.265 172.04 219.265 171.648C219.265 171.256 218.929 170.92 218.537 170.92C218.145 170.92 217.823 171.256 217.823 171.648C217.823 172.04 218.145 172.362 218.537 172.362ZM218.061 181H219.027V174.224H218.061V181ZM222.008 181V176.8C222.008 175.764 222.694 174.924 223.828 174.924C224.85 174.924 225.508 175.596 225.508 176.744V181H226.46V176.814C226.46 175.764 227.132 174.91 228.266 174.91C229.302 174.91 229.946 175.596 229.946 176.758V181H230.884V176.562C230.884 174.994 229.918 174.042 228.448 174.042C227.356 174.042 226.53 174.602 226.222 175.484C225.9 174.602 225.102 174.042 224.038 174.042C223.086 174.042 222.33 174.476 221.994 175.19L221.882 174.224H221.042V181H222.008ZM235.669 181.168C237.265 181.168 238.315 180.398 238.679 178.97H237.755C237.503 179.866 236.789 180.342 235.683 180.342C234.227 180.342 233.359 179.39 233.289 177.738H238.679V177.262C238.679 175.344 237.433 174.042 235.599 174.042C233.667 174.042 232.351 175.498 232.351 177.612C232.351 179.74 233.681 181.168 235.669 181.168ZM235.599 174.868C236.873 174.868 237.713 175.736 237.713 177.038H233.317C233.485 175.708 234.325 174.868 235.599 174.868ZM245.534 181H246.5L247.9 176.744C248.082 176.184 248.194 175.778 248.292 175.414C248.376 175.82 248.488 176.24 248.656 176.744L250.056 181H250.994L253.29 174.224H252.282L250.938 178.312C250.7 179.04 250.672 179.208 250.532 179.768C250.406 179.264 250.238 178.676 250.112 178.312L248.782 174.224H247.788L246.444 178.312C246.374 178.536 246.15 179.222 246.038 179.768C245.898 179.222 245.772 178.76 245.618 178.312L244.288 174.224H243.294L245.534 181ZM254.973 172.362C255.365 172.362 255.701 172.04 255.701 171.648C255.701 171.256 255.365 170.92 254.973 170.92C254.581 170.92 254.259 171.256 254.259 171.648C254.259 172.04 254.581 172.362 254.973 172.362ZM254.497 181H255.463V174.224H254.497V181ZM259.031 181V175.036H260.389V174.224H259.031V172.082H258.079V174.224H256.721V175.036H258.079V181H259.031Z" fill="#2E3B41"/>
<path d="M469.599 198.857C469.599 200.581 470.729 201.517 472.006 201.517C472.644 201.517 473.037 201.369 473.332 201.172C473.332 202.601 472.055 203.833 470.336 204.177V206C473.332 205.507 475.641 202.897 475.641 199.842C475.641 197.379 474.167 196 472.448 196C470.729 196 469.599 197.232 469.599 198.857ZM461.641 198.857C461.641 200.581 462.771 201.517 464.048 201.517C464.637 201.517 465.08 201.419 465.374 201.222C465.374 202.601 464.097 203.833 462.378 204.177V206C465.423 205.507 467.732 202.897 467.732 199.842C467.732 197.379 466.209 196 464.539 196C462.82 196 461.641 197.232 461.641 198.857Z" fill="#153853"/>
</g>
<g filter="url(#filter1_d_797_1068)">
<path d="M48 140L82.641 120V160L48 140Z" fill="white"/>
</g>
<defs>
<filter id="filter0_d_797_1068" x="34.641" y="0" width="519" height="288" filterUnits="userSpaceOnUse" color-interpolation-filters="sRGB">
<feFlood flood-opacity="0" result="BackgroundImageFix"/>
<feColorMatrix in="SourceAlpha" type="matrix" values="0 0 0 0 0 0 0 0 0 0 0 0 0 0 0 0 0 0 127 0" result="hardAlpha"/>
<feOffset dy="4"/>
<feGaussianBlur stdDeviation="24"/>
<feComposite in2="hardAlpha" operator="out"/>
<feColorMatrix type="matrix" values="0 0 0 0 0 0 0 0 0 0 0 0 0 0 0 0 0 0 0.1 0"/>
<feBlend mode="normal" in2="BackgroundImageFix" result="effect1_dropShadow_797_1068"/>
<feBlend mode="normal" in="SourceGraphic" in2="effect1_dropShadow_797_1068" result="shape"/>
</filter>
<filter id="filter1_d_797_1068" x="0" y="76" width="130.641" height="136" filterUnits="userSpaceOnUse" color-interpolation-filters="sRGB">
<feFlood flood-opacity="0" result="BackgroundImageFix"/>
<feColorMatrix in="SourceAlpha" type="matrix" values="0 0 0 0 0 0 0 0 0 0 0 0 0 0 0 0 0 0 127 0" result="hardAlpha"/>
<feOffset dy="4"/>
<feGaussianBlur stdDeviation="24"/>
<feComposite in2="hardAlpha" operator="out"/>
<feColorMatrix type="matrix" values="0 0 0 0 0 0 0 0 0 0 0 0 0 0 0 0 0 0 0.1 0"/>
<feBlend mode="normal" in2="BackgroundImageFix" result="effect1_dropShadow_797_1068"/>
<feBlend mode="normal" in="SourceGraphic" in2="effect1_dropShadow_797_1068" result="shape"/>
</filter>
</defs>
</svg>
