<svg width="13" height="11" viewBox="0 0 13 11" fill="none" xmlns="http://www.w3.org/2000/svg">
<path d="M2.25 0.75C1.71957 0.75 1.21086 0.960714 0.835786 1.33579C0.460714 1.71086 0.25 2.21957 0.25 2.75V2.951L6.25 6.182L12.25 2.952V2.75C12.25 2.21957 12.0393 1.71086 11.6642 1.33579C11.2891 0.960714 10.7804 0.75 10.25 0.75H2.25Z" fill="#46F7AD"/>
<path d="M12.25 4.0874L6.487 7.1904C6.41416 7.22961 6.33273 7.25014 6.25 7.25014C6.16727 7.25014 6.08584 7.22961 6.013 7.1904L0.25 4.0874V8.7504C0.25 9.28084 0.460714 9.78954 0.835786 10.1646C1.21086 10.5397 1.71957 10.7504 2.25 10.7504H10.25C10.7804 10.7504 11.2891 10.5397 11.6642 10.1646C12.0393 9.78954 12.25 9.28084 12.25 8.7504V4.0874Z" fill="#46F7AD"/>
</svg>
