<svg width="1440" height="525" viewBox="0 0 1440 525" fill="none" xmlns="http://www.w3.org/2000/svg">
<g clip-path="url(#clip0_450_1528)">
<rect width="1440" height="525" fill="#05596B"/>
<ellipse cx="715" cy="-20" rx="100" ry="110" fill="#1E6679"/>
<ellipse cx="813" cy="5" rx="50" ry="55" fill="#46F7AD"/>
<circle cx="1440" cy="428" r="197" fill="#46F7AD"/>
<path d="M-209 -21H291V295C291 433.071 179.071 545 41 545C-97.0712 545 -209 433.071 -209 295V-21Z" fill="#1E6679"/>
<circle cx="23.5" cy="497.5" r="71.5" fill="#46F7AD"/>
<path d="M131.278 179.556C133.392 179.556 134.806 178.17 134.806 176.098C134.806 174.026 133.392 172.64 131.278 172.64H127.078V183H129.346V179.556H131.278ZM130.774 174.656C131.866 174.656 132.412 175.132 132.412 176.098C132.412 177.064 131.866 177.54 130.774 177.54H129.346V174.656H130.774ZM139.626 183V179.374H141.376L142.93 183H145.408L143.588 178.884C144.736 178.296 145.31 177.344 145.31 176C145.31 173.858 143.882 172.64 141.362 172.64H137.358V183H139.626ZM139.626 174.656H141.362C142.37 174.656 142.916 175.132 142.916 176C142.916 176.882 142.342 177.386 141.348 177.386H139.626V174.656ZM157.693 177.806C157.693 174.642 155.621 172.458 152.611 172.458C149.615 172.458 147.543 174.656 147.543 177.82C147.543 180.984 149.601 183.168 152.597 183.168C155.607 183.168 157.693 180.97 157.693 177.806ZM155.299 177.806C155.299 179.766 154.291 180.984 152.625 180.984C150.945 180.984 149.937 179.794 149.937 177.806C149.937 175.832 150.945 174.642 152.625 174.642C154.291 174.642 155.299 175.832 155.299 177.806ZM159.24 174.74H162.18V183H164.448V174.74H167.388V172.64H159.24V174.74ZM176.447 183V180.9H172.135V178.758H175.957V176.77H172.135V174.74H176.447V172.64H169.867V183H176.447ZM183.902 183.168C186.492 183.168 188.424 181.642 188.788 179.332H186.436C186.156 180.354 185.218 180.984 183.944 180.984C182.278 180.984 181.242 179.766 181.242 177.82C181.242 175.846 182.264 174.656 183.944 174.656C185.19 174.656 186.072 175.244 186.38 176.28H188.774C188.452 173.956 186.59 172.472 184 172.472C180.906 172.472 178.848 174.6 178.848 177.834C178.848 181.11 180.794 183.168 183.902 183.168ZM190.066 174.74H193.006V183H195.274V174.74H198.214V172.64H190.066V174.74ZM208.08 179.066V183H210.348V179.066L213.848 172.64H211.384L209.648 175.986C209.48 176.322 209.368 176.588 209.242 176.84C209.13 176.574 209.018 176.322 208.85 176L207.114 172.64H204.58L208.08 179.066ZM224.923 177.806C224.923 174.642 222.851 172.458 219.841 172.458C216.845 172.458 214.773 174.656 214.773 177.82C214.773 180.984 216.831 183.168 219.827 183.168C222.837 183.168 224.923 180.97 224.923 177.806ZM222.529 177.806C222.529 179.766 221.521 180.984 219.855 180.984C218.175 180.984 217.167 179.794 217.167 177.806C217.167 175.832 218.175 174.642 219.855 174.642C221.521 174.642 222.529 175.832 222.529 177.806ZM227.554 179.108C227.554 181.586 229.22 183.168 231.81 183.168C234.414 183.168 236.094 181.572 236.094 179.108V172.64H233.826V178.954C233.826 180.228 233.098 180.97 231.81 180.97C230.536 180.97 229.822 180.256 229.822 178.954V172.64H227.554V179.108ZM241.566 183V179.374H243.316L244.87 183H247.348L245.528 178.884C246.676 178.296 247.25 177.344 247.25 176C247.25 173.858 245.822 172.64 243.302 172.64H239.298V183H241.566ZM241.566 174.656H243.302C244.31 174.656 244.856 175.132 244.856 176C244.856 176.882 244.282 177.386 243.288 177.386H241.566V174.656ZM257.15 172.64H254.882V183H261.238V180.9H257.15V172.64ZM266.049 172.64H263.781V183H266.049V172.64ZM275.239 178.954V176.91H271.599V174.74H275.925V172.64H269.331V183H271.599V178.954H275.239ZM285.18 183V180.9H280.868V178.758H284.69V176.77H280.868V174.74H285.18V172.64H278.6V183H285.18Z" fill="#46F7AD"/>
<rect x="100" y="208" width="6" height="72" rx="2" fill="#46F7AD"/>
<path d="M126.72 225.368C126.72 229.976 129.564 233.468 135.432 233.468C140.796 233.468 144.18 230.084 144.18 225.512V206.36H138.348V225.152C138.348 226.952 137.52 228.068 135.36 228.068C133.128 228.068 132.336 226.772 132.336 225.368V223.496H126.72V225.368ZM147.893 223.964C147.893 229.652 152.069 233.432 157.829 233.432C163.553 233.432 167.729 229.652 167.729 223.964C167.729 218.276 163.553 214.46 157.829 214.46C152.069 214.46 147.893 218.276 147.893 223.964ZM153.473 223.928C153.473 221.228 155.237 219.428 157.829 219.428C160.385 219.428 162.149 221.228 162.149 223.928C162.149 226.664 160.385 228.464 157.829 228.464C155.237 228.464 153.473 226.664 153.473 223.928ZM173.679 212.192C175.407 212.192 176.811 210.788 176.811 209.024C176.811 207.26 175.407 205.892 173.679 205.892C171.915 205.892 170.511 207.26 170.511 209.024C170.511 210.788 171.915 212.192 173.679 212.192ZM170.943 233H176.487V215H170.943V233ZM186.191 233V223.136C186.191 220.904 187.595 219.464 189.791 219.464C191.699 219.464 192.959 220.94 192.959 223.208V233H198.503V221.876C198.503 217.16 196.019 214.424 191.735 214.424C189.395 214.424 187.343 215.324 186.227 216.872L185.867 215H180.647V233H186.191ZM210.638 211.76H218.198V233H224.03V211.76H231.59V206.36H210.638V211.76ZM239.945 233V223.136C239.945 220.904 241.349 219.464 243.545 219.464C245.453 219.464 246.713 220.94 246.713 223.208V233H252.257V221.876C252.257 217.16 249.773 214.424 245.489 214.424C243.149 214.424 241.097 215.324 239.981 216.872V205.856H234.401V233H239.945ZM264.585 233.468C269.517 233.468 273.081 230.912 273.729 226.916H268.653C268.257 228.212 266.781 228.968 264.693 228.968C262.245 228.968 260.913 227.852 260.589 225.476L273.657 225.404V224C273.657 218.132 270.129 214.424 264.477 214.424C259.041 214.424 255.261 218.348 255.261 223.964C255.261 229.508 259.149 233.468 264.585 233.468ZM264.513 218.924C266.745 218.924 268.149 220.148 268.149 222.056H260.661C261.093 219.896 262.317 218.924 264.513 218.924ZM302.343 222.596V217.34H292.983V211.76H304.107V206.36H287.151V233H292.983V222.596H302.343ZM310.156 212.192C311.884 212.192 313.288 210.788 313.288 209.024C313.288 207.26 311.884 205.892 310.156 205.892C308.392 205.892 306.988 207.26 306.988 209.024C306.988 210.788 308.392 212.192 310.156 212.192ZM307.42 233H312.964V215H307.42V233ZM316.223 223.676C316.223 229.076 319.715 232.784 324.755 232.784C327.095 232.784 329.111 231.956 330.191 230.66V233C330.191 235.556 328.499 237.14 325.835 237.14C323.387 237.14 321.875 235.952 321.767 233.936H316.151C316.655 239.048 320.363 242.18 325.871 242.18C332.027 242.18 335.735 238.292 335.735 231.848V215H330.515L330.227 216.8C329.255 215.324 327.311 214.388 324.863 214.388C319.787 214.388 316.223 218.204 316.223 223.676ZM321.803 223.532C321.803 220.976 323.495 219.212 325.943 219.212C328.499 219.212 330.191 220.904 330.191 223.532C330.191 226.196 328.499 227.96 325.979 227.96C323.531 227.96 321.803 226.124 321.803 223.532ZM345.448 233V223.136C345.448 220.904 346.852 219.464 349.048 219.464C350.956 219.464 352.216 220.94 352.216 223.208V233H357.76V221.876C357.76 217.16 355.276 214.424 350.992 214.424C348.652 214.424 346.6 215.324 345.484 216.872V205.856H339.904V233H345.448ZM369.008 233V219.608H372.428V215H369.008V209.42H363.464V215H360.044V219.608H363.464V233H369.008ZM388.767 233L390.675 227.384H399.279L401.151 233H407.343L397.875 206.36H392.187L382.683 233H388.767ZM394.275 216.8C394.599 215.828 394.887 214.82 394.995 214.208C395.103 214.856 395.427 215.9 395.715 216.8L397.623 222.488H392.367L394.275 216.8ZM408.157 223.676C408.157 229.076 411.649 232.784 416.689 232.784C419.029 232.784 421.045 231.956 422.125 230.66V233C422.125 235.556 420.433 237.14 417.769 237.14C415.321 237.14 413.809 235.952 413.701 233.936H408.085C408.589 239.048 412.297 242.18 417.805 242.18C423.961 242.18 427.669 238.292 427.669 231.848V215H422.449L422.161 216.8C421.189 215.324 419.245 214.388 416.797 214.388C411.721 214.388 408.157 218.204 408.157 223.676ZM413.737 223.532C413.737 220.976 415.429 219.212 417.877 219.212C420.433 219.212 422.125 220.904 422.125 223.532C422.125 226.196 420.433 227.96 417.913 227.96C415.465 227.96 413.737 226.124 413.737 223.532ZM437.274 233.468C439.974 233.468 442.35 232.28 442.926 230.624L443.286 233H448.182V222.488C448.182 217.34 445.23 214.424 440.01 214.424C434.862 214.424 431.514 217.088 431.514 221.156H436.122C436.122 219.536 437.382 218.636 439.722 218.636C441.702 218.636 442.782 219.572 442.782 221.336V221.624L437.742 222.02C433.422 222.344 431.082 224.396 431.082 227.708C431.082 231.236 433.458 233.468 437.274 233.468ZM439.218 229.364C437.526 229.364 436.734 228.752 436.734 227.456C436.734 226.304 437.598 225.764 440.01 225.548L442.818 225.296V226.268C442.818 228.32 441.342 229.364 439.218 229.364ZM454.894 212.192C456.622 212.192 458.026 210.788 458.026 209.024C458.026 207.26 456.622 205.892 454.894 205.892C453.13 205.892 451.726 207.26 451.726 209.024C451.726 210.788 453.13 212.192 454.894 212.192ZM452.158 233H457.702V215H452.158V233ZM467.405 233V223.136C467.405 220.904 468.809 219.464 471.005 219.464C472.913 219.464 474.173 220.94 474.173 223.208V233H479.717V221.876C479.717 217.16 477.233 214.424 472.949 214.424C470.609 214.424 468.557 215.324 467.441 216.872L467.081 215H461.861V233H467.405ZM482.187 227.312C482.187 230.948 485.175 233.468 489.927 233.468C494.607 233.468 497.883 231.128 497.883 227.276C497.883 224.396 496.263 223.028 493.311 222.38L489.963 221.66C488.703 221.372 488.019 220.904 488.019 220.076C488.019 219.104 488.811 218.456 490.071 218.456C491.403 218.456 492.159 219.284 492.159 220.508H497.415C497.415 216.872 494.499 214.424 490.323 214.424C486.003 214.424 482.799 216.584 482.799 220.328C482.799 223.496 484.419 224.936 487.731 225.656L491.043 226.376C492.375 226.664 492.663 227.24 492.663 227.78C492.663 228.716 491.871 229.328 490.143 229.328C488.451 229.328 487.515 228.572 487.443 227.312H482.187ZM508.051 233V219.608H511.471V215H508.051V209.42H502.507V215H499.087V219.608H502.507V233H508.051ZM539.366 222.596V217.34H530.006V211.76H541.13V206.36H524.174V233H530.006V222.596H539.366ZM548.438 233.468C551.138 233.468 553.514 232.28 554.09 230.624L554.45 233H559.346V222.488C559.346 217.34 556.394 214.424 551.174 214.424C546.026 214.424 542.678 217.088 542.678 221.156H547.286C547.286 219.536 548.546 218.636 550.886 218.636C552.866 218.636 553.946 219.572 553.946 221.336V221.624L548.906 222.02C544.586 222.344 542.246 224.396 542.246 227.708C542.246 231.236 544.622 233.468 548.438 233.468ZM550.382 229.364C548.69 229.364 547.898 228.752 547.898 227.456C547.898 226.304 548.762 225.764 551.174 225.548L553.982 225.296V226.268C553.982 228.32 552.506 229.364 550.382 229.364ZM568.866 233V228.5L570.99 226.268L575.022 233H581.43L574.878 222.128L581.646 215H574.698L568.866 221.48V205.856H563.322V233H568.866ZM591.362 233.468C596.294 233.468 599.858 230.912 600.506 226.916H595.43C595.034 228.212 593.558 228.968 591.47 228.968C589.022 228.968 587.69 227.852 587.366 225.476L600.434 225.404V224C600.434 218.132 596.906 214.424 591.254 214.424C585.818 214.424 582.038 218.348 582.038 223.964C582.038 229.508 585.926 233.468 591.362 233.468ZM591.29 218.924C593.522 218.924 594.926 220.148 594.926 222.056H587.438C587.87 219.896 589.094 218.924 591.29 218.924ZM139.572 273.144C145.008 273.144 148.644 269.58 148.644 264.252C148.644 258.924 145.008 255.36 139.572 255.36H128.772V282H134.604V273.144H139.572ZM138.276 260.544C141.084 260.544 142.488 261.768 142.488 264.252C142.488 266.736 141.084 267.96 138.276 267.96H134.604V260.544H138.276ZM164.027 264C163.271 263.82 162.551 263.748 161.903 263.748C159.491 263.748 157.907 264.936 157.151 266.7L156.863 264.036H151.643V282H157.187V274.188C157.187 270.624 159.095 269.22 162.263 269.22H164.027V264ZM165.331 272.964C165.331 278.652 169.507 282.432 175.267 282.432C180.991 282.432 185.167 278.652 185.167 272.964C185.167 267.276 180.991 263.46 175.267 263.46C169.507 263.46 165.331 267.276 165.331 272.964ZM170.911 272.928C170.911 270.228 172.675 268.428 175.267 268.428C177.823 268.428 179.587 270.228 179.587 272.928C179.587 275.664 177.823 277.464 175.267 277.464C172.675 277.464 170.911 275.664 170.911 272.928ZM195.941 282.468C198.533 282.468 200.765 281.352 201.737 279.696L202.025 282H207.245V254.856H201.701V265.656C200.657 264.324 198.533 263.424 196.301 263.424C190.829 263.424 187.409 267.384 187.409 273.108C187.409 278.796 190.757 282.468 195.941 282.468ZM197.273 277.392C194.645 277.392 192.989 275.556 192.989 272.892C192.989 270.228 194.645 268.392 197.273 268.392C199.865 268.392 201.665 270.192 201.665 272.892C201.665 275.592 199.865 277.392 197.273 277.392ZM223.36 264V273.36C223.36 276.312 222.388 277.536 220.012 277.536C217.744 277.536 216.736 276.24 216.736 273.288V264H211.192V275.304C211.192 279.732 213.712 282.468 217.816 282.468C219.976 282.468 222.208 281.46 223.324 279.984L223.684 282H228.904V264H223.36ZM231.741 272.928C231.741 278.688 235.413 282.468 241.101 282.468C246.141 282.468 249.813 279.372 250.173 274.836H244.593C244.233 276.6 243.045 277.5 241.101 277.5C238.725 277.5 237.321 275.808 237.321 272.928C237.321 270.156 238.833 268.392 241.173 268.392C243.081 268.392 244.197 269.256 244.593 271.056H250.173C249.813 266.34 246.285 263.424 240.957 263.424C235.557 263.424 231.741 267.384 231.741 272.928ZM260.481 282V268.608H263.901V264H260.481V258.42H254.937V264H251.517V268.608H254.937V282H260.481ZM265.097 276.312C265.097 279.948 268.085 282.468 272.837 282.468C277.517 282.468 280.793 280.128 280.793 276.276C280.793 273.396 279.173 272.028 276.221 271.38L272.873 270.66C271.613 270.372 270.929 269.904 270.929 269.076C270.929 268.104 271.721 267.456 272.981 267.456C274.313 267.456 275.069 268.284 275.069 269.508H280.325C280.325 265.872 277.409 263.424 273.233 263.424C268.913 263.424 265.709 265.584 265.709 269.328C265.709 272.496 267.329 273.936 270.641 274.656L273.953 275.376C275.285 275.664 275.573 276.24 275.573 276.78C275.573 277.716 274.781 278.328 273.053 278.328C271.361 278.328 270.425 277.572 270.353 276.312H265.097Z" fill="#E7F6FE"/>
<path d="M108.4 330V328.544H102.912V324.88H107.856V323.488H102.912V319.872H108.4V318.432H101.344V330H108.4ZM111.216 330L113.136 327.136L115.088 330H116.832L114.16 326.128L116.88 322.176H115.168L113.232 325.088L111.248 322.176H109.504L112.224 326.128L109.488 330H111.216ZM118.135 333.504H119.639V328.72C120.151 329.68 121.191 330.208 122.439 330.208C124.759 330.208 126.071 328.416 126.071 326.032C126.071 323.632 124.679 321.952 122.439 321.952C121.191 321.952 120.135 322.512 119.607 323.584L119.495 322.176H118.135V333.504ZM119.655 326.096C119.655 324.464 120.583 323.328 122.119 323.328C123.655 323.328 124.567 324.48 124.567 326.096C124.567 327.696 123.655 328.848 122.119 328.848C120.583 328.848 119.655 327.696 119.655 326.096ZM129.265 330V318.224H127.761V330H129.265ZM130.967 326.08C130.967 328.496 132.695 330.192 135.047 330.192C137.383 330.192 139.111 328.496 139.111 326.08C139.111 323.664 137.383 321.968 135.047 321.968C132.695 321.968 130.967 323.664 130.967 326.08ZM132.487 326.08C132.487 324.448 133.527 323.312 135.047 323.312C136.551 323.312 137.607 324.448 137.607 326.08C137.607 327.712 136.551 328.848 135.047 328.848C133.527 328.848 132.487 327.712 132.487 326.08ZM145.256 322.112C144.952 322.048 144.728 322.016 144.456 322.016C143.384 322.016 142.6 322.56 142.28 323.376L142.184 322.192H140.776V330H142.28V325.856C142.28 324.352 143.16 323.488 144.584 323.488H145.256V322.112ZM149.761 330.192C151.697 330.192 153.009 329.248 153.393 327.568H151.985C151.729 328.464 150.961 328.944 149.793 328.944C148.305 328.944 147.441 328.032 147.329 326.384L153.377 326.368V325.808C153.377 323.488 151.921 321.952 149.697 321.952C147.425 321.952 145.873 323.648 145.873 326.096C145.873 328.528 147.457 330.192 149.761 330.192ZM149.697 323.216C151.025 323.216 151.873 324.08 151.873 325.376H147.361C147.553 324 148.385 323.216 149.697 323.216ZM161.64 330V323.44H163.176V322.176H161.64V319.728H160.136V322.176H158.6V323.44H160.136V330H161.64ZM166.03 329.984V325.728C166.03 324.384 166.814 323.328 168.27 323.328C169.39 323.328 170.142 323.968 170.142 325.552V330H171.646V325.216C171.646 323.216 170.686 321.952 168.686 321.952C167.47 321.952 166.526 322.528 166.03 323.376V318.224H164.526V329.984H166.03ZM177.105 330.192C179.041 330.192 180.353 329.248 180.737 327.568H179.329C179.073 328.464 178.305 328.944 177.137 328.944C175.649 328.944 174.785 328.032 174.673 326.384L180.721 326.368V325.808C180.721 323.488 179.265 321.952 177.041 321.952C174.769 321.952 173.217 323.648 173.217 326.096C173.217 328.528 174.801 330.192 177.105 330.192ZM177.041 323.216C178.369 323.216 179.217 324.08 179.217 325.376H174.705C174.897 324 175.729 323.216 177.041 323.216ZM189.064 330.192C190.328 330.192 191.4 329.632 191.8 328.736L191.96 330H193.24V325.088C193.24 322.976 191.928 321.952 189.992 321.952C187.976 321.952 186.632 323.024 186.632 324.656H187.944C187.944 323.712 188.664 323.152 189.928 323.152C190.984 323.152 191.768 323.616 191.768 324.928V325.152L189.304 325.344C187.464 325.488 186.392 326.384 186.392 327.824C186.392 329.248 187.384 330.192 189.064 330.192ZM189.496 329.024C188.52 329.024 187.912 328.608 187.912 327.776C187.912 327.008 188.456 326.496 189.784 326.368L191.784 326.208V326.624C191.784 328.096 190.92 329.024 189.496 329.024ZM196.826 330V325.856C196.826 324.336 197.642 323.328 199.05 323.328C200.202 323.328 200.938 323.968 200.938 325.552V330H202.442V325.216C202.442 323.216 201.498 321.952 199.434 321.952C198.33 321.952 197.338 322.48 196.842 323.376L196.682 322.176H195.322V330H196.826ZM206.734 330V323.44H208.27V322.176H206.734V319.728H205.23V322.176H203.694V323.44H205.23V330H206.734ZM210.355 320.32C210.899 320.32 211.347 319.872 211.347 319.328C211.347 318.768 210.899 318.336 210.355 318.336C209.811 318.336 209.363 318.768 209.363 319.328C209.363 319.872 209.811 320.32 210.355 320.32ZM209.619 330H211.123V322.176H209.619V330ZM213.227 326.432H218.107V325.088H213.227V326.432ZM219.685 326.096C219.685 328.56 221.205 330.192 223.509 330.192C225.397 330.192 226.853 329.056 227.157 327.36H225.653C225.381 328.288 224.581 328.848 223.509 328.848C222.085 328.848 221.173 327.76 221.173 326.08C221.173 324.384 222.149 323.296 223.573 323.296C224.581 323.296 225.381 323.824 225.637 324.816H227.141C226.869 323.072 225.493 321.952 223.525 321.952C221.237 321.952 219.685 323.648 219.685 326.096ZM228.232 326.08C228.232 328.496 229.96 330.192 232.312 330.192C234.648 330.192 236.376 328.496 236.376 326.08C236.376 323.664 234.648 321.968 232.312 321.968C229.96 321.968 228.232 323.664 228.232 326.08ZM229.752 326.08C229.752 324.448 230.792 323.312 232.312 323.312C233.816 323.312 234.872 324.448 234.872 326.08C234.872 327.712 233.816 328.848 232.312 328.848C230.792 328.848 229.752 327.712 229.752 326.08ZM243.262 322.176V326.304C243.262 327.984 242.51 328.864 241.134 328.864C239.982 328.864 239.262 328.224 239.262 326.544V322.176H237.758V327.04C237.758 328.96 238.782 330.192 240.606 330.192C241.758 330.192 242.798 329.632 243.246 328.816L243.406 330H244.75V322.176H243.262ZM248.436 330V325.856C248.436 324.336 249.252 323.328 250.66 323.328C251.812 323.328 252.548 323.968 252.548 325.552V330H254.052V325.216C254.052 323.216 253.108 321.952 251.044 321.952C249.94 321.952 248.948 322.48 248.452 323.376L248.292 322.176H246.932V330H248.436ZM258.343 330V323.44H259.879V322.176H258.343V319.728H256.839V322.176H255.303V323.44H256.839V330H258.343ZM264.527 330.192C266.463 330.192 267.775 329.248 268.159 327.568H266.751C266.495 328.464 265.727 328.944 264.559 328.944C263.071 328.944 262.207 328.032 262.095 326.384L268.142 326.368V325.808C268.142 323.488 266.687 321.952 264.463 321.952C262.191 321.952 260.639 323.648 260.639 326.096C260.639 328.528 262.223 330.192 264.527 330.192ZM264.463 323.216C265.791 323.216 266.639 324.08 266.639 325.376H262.127C262.319 324 263.151 323.216 264.463 323.216ZM274.302 322.112C273.998 322.048 273.774 322.016 273.502 322.016C272.43 322.016 271.646 322.56 271.326 323.376L271.23 322.192H269.822V330H271.326V325.856C271.326 324.352 272.206 323.488 273.63 323.488H274.302V322.112ZM275.194 322.176V323.44H276.346V330H277.85V323.44H279.706V322.176H277.85V320.928C277.85 320.08 278.106 319.584 279.082 319.584H279.754V318.288C279.45 318.24 279.114 318.224 278.826 318.224C277.402 318.224 276.346 319.008 276.346 320.928V322.176H275.194ZM284.245 330.192C286.181 330.192 287.493 329.248 287.877 327.568H286.469C286.213 328.464 285.445 328.944 284.277 328.944C282.789 328.944 281.925 328.032 281.813 326.384L287.861 326.368V325.808C287.861 323.488 286.405 321.952 284.181 321.952C281.909 321.952 280.357 323.648 280.357 326.096C280.357 328.528 281.941 330.192 284.245 330.192ZM284.181 323.216C285.509 323.216 286.357 324.08 286.357 325.376H281.845C282.037 324 282.869 323.216 284.181 323.216ZM290.277 320.32C290.821 320.32 291.269 319.872 291.269 319.328C291.269 318.768 290.821 318.336 290.277 318.336C289.733 318.336 289.285 318.768 289.285 319.328C289.285 319.872 289.733 320.32 290.277 320.32ZM289.541 330H291.045V322.176H289.541V330ZM296.964 327.728C296.964 329.216 298.132 330.192 299.972 330.192C301.828 330.192 303.108 329.248 303.108 327.76C303.108 326.592 302.452 325.984 301.124 325.664L299.748 325.328C298.98 325.136 298.596 324.784 298.596 324.256C298.596 323.536 299.124 323.12 300.068 323.12C300.98 323.12 301.508 323.616 301.54 324.4H302.98C302.948 322.912 301.828 321.952 300.116 321.952C298.388 321.952 297.172 322.864 297.172 324.304C297.172 325.456 297.828 326.144 299.22 326.48L300.596 326.8C301.412 327.008 301.668 327.328 301.668 327.856C301.668 328.576 301.06 329.008 300.004 329.008C299.012 329.008 298.404 328.528 298.404 327.728H296.964ZM308.152 330.192C310.088 330.192 311.4 329.248 311.784 327.568H310.376C310.12 328.464 309.352 328.944 308.184 328.944C306.696 328.944 305.832 328.032 305.72 326.384L311.767 326.368V325.808C311.767 323.488 310.312 321.952 308.088 321.952C305.816 321.952 304.264 323.648 304.264 326.096C304.264 328.528 305.848 330.192 308.152 330.192ZM308.088 323.216C309.416 323.216 310.264 324.08 310.264 325.376H305.752C305.944 324 306.776 323.216 308.088 323.216ZM317.927 322.112C317.623 322.048 317.399 322.016 317.127 322.016C316.055 322.016 315.271 322.56 314.951 323.376L314.855 322.192H313.447V330H314.951V325.856C314.951 324.352 315.831 323.488 317.255 323.488H317.927V322.112ZM321.764 330H323.252L326.516 322.176H324.948L323.204 326.544C322.932 327.232 322.676 327.904 322.548 328.416C322.42 327.936 322.196 327.28 321.924 326.544L320.212 322.176H318.612L321.764 330ZM328.449 320.32C328.993 320.32 329.441 319.872 329.441 319.328C329.441 318.768 328.993 318.336 328.449 318.336C327.905 318.336 327.457 318.768 327.457 319.328C327.457 319.872 327.905 320.32 328.449 320.32ZM327.713 330H329.217V322.176H327.713V330ZM330.889 326.096C330.889 328.56 332.409 330.192 334.713 330.192C336.601 330.192 338.057 329.056 338.361 327.36H336.857C336.585 328.288 335.785 328.848 334.713 328.848C333.289 328.848 332.377 327.76 332.377 326.08C332.377 324.384 333.353 323.296 334.777 323.296C335.785 323.296 336.585 323.824 336.841 324.816H338.345C338.073 323.072 336.697 321.952 334.729 321.952C332.441 321.952 330.889 323.648 330.889 326.096ZM343.323 330.192C345.259 330.192 346.571 329.248 346.955 327.568H345.547C345.291 328.464 344.523 328.944 343.355 328.944C341.867 328.944 341.003 328.032 340.891 326.384L346.939 326.368V325.808C346.939 323.488 345.483 321.952 343.259 321.952C340.987 321.952 339.435 323.648 339.435 326.096C339.435 328.528 341.019 330.192 343.323 330.192ZM343.259 323.216C344.587 323.216 345.435 324.08 345.435 325.376H340.923C341.115 324 341.947 323.216 343.259 323.216ZM352.482 326.08C352.482 328.496 354.21 330.192 356.562 330.192C358.898 330.192 360.626 328.496 360.626 326.08C360.626 323.664 358.898 321.968 356.562 321.968C354.21 321.968 352.482 323.664 352.482 326.08ZM354.002 326.08C354.002 324.448 355.042 323.312 356.562 323.312C358.066 323.312 359.122 324.448 359.122 326.08C359.122 327.712 358.066 328.848 356.562 328.848C355.042 328.848 354.002 327.712 354.002 326.08ZM366.771 322.112C366.467 322.048 366.243 322.016 365.971 322.016C364.899 322.016 364.115 322.56 363.795 323.376L363.699 322.192H362.291V330H363.795V325.856C363.795 324.352 364.675 323.488 366.099 323.488H366.771V322.112ZM372.045 326.096C372.045 328.56 373.565 330.192 375.869 330.192C377.757 330.192 379.213 329.056 379.517 327.36H378.013C377.741 328.288 376.941 328.848 375.869 328.848C374.445 328.848 373.533 327.76 373.533 326.08C373.533 324.384 374.509 323.296 375.933 323.296C376.941 323.296 377.741 323.824 377.997 324.816H379.501C379.229 323.072 377.853 321.952 375.885 321.952C373.597 321.952 372.045 323.648 372.045 326.096ZM385.584 322.112C385.28 322.048 385.056 322.016 384.784 322.016C383.712 322.016 382.928 322.56 382.608 323.376L382.512 322.192H381.104V330H382.608V325.856C382.608 324.352 383.488 323.488 384.912 323.488H385.584V322.112ZM390.089 330.192C392.025 330.192 393.337 329.248 393.721 327.568H392.313C392.057 328.464 391.289 328.944 390.121 328.944C388.633 328.944 387.769 328.032 387.657 326.384L393.705 326.368V325.808C393.705 323.488 392.249 321.952 390.025 321.952C387.753 321.952 386.201 323.648 386.201 326.096C386.201 328.528 387.785 330.192 390.089 330.192ZM390.025 323.216C391.353 323.216 392.201 324.08 392.201 325.376H387.689C387.881 324 388.713 323.216 390.025 323.216ZM397.595 330.192C398.859 330.192 399.931 329.632 400.331 328.736L400.491 330H401.771V325.088C401.771 322.976 400.459 321.952 398.523 321.952C396.507 321.952 395.163 323.024 395.163 324.656H396.475C396.475 323.712 397.195 323.152 398.459 323.152C399.515 323.152 400.299 323.616 400.299 324.928V325.152L397.835 325.344C395.995 325.488 394.923 326.384 394.923 327.824C394.923 329.248 395.915 330.192 397.595 330.192ZM398.027 329.024C397.051 329.024 396.443 328.608 396.443 327.776C396.443 327.008 396.987 326.496 398.315 326.368L400.315 326.208V326.624C400.315 328.096 399.451 329.024 398.027 329.024ZM405.937 330V323.44H407.473V322.176H405.937V319.728H404.433V322.176H402.897V323.44H404.433V330H405.937ZM412.12 330.192C414.056 330.192 415.368 329.248 415.752 327.568H414.344C414.088 328.464 413.32 328.944 412.152 328.944C410.664 328.944 409.8 328.032 409.688 326.384L415.736 326.368V325.808C415.736 323.488 414.28 321.952 412.056 321.952C409.784 321.952 408.232 323.648 408.232 326.096C408.232 328.528 409.816 330.192 412.12 330.192ZM412.056 323.216C413.384 323.216 414.232 324.08 414.232 325.376H409.72C409.912 324 410.744 323.216 412.056 323.216ZM424.079 330.192C425.343 330.192 426.415 329.632 426.815 328.736L426.975 330H428.255V325.088C428.255 322.976 426.943 321.952 425.007 321.952C422.991 321.952 421.647 323.024 421.647 324.656H422.959C422.959 323.712 423.679 323.152 424.943 323.152C425.999 323.152 426.783 323.616 426.783 324.928V325.152L424.319 325.344C422.479 325.488 421.407 326.384 421.407 327.824C421.407 329.248 422.399 330.192 424.079 330.192ZM424.511 329.024C423.535 329.024 422.927 328.608 422.927 327.776C422.927 327.008 423.471 326.496 424.799 326.368L426.799 326.208V326.624C426.799 328.096 425.935 329.024 424.511 329.024ZM439.769 330.176C442.377 330.176 444.441 328.64 444.937 326.336H443.273C442.841 327.76 441.497 328.672 439.801 328.672C437.465 328.672 435.929 326.912 435.929 324.208C435.929 321.504 437.465 319.744 439.801 319.744C441.481 319.744 442.777 320.656 443.209 322.16H444.889C444.457 319.792 442.457 318.24 439.849 318.24C436.537 318.24 434.281 320.656 434.281 324.224C434.281 327.808 436.473 330.176 439.769 330.176ZM448.03 329.984V325.728C448.03 324.384 448.814 323.328 450.27 323.328C451.39 323.328 452.142 323.968 452.142 325.552V330H453.646V325.216C453.646 323.216 452.686 321.952 450.686 321.952C449.47 321.952 448.526 322.528 448.03 323.376V318.224H446.526V329.984H448.03ZM459.105 330.192C461.041 330.192 462.353 329.248 462.737 327.568H461.329C461.073 328.464 460.305 328.944 459.137 328.944C457.649 328.944 456.785 328.032 456.673 326.384L462.721 326.368V325.808C462.721 323.488 461.265 321.952 459.041 321.952C456.769 321.952 455.217 323.648 455.217 326.096C455.217 328.528 456.801 330.192 459.105 330.192ZM459.041 323.216C460.369 323.216 461.217 324.08 461.217 325.376H456.705C456.897 324 457.729 323.216 459.041 323.216ZM465.937 330V327.776L467.265 326.384L469.553 330H471.281L468.305 325.296L471.297 322.176H469.409L465.937 325.856V318.224H464.433V330H465.937ZM474.062 330V327.776L475.39 326.384L477.678 330H479.406L476.43 325.296L479.422 322.176H477.534L474.062 325.856V318.224H472.558V330H474.062ZM481.387 320.32C481.931 320.32 482.379 319.872 482.379 319.328C482.379 318.768 481.931 318.336 481.387 318.336C480.843 318.336 480.395 318.768 480.395 319.328C480.395 319.872 480.843 320.32 481.387 320.32ZM480.651 330H482.155V322.176H480.651V330ZM486.546 330V323.44H488.082V322.176H486.546V319.728H485.042V322.176H483.506V323.44H485.042V330H486.546ZM496.095 330.192C497.359 330.192 498.431 329.632 498.831 328.736L498.991 330H500.271V325.088C500.271 322.976 498.959 321.952 497.023 321.952C495.007 321.952 493.663 323.024 493.663 324.656H494.975C494.975 323.712 495.695 323.152 496.959 323.152C498.015 323.152 498.799 323.616 498.799 324.928V325.152L496.335 325.344C494.495 325.488 493.423 326.384 493.423 327.824C493.423 329.248 494.415 330.192 496.095 330.192ZM496.527 329.024C495.551 329.024 494.943 328.608 494.943 327.776C494.943 327.008 495.487 326.496 496.815 326.368L498.815 326.208V326.624C498.815 328.096 497.951 329.024 496.527 329.024ZM501.842 326.096C501.842 328.56 503.362 330.192 505.666 330.192C507.554 330.192 509.01 329.056 509.314 327.36H507.81C507.538 328.288 506.738 328.848 505.666 328.848C504.242 328.848 503.33 327.76 503.33 326.08C503.33 324.384 504.306 323.296 505.73 323.296C506.738 323.296 507.538 323.824 507.794 324.816H509.298C509.026 323.072 507.65 321.952 505.682 321.952C503.394 321.952 501.842 323.648 501.842 326.096ZM510.389 326.096C510.389 328.56 511.909 330.192 514.213 330.192C516.101 330.192 517.557 329.056 517.861 327.36H516.357C516.085 328.288 515.285 328.848 514.213 328.848C512.789 328.848 511.877 327.76 511.877 326.08C511.877 324.384 512.853 323.296 514.277 323.296C515.285 323.296 516.085 323.824 516.341 324.816H517.845C517.573 323.072 516.197 321.952 514.229 321.952C511.941 321.952 510.389 323.648 510.389 326.096ZM518.935 326.08C518.935 328.496 520.663 330.192 523.015 330.192C525.351 330.192 527.079 328.496 527.079 326.08C527.079 323.664 525.351 321.968 523.015 321.968C520.663 321.968 518.935 323.664 518.935 326.08ZM520.455 326.08C520.455 324.448 521.495 323.312 523.015 323.312C524.519 323.312 525.575 324.448 525.575 326.08C525.575 327.712 524.519 328.848 523.015 328.848C521.495 328.848 520.455 327.712 520.455 326.08ZM533.965 322.176V326.304C533.965 327.984 533.213 328.864 531.837 328.864C530.685 328.864 529.965 328.224 529.965 326.544V322.176H528.461V327.04C528.461 328.96 529.485 330.192 531.309 330.192C532.461 330.192 533.501 329.632 533.949 328.816L534.109 330H535.453V322.176H533.965ZM539.139 330V325.856C539.139 324.336 539.955 323.328 541.363 323.328C542.515 323.328 543.251 323.968 543.251 325.552V330H544.755V325.216C544.755 323.216 543.811 321.952 541.747 321.952C540.643 321.952 539.651 322.48 539.155 323.376L538.995 322.176H537.635V330H539.139ZM549.046 330V323.44H550.582V322.176H549.046V319.728H547.542V322.176H546.006V323.44H547.542V330H549.046ZM557.811 330V325.856C557.811 324.336 558.627 323.328 560.035 323.328C561.187 323.328 561.923 323.968 561.923 325.552V330H563.427V325.216C563.427 323.216 562.483 321.952 560.419 321.952C559.315 321.952 558.323 322.48 557.827 323.376L557.667 322.176H556.307V330H557.811ZM564.998 326.08C564.998 328.496 566.726 330.192 569.078 330.192C571.414 330.192 573.142 328.496 573.142 326.08C573.142 323.664 571.414 321.968 569.078 321.968C566.726 321.968 564.998 323.664 564.998 326.08ZM566.518 326.08C566.518 324.448 567.558 323.312 569.078 323.312C570.582 323.312 571.638 324.448 571.638 326.08C571.638 327.712 570.582 328.848 569.078 328.848C567.558 328.848 566.518 327.712 566.518 326.08ZM576.127 330H577.615L578.975 325.824C579.263 324.88 579.407 324.368 579.487 323.984C579.567 324.416 579.727 325.024 579.983 325.808L581.343 330H582.767L585.439 322.176H583.871L582.559 326.24C582.335 326.928 582.191 327.472 582.063 328.096C581.935 327.536 581.679 326.624 581.551 326.24L580.255 322.176H578.719L577.407 326.24C577.231 326.752 577.023 327.408 576.895 328.096C576.751 327.408 576.591 326.816 576.415 326.24L575.119 322.176H573.567L576.127 330ZM593.392 330.192C594.656 330.192 595.728 329.632 596.128 328.736L596.288 330H597.568V325.088C597.568 322.976 596.256 321.952 594.32 321.952C592.304 321.952 590.96 323.024 590.96 324.656H592.272C592.272 323.712 592.992 323.152 594.256 323.152C595.312 323.152 596.096 323.616 596.096 324.928V325.152L593.632 325.344C591.792 325.488 590.72 326.384 590.72 327.824C590.72 329.248 591.712 330.192 593.392 330.192ZM593.824 329.024C592.848 329.024 592.24 328.608 592.24 327.776C592.24 327.008 592.784 326.496 594.112 326.368L596.112 326.208V326.624C596.112 328.096 595.248 329.024 593.824 329.024ZM601.155 330V325.856C601.155 324.336 601.971 323.328 603.379 323.328C604.531 323.328 605.267 323.968 605.267 325.552V330H606.771V325.216C606.771 323.216 605.827 321.952 603.763 321.952C602.659 321.952 601.667 322.48 601.171 323.376L601.011 322.176H599.651V330H601.155ZM611.99 330.192C613.238 330.192 614.294 329.648 614.806 328.576L614.934 330H616.278V318.224H614.79V323.44C614.262 322.48 613.254 321.952 612.054 321.952C609.734 321.952 608.342 323.712 608.342 326.112C608.342 328.496 609.718 330.192 611.99 330.192ZM612.294 328.832C610.758 328.832 609.862 327.68 609.862 326.064C609.862 324.464 610.758 323.312 612.294 323.312C613.83 323.312 614.774 324.464 614.774 326.064C614.774 327.696 613.83 328.832 612.294 328.832ZM622.182 327.728C622.182 329.216 623.35 330.192 625.19 330.192C627.046 330.192 628.326 329.248 628.326 327.76C628.326 326.592 627.67 325.984 626.342 325.664L624.966 325.328C624.198 325.136 623.814 324.784 623.814 324.256C623.814 323.536 624.342 323.12 625.286 323.12C626.198 323.12 626.726 323.616 626.758 324.4H628.198C628.166 322.912 627.046 321.952 625.334 321.952C623.606 321.952 622.39 322.864 622.39 324.304C622.39 325.456 623.046 326.144 624.438 326.48L625.814 326.8C626.63 327.008 626.886 327.328 626.886 327.856C626.886 328.576 626.278 329.008 625.222 329.008C624.23 329.008 623.622 328.528 623.622 327.728H622.182ZM632.202 330V323.44H633.738V322.176H632.202V319.728H630.698V322.176H629.162V323.44H630.698V330H632.202ZM637.282 330.192C638.546 330.192 639.618 329.632 640.018 328.736L640.178 330H641.458V325.088C641.458 322.976 640.146 321.952 638.21 321.952C636.194 321.952 634.85 323.024 634.85 324.656H636.162C636.162 323.712 636.882 323.152 638.146 323.152C639.202 323.152 639.986 323.616 639.986 324.928V325.152L637.522 325.344C635.682 325.488 634.61 326.384 634.61 327.824C634.61 329.248 635.602 330.192 637.282 330.192ZM637.714 329.024C636.738 329.024 636.13 328.608 636.13 327.776C636.13 327.008 636.674 326.496 638.002 326.368L640.002 326.208V326.624C640.002 328.096 639.138 329.024 637.714 329.024ZM648.021 322.112C647.717 322.048 647.493 322.016 647.221 322.016C646.149 322.016 645.365 322.56 645.045 323.376L644.949 322.192H643.541V330H645.045V325.856C645.045 324.352 645.925 323.488 647.349 323.488H648.021V322.112ZM651.952 330V323.44H653.488V322.176H651.952V319.728H650.448V322.176H648.912V323.44H650.448V330H651.952ZM661.405 330H662.893L666.157 322.176H664.589L662.845 326.544C662.573 327.232 662.317 327.904 662.189 328.416C662.061 327.936 661.837 327.28 661.565 326.544L659.853 322.176H658.253L661.405 330ZM670.37 330.192C672.306 330.192 673.618 329.248 674.002 327.568H672.594C672.338 328.464 671.57 328.944 670.402 328.944C668.914 328.944 668.05 328.032 667.938 326.384L673.986 326.368V325.808C673.986 323.488 672.53 321.952 670.306 321.952C668.034 321.952 666.482 323.648 666.482 326.096C666.482 328.528 668.066 330.192 670.37 330.192ZM670.306 323.216C671.634 323.216 672.482 324.08 672.482 325.376H667.97C668.162 324 668.994 323.216 670.306 323.216ZM680.146 322.112C679.842 322.048 679.618 322.016 679.346 322.016C678.274 322.016 677.49 322.56 677.17 323.376L677.074 322.192H675.666V330H677.17V325.856C677.17 324.352 678.05 323.488 679.474 323.488H680.146V322.112ZM682.293 320.32C682.837 320.32 683.285 319.872 683.285 319.328C683.285 318.768 682.837 318.336 682.293 318.336C681.749 318.336 681.301 318.768 681.301 319.328C681.301 319.872 681.749 320.32 682.293 320.32ZM681.557 330H683.061V322.176H681.557V330ZM684.412 322.176V323.44H685.564V330H687.068V323.44H688.924V322.176H687.068V320.928C687.068 320.08 687.324 319.584 688.3 319.584H688.972V318.288C688.668 318.24 688.332 318.224 688.044 318.224C686.62 318.224 685.564 319.008 685.564 320.928V322.176H684.412ZM689.57 333.504C689.97 333.6 690.386 333.664 690.882 333.664C692.082 333.664 692.866 333.104 693.394 331.76L697.09 322.176H695.538L693.218 328.48L690.946 322.176H689.362L692.514 330.416L692.242 331.168C691.874 332.16 691.298 332.272 690.578 332.272H689.57V333.504ZM699.027 320.32C699.571 320.32 700.019 319.872 700.019 319.328C700.019 318.768 699.571 318.336 699.027 318.336C698.483 318.336 698.035 318.768 698.035 319.328C698.035 319.872 698.483 320.32 699.027 320.32ZM698.291 330H699.795V322.176H698.291V330ZM703.483 330V325.856C703.483 324.336 704.299 323.328 705.707 323.328C706.859 323.328 707.595 323.968 707.595 325.552V330H709.099V325.216C709.099 323.216 708.155 321.952 706.091 321.952C704.987 321.952 703.995 322.48 703.499 323.376L703.339 322.176H701.979V330H703.483ZM710.686 325.888C710.686 328.08 712.094 329.792 714.318 329.792C715.55 329.792 716.574 329.248 717.086 328.336V329.904C717.086 331.392 716.126 332.352 714.654 332.352C713.342 332.352 712.478 331.68 712.286 330.528H710.782C711.07 332.512 712.526 333.712 714.654 333.712C717.054 333.712 718.574 332.144 718.574 329.68V322.176H717.23L717.118 323.504C716.622 322.528 715.646 321.952 714.382 321.952C712.11 321.952 710.686 323.68 710.686 325.888ZM712.19 325.856C712.19 324.416 713.086 323.264 714.59 323.264C716.126 323.264 717.022 324.352 717.022 325.856C717.022 327.392 716.094 328.48 714.574 328.48C713.102 328.48 712.19 327.328 712.19 325.856ZM725.855 320.32C726.399 320.32 726.847 319.872 726.847 319.328C726.847 318.768 726.399 318.336 725.855 318.336C725.311 318.336 724.863 318.768 724.863 319.328C724.863 319.872 725.311 320.32 725.855 320.32ZM725.119 330H726.623V322.176H725.119V330ZM731.943 330.192C733.191 330.192 734.247 329.648 734.759 328.576L734.887 330H736.231V318.224H734.743V323.44C734.215 322.48 733.207 321.952 732.007 321.952C729.687 321.952 728.295 323.712 728.295 326.112C728.295 328.496 729.671 330.192 731.943 330.192ZM732.247 328.832C730.711 328.832 729.815 327.68 729.815 326.064C729.815 324.464 730.711 323.312 732.247 323.312C733.783 323.312 734.727 324.464 734.727 326.064C734.727 327.696 733.783 328.832 732.247 328.832ZM741.777 330.192C743.713 330.192 745.025 329.248 745.409 327.568H744.001C743.745 328.464 742.977 328.944 741.809 328.944C740.321 328.944 739.457 328.032 739.345 326.384L745.392 326.368V325.808C745.392 323.488 743.937 321.952 741.713 321.952C739.441 321.952 737.889 323.648 737.889 326.096C737.889 328.528 739.473 330.192 741.777 330.192ZM741.713 323.216C743.041 323.216 743.889 324.08 743.889 325.376H739.377C739.569 324 740.401 323.216 741.713 323.216ZM748.576 330V325.856C748.576 324.336 749.392 323.328 750.8 323.328C751.952 323.328 752.688 323.968 752.688 325.552V330H754.192V325.216C754.192 323.216 753.248 321.952 751.184 321.952C750.08 321.952 749.088 322.48 748.592 323.376L748.432 322.176H747.072V330H748.576ZM758.484 330V323.44H760.02V322.176H758.484V319.728H756.98V322.176H755.444V323.44H756.98V330H758.484ZM762.105 320.32C762.649 320.32 763.097 319.872 763.097 319.328C763.097 318.768 762.649 318.336 762.105 318.336C761.561 318.336 761.113 318.768 761.113 319.328C761.113 319.872 761.561 320.32 762.105 320.32ZM761.369 330H762.873V322.176H761.369V330ZM767.265 330V323.44H768.801V322.176H767.265V319.728H765.761V322.176H764.225V323.44H765.761V330H767.265ZM769.399 333.504C769.799 333.6 770.215 333.664 770.711 333.664C771.911 333.664 772.695 333.104 773.223 331.76L776.919 322.176H775.367L773.047 328.48L770.775 322.176H769.191L772.343 330.416L772.071 331.168C771.703 332.16 771.127 332.272 770.407 332.272H769.399V333.504ZM101.088 355.504H102.592V350.72C103.104 351.68 104.144 352.208 105.392 352.208C107.712 352.208 109.024 350.416 109.024 348.032C109.024 345.632 107.632 343.952 105.392 343.952C104.144 343.952 103.088 344.512 102.56 345.584L102.448 344.176H101.088V355.504ZM102.608 348.096C102.608 346.464 103.536 345.328 105.072 345.328C106.608 345.328 107.52 346.48 107.52 348.096C107.52 349.696 106.608 350.848 105.072 350.848C103.536 350.848 102.608 349.696 102.608 348.096ZM115.162 344.112C114.858 344.048 114.634 344.016 114.362 344.016C113.29 344.016 112.506 344.56 112.186 345.376L112.09 344.192H110.682V352H112.186V347.856C112.186 346.352 113.066 345.488 114.49 345.488H115.162V344.112ZM115.779 348.08C115.779 350.496 117.507 352.192 119.859 352.192C122.195 352.192 123.923 350.496 123.923 348.08C123.923 345.664 122.195 343.968 119.859 343.968C117.507 343.968 115.779 345.664 115.779 348.08ZM117.299 348.08C117.299 346.448 118.339 345.312 119.859 345.312C121.363 345.312 122.419 346.448 122.419 348.08C122.419 349.712 121.363 350.848 119.859 350.848C118.339 350.848 117.299 349.712 117.299 348.08ZM128.724 352.192C129.972 352.192 131.028 351.648 131.54 350.576L131.668 352H133.012V340.224H131.524V345.44C130.996 344.48 129.988 343.952 128.788 343.952C126.468 343.952 125.076 345.712 125.076 348.112C125.076 350.496 126.452 352.192 128.724 352.192ZM129.028 350.832C127.492 350.832 126.596 349.68 126.596 348.064C126.596 346.464 127.492 345.312 129.028 345.312C130.564 345.312 131.508 346.464 131.508 348.064C131.508 349.696 130.564 350.832 129.028 350.832ZM140.59 344.176V348.304C140.59 349.984 139.838 350.864 138.462 350.864C137.31 350.864 136.59 350.224 136.59 348.544V344.176H135.086V349.04C135.086 350.96 136.11 352.192 137.934 352.192C139.086 352.192 140.126 351.632 140.574 350.816L140.734 352H142.078V344.176H140.59ZM143.592 348.096C143.592 350.56 145.112 352.192 147.416 352.192C149.304 352.192 150.76 351.056 151.064 349.36H149.56C149.288 350.288 148.488 350.848 147.416 350.848C145.992 350.848 145.08 349.76 145.08 348.08C145.08 346.384 146.056 345.296 147.48 345.296C148.488 345.296 149.288 345.824 149.544 346.816H151.048C150.776 345.072 149.4 343.952 147.432 343.952C145.144 343.952 143.592 345.648 143.592 348.096ZM154.859 352V345.44H156.395V344.176H154.859V341.728H153.355V344.176H151.819V345.44H153.355V352H154.859ZM157.104 349.728C157.104 351.216 158.272 352.192 160.112 352.192C161.968 352.192 163.248 351.248 163.248 349.76C163.248 348.592 162.592 347.984 161.264 347.664L159.888 347.328C159.12 347.136 158.736 346.784 158.736 346.256C158.736 345.536 159.264 345.12 160.208 345.12C161.12 345.12 161.648 345.616 161.68 346.4H163.12C163.088 344.912 161.968 343.952 160.256 343.952C158.528 343.952 157.312 344.864 157.312 346.304C157.312 347.456 157.968 348.144 159.36 348.48L160.736 348.8C161.552 349.008 161.808 349.328 161.808 349.856C161.808 350.576 161.2 351.008 160.144 351.008C159.152 351.008 158.544 350.528 158.544 349.728H157.104ZM165.942 352.192C166.55 352.192 167.078 351.68 167.078 351.072C167.078 350.448 166.55 349.936 165.942 349.936C165.318 349.936 164.79 350.448 164.79 351.072C164.79 351.68 165.318 352.192 165.942 352.192ZM176.611 347.296V352H178.179V347.296L182.067 340.432H180.355L177.795 345.056C177.587 345.44 177.555 345.536 177.411 345.824C177.283 345.552 177.187 345.328 177.027 345.056L174.451 340.432H172.691L176.611 347.296ZM181.232 348.08C181.232 350.496 182.96 352.192 185.312 352.192C187.648 352.192 189.376 350.496 189.376 348.08C189.376 345.664 187.648 343.968 185.312 343.968C182.96 343.968 181.232 345.664 181.232 348.08ZM182.752 348.08C182.752 346.448 183.792 345.312 185.312 345.312C186.816 345.312 187.872 346.448 187.872 348.08C187.872 349.712 186.816 350.848 185.312 350.848C183.792 350.848 182.752 349.712 182.752 348.08ZM196.262 344.176V348.304C196.262 349.984 195.51 350.864 194.134 350.864C192.982 350.864 192.262 350.224 192.262 348.544V344.176H190.758V349.04C190.758 350.96 191.782 352.192 193.606 352.192C194.758 352.192 195.798 351.632 196.246 350.816L196.406 352H197.75V344.176H196.262ZM203.795 348.096C203.795 350.56 205.315 352.192 207.619 352.192C209.507 352.192 210.963 351.056 211.267 349.36H209.763C209.491 350.288 208.691 350.848 207.619 350.848C206.195 350.848 205.283 349.76 205.283 348.08C205.283 346.384 206.259 345.296 207.683 345.296C208.691 345.296 209.491 345.824 209.747 346.816H211.251C210.979 345.072 209.603 343.952 207.635 343.952C205.347 343.952 203.795 345.648 203.795 348.096ZM215.142 352.192C216.406 352.192 217.478 351.632 217.878 350.736L218.038 352H219.318V347.088C219.318 344.976 218.006 343.952 216.07 343.952C214.054 343.952 212.71 345.024 212.71 346.656H214.022C214.022 345.712 214.742 345.152 216.006 345.152C217.062 345.152 217.846 345.616 217.846 346.928V347.152L215.382 347.344C213.542 347.488 212.47 348.384 212.47 349.824C212.47 351.248 213.462 352.192 215.142 352.192ZM215.574 351.024C214.598 351.024 213.99 350.608 213.99 349.776C213.99 349.008 214.534 348.496 215.862 348.368L217.862 348.208V348.624C217.862 350.096 216.998 351.024 215.574 351.024ZM222.905 352V347.856C222.905 346.336 223.721 345.328 225.129 345.328C226.281 345.328 227.017 345.968 227.017 347.552V352H228.521V347.216C228.521 345.216 227.577 343.952 225.513 343.952C224.409 343.952 223.417 344.48 222.921 345.376L222.761 344.176H221.401V352H222.905ZM237.267 352.192C238.531 352.192 239.603 351.632 240.003 350.736L240.163 352H241.443V347.088C241.443 344.976 240.131 343.952 238.195 343.952C236.179 343.952 234.835 345.024 234.835 346.656H236.147C236.147 345.712 236.867 345.152 238.131 345.152C239.187 345.152 239.971 345.616 239.971 346.928V347.152L237.507 347.344C235.667 347.488 234.595 348.384 234.595 349.824C234.595 351.248 235.587 352.192 237.267 352.192ZM237.699 351.024C236.723 351.024 236.115 350.608 236.115 349.776C236.115 349.008 236.659 348.496 237.987 348.368L239.987 348.208V348.624C239.987 350.096 239.123 351.024 237.699 351.024ZM245.062 352V340.224H243.558V352H245.062ZM246.636 349.728C246.636 351.216 247.804 352.192 249.644 352.192C251.5 352.192 252.78 351.248 252.78 349.76C252.78 348.592 252.124 347.984 250.796 347.664L249.42 347.328C248.652 347.136 248.268 346.784 248.268 346.256C248.268 345.536 248.796 345.12 249.74 345.12C250.652 345.12 251.18 345.616 251.212 346.4H252.652C252.62 344.912 251.5 343.952 249.788 343.952C248.06 343.952 246.844 344.864 246.844 346.304C246.844 347.456 247.5 348.144 248.892 348.48L250.268 348.8C251.084 349.008 251.34 349.328 251.34 349.856C251.34 350.576 250.732 351.008 249.676 351.008C248.684 351.008 248.076 350.528 248.076 349.728H246.636ZM253.935 348.08C253.935 350.496 255.663 352.192 258.015 352.192C260.351 352.192 262.079 350.496 262.079 348.08C262.079 345.664 260.351 343.968 258.015 343.968C255.663 343.968 253.935 345.664 253.935 348.08ZM255.455 348.08C255.455 346.448 256.495 345.312 258.015 345.312C259.519 345.312 260.575 346.448 260.575 348.08C260.575 349.712 259.519 350.848 258.015 350.848C256.495 350.848 255.455 349.712 255.455 348.08ZM267.607 348.096C267.607 350.56 269.127 352.192 271.431 352.192C273.319 352.192 274.775 351.056 275.079 349.36H273.575C273.303 350.288 272.503 350.848 271.431 350.848C270.007 350.848 269.095 349.76 269.095 348.08C269.095 346.384 270.071 345.296 271.495 345.296C272.503 345.296 273.303 345.824 273.559 346.816H275.063C274.791 345.072 273.415 343.952 271.447 343.952C269.159 343.952 267.607 345.648 267.607 348.096ZM276.154 348.08C276.154 350.496 277.882 352.192 280.234 352.192C282.57 352.192 284.298 350.496 284.298 348.08C284.298 345.664 282.57 343.968 280.234 343.968C277.882 343.968 276.154 345.664 276.154 348.08ZM277.674 348.08C277.674 346.448 278.714 345.312 280.234 345.312C281.738 345.312 282.794 346.448 282.794 348.08C282.794 349.712 281.738 350.848 280.234 350.848C278.714 350.848 277.674 349.712 277.674 348.08ZM287.467 352V347.856C287.467 346.336 288.283 345.328 289.691 345.328C290.843 345.328 291.579 345.968 291.579 347.552V352H293.083V347.216C293.083 345.216 292.139 343.952 290.075 343.952C288.971 343.952 287.979 344.48 287.483 345.376L287.323 344.176H285.963V352H287.467ZM297.374 352V345.44H298.91V344.176H297.374V341.728H295.87V344.176H294.334V345.44H295.87V352H297.374ZM302.454 352.192C303.718 352.192 304.79 351.632 305.19 350.736L305.35 352H306.63V347.088C306.63 344.976 305.318 343.952 303.382 343.952C301.366 343.952 300.022 345.024 300.022 346.656H301.334C301.334 345.712 302.054 345.152 303.318 345.152C304.374 345.152 305.158 345.616 305.158 346.928V347.152L302.694 347.344C300.854 347.488 299.782 348.384 299.782 349.824C299.782 351.248 300.774 352.192 302.454 352.192ZM302.886 351.024C301.91 351.024 301.302 350.608 301.302 349.776C301.302 349.008 301.846 348.496 303.174 348.368L305.174 348.208V348.624C305.174 350.096 304.31 351.024 302.886 351.024ZM308.201 348.096C308.201 350.56 309.721 352.192 312.025 352.192C313.913 352.192 315.369 351.056 315.673 349.36H314.169C313.897 350.288 313.097 350.848 312.025 350.848C310.601 350.848 309.689 349.76 309.689 348.08C309.689 346.384 310.665 345.296 312.089 345.296C313.097 345.296 313.897 345.824 314.153 346.816H315.657C315.385 345.072 314.009 343.952 312.041 343.952C309.753 343.952 308.201 345.648 308.201 348.096ZM319.468 352V345.44H321.004V344.176H319.468V341.728H317.964V344.176H316.428V345.44H317.964V352H319.468ZM332.137 344.176V348.304C332.137 349.984 331.385 350.864 330.009 350.864C328.857 350.864 328.137 350.224 328.137 348.544V344.176H326.633V349.04C326.633 350.96 327.657 352.192 329.481 352.192C330.633 352.192 331.673 351.632 332.121 350.816L332.281 352H333.625V344.176H332.137ZM335.011 349.728C335.011 351.216 336.179 352.192 338.019 352.192C339.875 352.192 341.155 351.248 341.155 349.76C341.155 348.592 340.499 347.984 339.171 347.664L337.795 347.328C337.027 347.136 336.643 346.784 336.643 346.256C336.643 345.536 337.171 345.12 338.115 345.12C339.027 345.12 339.555 345.616 339.587 346.4H341.027C340.995 344.912 339.875 343.952 338.163 343.952C336.435 343.952 335.219 344.864 335.219 346.304C335.219 347.456 335.875 348.144 337.267 348.48L338.643 348.8C339.459 349.008 339.715 349.328 339.715 349.856C339.715 350.576 339.107 351.008 338.051 351.008C337.059 351.008 336.451 350.528 336.451 349.728H335.011ZM349.405 352V345.44H350.941V344.176H349.405V341.728H347.901V344.176H346.365V345.44H347.901V352H349.405ZM351.701 348.08C351.701 350.496 353.429 352.192 355.781 352.192C358.117 352.192 359.845 350.496 359.845 348.08C359.845 345.664 358.117 343.968 355.781 343.968C353.429 343.968 351.701 345.664 351.701 348.08ZM353.221 348.08C353.221 346.448 354.261 345.312 355.781 345.312C357.285 345.312 358.341 346.448 358.341 348.08C358.341 349.712 357.285 350.848 355.781 350.848C354.261 350.848 353.221 349.712 353.221 348.08ZM365.885 355.504H367.389V350.72C367.901 351.68 368.941 352.208 370.189 352.208C372.509 352.208 373.821 350.416 373.821 348.032C373.821 345.632 372.429 343.952 370.189 343.952C368.941 343.952 367.885 344.512 367.357 345.584L367.245 344.176H365.885V355.504ZM367.405 348.096C367.405 346.464 368.333 345.328 369.869 345.328C371.405 345.328 372.317 346.48 372.317 348.096C372.317 349.696 371.405 350.848 369.869 350.848C368.333 350.848 367.405 349.696 367.405 348.096ZM379.959 344.112C379.655 344.048 379.431 344.016 379.159 344.016C378.087 344.016 377.303 344.56 376.983 345.376L376.887 344.192H375.479V352H376.983V347.856C376.983 346.352 377.863 345.488 379.287 345.488H379.959V344.112ZM380.576 348.08C380.576 350.496 382.304 352.192 384.656 352.192C386.992 352.192 388.72 350.496 388.72 348.08C388.72 345.664 386.992 343.968 384.656 343.968C382.304 343.968 380.576 345.664 380.576 348.08ZM382.096 348.08C382.096 346.448 383.136 345.312 384.656 345.312C386.16 345.312 387.216 346.448 387.216 348.08C387.216 349.712 386.16 350.848 384.656 350.848C383.136 350.848 382.096 349.712 382.096 348.08ZM392.218 352H393.706L396.97 344.176H395.402L393.658 348.544C393.386 349.232 393.13 349.904 393.002 350.416C392.874 349.936 392.65 349.28 392.378 348.544L390.666 344.176H389.066L392.218 352ZM398.902 342.32C399.446 342.32 399.894 341.872 399.894 341.328C399.894 340.768 399.446 340.336 398.902 340.336C398.358 340.336 397.91 340.768 397.91 341.328C397.91 341.872 398.358 342.32 398.902 342.32ZM398.166 352H399.67V344.176H398.166V352ZM404.99 352.192C406.238 352.192 407.294 351.648 407.806 350.576L407.934 352H409.278V340.224H407.79V345.44C407.262 344.48 406.254 343.952 405.054 343.952C402.734 343.952 401.342 345.712 401.342 348.112C401.342 350.496 402.718 352.192 404.99 352.192ZM405.294 350.832C403.758 350.832 402.862 349.68 402.862 348.064C402.862 346.464 403.758 345.312 405.294 345.312C406.83 345.312 407.774 346.464 407.774 348.064C407.774 349.696 406.83 350.832 405.294 350.832ZM414.823 352.192C416.759 352.192 418.071 351.248 418.455 349.568H417.047C416.791 350.464 416.023 350.944 414.855 350.944C413.367 350.944 412.503 350.032 412.391 348.384L418.439 348.368V347.808C418.439 345.488 416.983 343.952 414.759 343.952C412.487 343.952 410.935 345.648 410.935 348.096C410.935 350.528 412.519 352.192 414.823 352.192ZM414.759 345.216C416.087 345.216 416.935 346.08 416.935 347.376H412.423C412.615 346 413.447 345.216 414.759 345.216ZM423.982 348.096C423.982 350.56 425.502 352.192 427.806 352.192C429.694 352.192 431.15 351.056 431.454 349.36H429.95C429.678 350.288 428.878 350.848 427.806 350.848C426.382 350.848 425.47 349.76 425.47 348.08C425.47 346.384 426.446 345.296 427.87 345.296C428.878 345.296 429.678 345.824 429.934 346.816H431.438C431.166 345.072 429.79 343.952 427.822 343.952C425.534 343.952 423.982 345.648 423.982 348.096ZM432.529 348.08C432.529 350.496 434.257 352.192 436.609 352.192C438.945 352.192 440.673 350.496 440.673 348.08C440.673 345.664 438.945 343.968 436.609 343.968C434.257 343.968 432.529 345.664 432.529 348.08ZM434.049 348.08C434.049 346.448 435.089 345.312 436.609 345.312C438.113 345.312 439.169 346.448 439.169 348.08C439.169 349.712 438.113 350.848 436.609 350.848C435.089 350.848 434.049 349.712 434.049 348.08ZM443.842 352V347.856C443.842 346.336 444.658 345.328 446.066 345.328C447.218 345.328 447.954 345.968 447.954 347.552V352H449.458V347.216C449.458 345.216 448.514 343.952 446.45 343.952C445.346 343.952 444.354 344.48 443.858 345.376L443.698 344.176H442.338V352H443.842ZM450.807 349.728C450.807 351.216 451.975 352.192 453.815 352.192C455.671 352.192 456.951 351.248 456.951 349.76C456.951 348.592 456.295 347.984 454.967 347.664L453.591 347.328C452.823 347.136 452.439 346.784 452.439 346.256C452.439 345.536 452.967 345.12 453.911 345.12C454.823 345.12 455.351 345.616 455.383 346.4H456.823C456.791 344.912 455.671 343.952 453.959 343.952C452.231 343.952 451.015 344.864 451.015 346.304C451.015 347.456 451.671 348.144 453.063 348.48L454.439 348.8C455.255 349.008 455.511 349.328 455.511 349.856C455.511 350.576 454.903 351.008 453.847 351.008C452.855 351.008 452.247 350.528 452.247 349.728H450.807ZM464.027 344.176V348.304C464.027 349.984 463.275 350.864 461.899 350.864C460.747 350.864 460.027 350.224 460.027 348.544V344.176H458.523V349.04C458.523 350.96 459.547 352.192 461.371 352.192C462.523 352.192 463.563 351.632 464.011 350.816L464.171 352H465.515V344.176H464.027ZM469.201 352V347.36C469.201 346.112 469.953 345.328 471.089 345.328C472.145 345.328 472.817 346 472.817 347.232V352H474.305V347.36C474.305 346.112 475.057 345.312 476.193 345.312C477.249 345.312 477.937 346.016 477.937 347.248V352H479.409V346.88C479.409 345.072 478.321 343.952 476.529 343.952C475.313 343.952 474.369 344.56 474.001 345.536C473.601 344.56 472.737 343.952 471.521 343.952C470.417 343.952 469.585 344.464 469.185 345.2L469.041 344.176H467.697V352H469.201ZM484.87 352.192C486.806 352.192 488.118 351.248 488.502 349.568H487.094C486.838 350.464 486.07 350.944 484.902 350.944C483.414 350.944 482.55 350.032 482.438 348.384L488.486 348.368V347.808C488.486 345.488 487.03 343.952 484.806 343.952C482.534 343.952 480.982 345.648 480.982 348.096C480.982 350.528 482.566 352.192 484.87 352.192ZM484.806 345.216C486.134 345.216 486.982 346.08 486.982 347.376H482.47C482.662 346 483.494 345.216 484.806 345.216ZM494.646 344.112C494.342 344.048 494.118 344.016 493.846 344.016C492.774 344.016 491.99 344.56 491.67 345.376L491.574 344.192H490.166V352H491.67V347.856C491.67 346.352 492.55 345.488 493.974 345.488H494.646V344.112ZM501.168 342.32C501.712 342.32 502.16 341.872 502.16 341.328C502.16 340.768 501.712 340.336 501.168 340.336C500.624 340.336 500.176 340.768 500.176 341.328C500.176 341.872 500.624 342.32 501.168 342.32ZM500.432 352H501.936V344.176H500.432V352ZM505.623 352V347.856C505.623 346.336 506.439 345.328 507.847 345.328C508.999 345.328 509.735 345.968 509.735 347.552V352H511.239V347.216C511.239 345.216 510.295 343.952 508.231 343.952C507.127 343.952 506.135 344.48 505.639 345.376L505.479 344.176H504.119V352H505.623ZM515.53 352V345.44H517.066V344.176H515.53V341.728H514.026V344.176H512.49V345.44H514.026V352H515.53ZM521.714 352.192C523.65 352.192 524.962 351.248 525.346 349.568H523.938C523.682 350.464 522.914 350.944 521.746 350.944C520.258 350.944 519.394 350.032 519.282 348.384L525.33 348.368V347.808C525.33 345.488 523.874 343.952 521.65 343.952C519.378 343.952 517.826 345.648 517.826 348.096C517.826 350.528 519.41 352.192 521.714 352.192ZM521.65 345.216C522.978 345.216 523.826 346.08 523.826 347.376H519.314C519.506 346 520.338 345.216 521.65 345.216ZM528.546 352V340.224H527.042V352H528.546ZM532.296 352V340.224H530.792V352H532.296ZM535.246 342.32C535.79 342.32 536.238 341.872 536.238 341.328C536.238 340.768 535.79 340.336 535.246 340.336C534.702 340.336 534.254 340.768 534.254 341.328C534.254 341.872 534.702 342.32 535.246 342.32ZM534.51 352H536.014V344.176H534.51V352ZM537.701 347.888C537.701 350.08 539.109 351.792 541.333 351.792C542.565 351.792 543.589 351.248 544.101 350.336V351.904C544.101 353.392 543.141 354.352 541.669 354.352C540.357 354.352 539.493 353.68 539.301 352.528H537.797C538.085 354.512 539.541 355.712 541.669 355.712C544.069 355.712 545.589 354.144 545.589 351.68V344.176H544.245L544.133 345.504C543.637 344.528 542.661 343.952 541.397 343.952C539.125 343.952 537.701 345.68 537.701 347.888ZM539.205 347.856C539.205 346.416 540.101 345.264 541.605 345.264C543.141 345.264 544.037 346.352 544.037 347.856C544.037 349.392 543.109 350.48 541.589 350.48C540.117 350.48 539.205 349.328 539.205 347.856ZM551.136 352.192C553.072 352.192 554.384 351.248 554.768 349.568H553.36C553.104 350.464 552.336 350.944 551.168 350.944C549.68 350.944 548.816 350.032 548.704 348.384L554.752 348.368V347.808C554.752 345.488 553.296 343.952 551.072 343.952C548.8 343.952 547.248 345.648 547.248 348.096C547.248 350.528 548.832 352.192 551.136 352.192ZM551.072 345.216C552.4 345.216 553.248 346.08 553.248 347.376H548.736C548.928 346 549.76 345.216 551.072 345.216ZM557.936 352V347.856C557.936 346.336 558.752 345.328 560.16 345.328C561.312 345.328 562.048 345.968 562.048 347.552V352H563.552V347.216C563.552 345.216 562.608 343.952 560.544 343.952C559.44 343.952 558.448 344.48 557.952 345.376L557.792 344.176H556.432V352H557.936ZM565.123 348.096C565.123 350.56 566.643 352.192 568.947 352.192C570.835 352.192 572.291 351.056 572.595 349.36H571.091C570.819 350.288 570.019 350.848 568.947 350.848C567.523 350.848 566.611 349.76 566.611 348.08C566.611 346.384 567.587 345.296 569.011 345.296C570.019 345.296 570.819 345.824 571.075 346.816H572.579C572.307 345.072 570.931 343.952 568.963 343.952C566.675 343.952 565.123 345.648 565.123 348.096ZM577.558 352.192C579.494 352.192 580.806 351.248 581.19 349.568H579.782C579.526 350.464 578.758 350.944 577.59 350.944C576.102 350.944 575.238 350.032 575.126 348.384L581.174 348.368V347.808C581.174 345.488 579.718 343.952 577.494 343.952C575.222 343.952 573.67 345.648 573.67 348.096C573.67 350.528 575.254 352.192 577.558 352.192ZM577.494 345.216C578.822 345.216 579.67 346.08 579.67 347.376H575.158C575.35 346 576.182 345.216 577.494 345.216ZM586.589 349.728C586.589 351.216 587.757 352.192 589.597 352.192C591.453 352.192 592.733 351.248 592.733 349.76C592.733 348.592 592.077 347.984 590.749 347.664L589.373 347.328C588.605 347.136 588.221 346.784 588.221 346.256C588.221 345.536 588.749 345.12 589.693 345.12C590.605 345.12 591.133 345.616 591.165 346.4H592.605C592.573 344.912 591.453 343.952 589.741 343.952C588.013 343.952 586.797 344.864 586.797 346.304C586.797 347.456 587.453 348.144 588.845 348.48L590.221 348.8C591.037 349.008 591.293 349.328 591.293 349.856C591.293 350.576 590.685 351.008 589.629 351.008C588.637 351.008 588.029 350.528 588.029 349.728H586.589ZM593.889 348.08C593.889 350.496 595.617 352.192 597.969 352.192C600.305 352.192 602.033 350.496 602.033 348.08C602.033 345.664 600.305 343.968 597.969 343.968C595.617 343.968 593.889 345.664 593.889 348.08ZM595.409 348.08C595.409 346.448 596.449 345.312 597.969 345.312C599.473 345.312 600.529 346.448 600.529 348.08C600.529 349.712 599.473 350.848 597.969 350.848C596.449 350.848 595.409 349.712 595.409 348.08ZM605.233 352V340.224H603.729V352H605.233ZM612.855 344.176V348.304C612.855 349.984 612.103 350.864 610.727 350.864C609.575 350.864 608.855 350.224 608.855 348.544V344.176H607.351V349.04C607.351 350.96 608.375 352.192 610.199 352.192C611.351 352.192 612.391 351.632 612.839 350.816L612.999 352H614.343V344.176H612.855ZM618.734 352V345.44H620.27V344.176H618.734V341.728H617.23V344.176H615.694V345.44H617.23V352H618.734ZM622.355 342.32C622.899 342.32 623.347 341.872 623.347 341.328C623.347 340.768 622.899 340.336 622.355 340.336C621.811 340.336 621.363 340.768 621.363 341.328C621.363 341.872 621.811 342.32 622.355 342.32ZM621.619 352H623.123V344.176H621.619V352ZM624.795 348.08C624.795 350.496 626.523 352.192 628.875 352.192C631.211 352.192 632.939 350.496 632.939 348.08C632.939 345.664 631.211 343.968 628.875 343.968C626.523 343.968 624.795 345.664 624.795 348.08ZM626.315 348.08C626.315 346.448 627.355 345.312 628.875 345.312C630.379 345.312 631.435 346.448 631.435 348.08C631.435 349.712 630.379 350.848 628.875 350.848C627.355 350.848 626.315 349.712 626.315 348.08ZM636.108 352V347.856C636.108 346.336 636.924 345.328 638.332 345.328C639.484 345.328 640.22 345.968 640.22 347.552V352H641.724V347.216C641.724 345.216 640.78 343.952 638.716 343.952C637.612 343.952 636.62 344.48 636.124 345.376L635.964 344.176H634.604V352H636.108ZM647.35 344.176V345.44H648.502V352H650.006V345.44H651.862V344.176H650.006V342.928C650.006 342.08 650.262 341.584 651.238 341.584H651.91V340.288C651.606 340.24 651.27 340.224 650.982 340.224C649.558 340.224 648.502 341.008 648.502 342.928V344.176H647.35ZM652.514 348.08C652.514 350.496 654.242 352.192 656.594 352.192C658.93 352.192 660.658 350.496 660.658 348.08C660.658 345.664 658.93 343.968 656.594 343.968C654.242 343.968 652.514 345.664 652.514 348.08ZM654.034 348.08C654.034 346.448 655.074 345.312 656.594 345.312C658.098 345.312 659.154 346.448 659.154 348.08C659.154 349.712 658.098 350.848 656.594 350.848C655.074 350.848 654.034 349.712 654.034 348.08ZM666.802 344.112C666.498 344.048 666.274 344.016 666.002 344.016C664.93 344.016 664.146 344.56 663.826 345.376L663.73 344.192H662.322V352H663.826V347.856C663.826 346.352 664.706 345.488 666.13 345.488H666.802V344.112ZM671.836 355.504C672.236 355.6 672.652 355.664 673.148 355.664C674.348 355.664 675.132 355.104 675.66 353.76L679.356 344.176H677.804L675.484 350.48L673.212 344.176H671.628L674.78 352.416L674.508 353.168C674.14 354.16 673.564 354.272 672.844 354.272H671.836V355.504ZM679.748 348.08C679.748 350.496 681.476 352.192 683.828 352.192C686.164 352.192 687.892 350.496 687.892 348.08C687.892 345.664 686.164 343.968 683.828 343.968C681.476 343.968 679.748 345.664 679.748 348.08ZM681.268 348.08C681.268 346.448 682.308 345.312 683.828 345.312C685.332 345.312 686.388 346.448 686.388 348.08C686.388 349.712 685.332 350.848 683.828 350.848C682.308 350.848 681.268 349.712 681.268 348.08ZM694.777 344.176V348.304C694.777 349.984 694.025 350.864 692.649 350.864C691.497 350.864 690.777 350.224 690.777 348.544V344.176H689.273V349.04C689.273 350.96 690.297 352.192 692.121 352.192C693.273 352.192 694.313 351.632 694.761 350.816L694.921 352H696.265V344.176H694.777ZM702.927 344.112C702.623 344.048 702.399 344.016 702.127 344.016C701.055 344.016 700.271 344.56 699.951 345.376L699.855 344.192H698.447V352H699.951V347.856C699.951 346.352 700.831 345.488 702.255 345.488H702.927V344.112ZM710.073 352L710.185 350.576C710.697 351.648 711.737 352.192 712.969 352.192C715.241 352.192 716.649 350.496 716.649 348.128C716.649 345.712 715.305 343.952 713.065 343.952C711.785 343.952 710.729 344.496 710.217 345.52V340.224H708.713V352H710.073ZM710.233 348.064C710.233 346.464 711.161 345.312 712.697 345.312C714.233 345.312 715.145 346.464 715.145 348.064C715.145 349.68 714.233 350.832 712.697 350.832C711.161 350.832 710.233 349.696 710.233 348.064ZM723.527 344.176V348.304C723.527 349.984 722.775 350.864 721.399 350.864C720.247 350.864 719.527 350.224 719.527 348.544V344.176H718.023V349.04C718.023 350.96 719.047 352.192 720.871 352.192C722.023 352.192 723.063 351.632 723.511 350.816L723.671 352H725.015V344.176H723.527ZM726.401 349.728C726.401 351.216 727.569 352.192 729.409 352.192C731.265 352.192 732.545 351.248 732.545 349.76C732.545 348.592 731.889 347.984 730.561 347.664L729.185 347.328C728.417 347.136 728.033 346.784 728.033 346.256C728.033 345.536 728.561 345.12 729.505 345.12C730.417 345.12 730.945 345.616 730.977 346.4H732.417C732.385 344.912 731.265 343.952 729.553 343.952C727.825 343.952 726.609 344.864 726.609 346.304C726.609 347.456 727.265 348.144 728.657 348.48L730.033 348.8C730.849 349.008 731.105 349.328 731.105 349.856C731.105 350.576 730.497 351.008 729.441 351.008C728.449 351.008 727.841 350.528 727.841 349.728H726.401ZM734.949 342.32C735.493 342.32 735.941 341.872 735.941 341.328C735.941 340.768 735.493 340.336 734.949 340.336C734.405 340.336 733.957 340.768 733.957 341.328C733.957 341.872 734.405 342.32 734.949 342.32ZM734.213 352H735.717V344.176H734.213V352ZM739.405 352V347.856C739.405 346.336 740.221 345.328 741.629 345.328C742.781 345.328 743.517 345.968 743.517 347.552V352H745.021V347.216C745.021 345.216 744.077 343.952 742.013 343.952C740.909 343.952 739.917 344.48 739.421 345.376L739.261 344.176H737.901V352H739.405ZM750.48 352.192C752.416 352.192 753.728 351.248 754.112 349.568H752.704C752.448 350.464 751.68 350.944 750.512 350.944C749.024 350.944 748.16 350.032 748.048 348.384L754.096 348.368V347.808C754.096 345.488 752.64 343.952 750.416 343.952C748.144 343.952 746.592 345.648 746.592 348.096C746.592 350.528 748.176 352.192 750.48 352.192ZM750.416 345.216C751.744 345.216 752.592 346.08 752.592 347.376H748.08C748.272 346 749.104 345.216 750.416 345.216ZM755.136 349.728C755.136 351.216 756.304 352.192 758.144 352.192C760 352.192 761.28 351.248 761.28 349.76C761.28 348.592 760.624 347.984 759.296 347.664L757.92 347.328C757.152 347.136 756.768 346.784 756.768 346.256C756.768 345.536 757.296 345.12 758.24 345.12C759.152 345.12 759.68 345.616 759.712 346.4H761.152C761.12 344.912 760 343.952 758.288 343.952C756.56 343.952 755.344 344.864 755.344 346.304C755.344 347.456 756 348.144 757.392 348.48L758.768 348.8C759.584 349.008 759.84 349.328 759.84 349.856C759.84 350.576 759.232 351.008 758.176 351.008C757.184 351.008 756.576 350.528 756.576 349.728H755.136ZM762.307 349.728C762.307 351.216 763.475 352.192 765.315 352.192C767.171 352.192 768.451 351.248 768.451 349.76C768.451 348.592 767.795 347.984 766.467 347.664L765.091 347.328C764.323 347.136 763.939 346.784 763.939 346.256C763.939 345.536 764.467 345.12 765.411 345.12C766.323 345.12 766.851 345.616 766.883 346.4H768.323C768.291 344.912 767.171 343.952 765.459 343.952C763.731 343.952 762.515 344.864 762.515 346.304C762.515 347.456 763.171 348.144 764.563 348.48L765.939 348.8C766.755 349.008 767.011 349.328 767.011 349.856C767.011 350.576 766.403 351.008 765.347 351.008C764.355 351.008 763.747 350.528 763.747 349.728H762.307ZM771.146 352.192C771.754 352.192 772.282 351.68 772.282 351.072C772.282 350.448 771.754 349.936 771.146 349.936C770.522 349.936 769.993 350.448 769.993 351.072C769.993 351.68 770.522 352.192 771.146 352.192Z" fill="#E7F6FE"/>
<rect x="939" y="230.5" width="193" height="64" rx="16" fill="#46F7AD"/>
<path d="M983.262 268.5V264.356H985.262L987.038 268.5H989.87L987.79 263.796C989.102 263.124 989.758 262.036 989.758 260.5C989.758 258.052 988.126 256.66 985.246 256.66H980.67V268.5H983.262ZM983.262 258.964H985.246C986.398 258.964 987.022 259.508 987.022 260.5C987.022 261.508 986.366 262.084 985.23 262.084H983.262V258.964ZM994.531 268.708C996.723 268.708 998.307 267.572 998.595 265.796H996.339C996.163 266.372 995.507 266.708 994.579 266.708C993.491 266.708 992.899 266.212 992.755 265.156L998.563 265.124V264.5C998.563 261.892 996.995 260.244 994.483 260.244C992.067 260.244 990.387 261.988 990.387 264.484C990.387 266.948 992.115 268.708 994.531 268.708ZM994.499 262.244C995.491 262.244 996.115 262.788 996.115 263.636H992.787C992.979 262.676 993.523 262.244 994.499 262.244ZM999.59 264.372C999.59 266.9 1000.97 268.724 1003.35 268.724C1004.45 268.724 1005.48 268.308 1005.94 267.7V272.34H1008.41V260.5H1006.09L1005.96 261.476C1005.51 260.74 1004.5 260.244 1003.37 260.244C1001.14 260.244 999.59 261.796 999.59 264.372ZM1002.07 264.5C1002.07 263.316 1002.81 262.5 1003.97 262.5C1005.13 262.5 1005.93 263.3 1005.93 264.5C1005.93 265.7 1005.13 266.5 1003.97 266.5C1002.81 266.5 1002.07 265.684 1002.07 264.5ZM1015.57 260.5V264.66C1015.57 265.972 1015.14 266.516 1014.08 266.516C1013.07 266.516 1012.62 265.94 1012.62 264.628V260.5H1010.16V265.524C1010.16 267.492 1011.28 268.708 1013.1 268.708C1014.06 268.708 1015.06 268.26 1015.55 267.604L1015.71 268.5H1018.03V260.5H1015.57ZM1023.44 268.708C1025.63 268.708 1027.21 267.572 1027.5 265.796H1025.24C1025.07 266.372 1024.41 266.708 1023.48 266.708C1022.4 266.708 1021.8 266.212 1021.66 265.156L1027.47 265.124V264.5C1027.47 261.892 1025.9 260.244 1023.39 260.244C1020.97 260.244 1019.29 261.988 1019.29 264.484C1019.29 266.948 1021.02 268.708 1023.44 268.708ZM1023.4 262.244C1024.4 262.244 1025.02 262.788 1025.02 263.636H1021.69C1021.88 262.676 1022.43 262.244 1023.4 262.244ZM1028.35 265.972C1028.35 267.588 1029.68 268.708 1031.79 268.708C1033.87 268.708 1035.33 267.668 1035.33 265.956C1035.33 264.676 1034.61 264.068 1033.3 263.78L1031.81 263.46C1031.25 263.332 1030.94 263.124 1030.94 262.756C1030.94 262.324 1031.3 262.036 1031.86 262.036C1032.45 262.036 1032.78 262.404 1032.78 262.948H1035.12C1035.12 261.332 1033.82 260.244 1031.97 260.244C1030.05 260.244 1028.62 261.204 1028.62 262.868C1028.62 264.276 1029.34 264.916 1030.82 265.236L1032.29 265.556C1032.88 265.684 1033.01 265.94 1033.01 266.18C1033.01 266.596 1032.66 266.868 1031.89 266.868C1031.14 266.868 1030.72 266.532 1030.69 265.972H1028.35ZM1039.85 268.5V262.548H1041.37V260.5H1039.85V258.02H1037.38V260.5H1035.86V262.548H1037.38V268.5H1039.85ZM1051.65 268.5C1055.03 268.5 1057.38 266.068 1057.38 262.612C1057.38 259.092 1054.97 256.66 1051.49 256.66H1047.01V268.5H1051.65ZM1051.24 259.06C1053.38 259.06 1054.65 260.372 1054.65 262.612C1054.65 264.804 1053.45 266.1 1051.4 266.1H1049.61V259.06H1051.24ZM1062.59 268.708C1064.79 268.708 1066.37 267.572 1066.66 265.796H1064.4C1064.23 266.372 1063.57 266.708 1062.64 266.708C1061.55 266.708 1060.96 266.212 1060.82 265.156L1066.63 265.124V264.5C1066.63 261.892 1065.06 260.244 1062.55 260.244C1060.13 260.244 1058.45 261.988 1058.45 264.484C1058.45 266.948 1060.18 268.708 1062.59 268.708ZM1062.56 262.244C1063.55 262.244 1064.18 262.788 1064.18 263.636H1060.85C1061.04 262.676 1061.59 262.244 1062.56 262.244ZM1070.55 268.5V264.212C1070.55 262.868 1071.27 262.484 1071.97 262.484C1072.76 262.484 1073.27 262.964 1073.27 263.956V268.5H1075.73V264.212C1075.73 262.852 1076.44 262.468 1077.14 262.468C1077.92 262.468 1078.45 262.948 1078.45 263.956V268.5H1080.92V263.268C1080.92 261.444 1079.89 260.244 1077.83 260.244C1076.68 260.244 1075.73 260.804 1075.32 261.652C1074.85 260.804 1074.08 260.244 1072.88 260.244C1071.73 260.244 1070.95 260.772 1070.55 261.332L1070.39 260.5H1068.08V268.5H1070.55ZM1082.25 264.484C1082.25 267.012 1084.1 268.692 1086.66 268.692C1089.21 268.692 1091.06 267.012 1091.06 264.484C1091.06 261.956 1089.21 260.26 1086.66 260.26C1084.1 260.26 1082.25 261.956 1082.25 264.484ZM1084.73 264.468C1084.73 263.268 1085.51 262.468 1086.66 262.468C1087.8 262.468 1088.58 263.268 1088.58 264.468C1088.58 265.684 1087.8 266.484 1086.66 266.484C1085.51 266.484 1084.73 265.684 1084.73 264.468Z" fill="#153853"/>
<path d="M1222.62 259.06H1225.98V268.5H1228.57V259.06H1231.93V256.66H1222.62V259.06ZM1234.16 268.708C1235.36 268.708 1236.41 268.18 1236.67 267.444L1236.83 268.5H1239V263.828C1239 261.54 1237.69 260.244 1235.37 260.244C1233.08 260.244 1231.6 261.428 1231.6 263.236H1233.64C1233.64 262.516 1234.2 262.116 1235.24 262.116C1236.12 262.116 1236.6 262.532 1236.6 263.316V263.444L1234.36 263.62C1232.44 263.764 1231.4 264.676 1231.4 266.148C1231.4 267.716 1232.46 268.708 1234.16 268.708ZM1235.02 266.884C1234.27 266.884 1233.92 266.612 1233.92 266.036C1233.92 265.524 1234.3 265.284 1235.37 265.188L1236.62 265.076V265.508C1236.62 266.42 1235.96 266.884 1235.02 266.884ZM1243.24 268.5V256.436H1240.77V268.5H1243.24ZM1247.55 268.5V266.5L1248.49 265.508L1250.28 268.5H1253.13L1250.22 263.668L1253.23 260.5H1250.14L1247.55 263.38V256.436H1245.08V268.5H1247.55ZM1257.87 259.06H1261.23V268.5H1263.82V259.06H1267.18V256.66H1257.87V259.06ZM1266.56 264.484C1266.56 267.012 1268.41 268.692 1270.97 268.692C1273.52 268.692 1275.37 267.012 1275.37 264.484C1275.37 261.956 1273.52 260.26 1270.97 260.26C1268.41 260.26 1266.56 261.956 1266.56 264.484ZM1269.04 264.468C1269.04 263.268 1269.82 262.468 1270.97 262.468C1272.11 262.468 1272.89 263.268 1272.89 264.468C1272.89 265.684 1272.11 266.484 1270.97 266.484C1269.82 266.484 1269.04 265.684 1269.04 264.468ZM1281.26 264.052C1281.26 266.884 1283.17 268.692 1286.13 268.692C1289.1 268.692 1291.02 266.868 1291.02 264.052V256.66H1288.43V263.876C1288.43 265.332 1287.6 266.18 1286.13 266.18C1284.67 266.18 1283.85 265.364 1283.85 263.876V256.66H1281.26V264.052ZM1292.37 265.972C1292.37 267.588 1293.7 268.708 1295.81 268.708C1297.89 268.708 1299.34 267.668 1299.34 265.956C1299.34 264.676 1298.62 264.068 1297.31 263.78L1295.82 263.46C1295.26 263.332 1294.96 263.124 1294.96 262.756C1294.96 262.324 1295.31 262.036 1295.87 262.036C1296.46 262.036 1296.8 262.404 1296.8 262.948H1299.14C1299.14 261.332 1297.84 260.244 1295.98 260.244C1294.06 260.244 1292.64 261.204 1292.64 262.868C1292.64 264.276 1293.36 264.916 1294.83 265.236L1296.3 265.556C1296.9 265.684 1297.02 265.94 1297.02 266.18C1297.02 266.596 1296.67 266.868 1295.9 266.868C1295.15 266.868 1294.74 266.532 1294.7 265.972H1292.37Z" fill="white"/>
<rect x="1182.5" y="231" width="157" height="63" rx="15.5" stroke="white"/>
</g>
<defs>
<clipPath id="clip0_450_1528">
<rect width="1440" height="525" fill="white"/>
</clipPath>
</defs>
</svg>
