<svg width="29" height="28" viewBox="0 0 29 28" fill="none" xmlns="http://www.w3.org/2000/svg">
<rect x="0.96167" y="0.25" width="26.9874" height="26.9874" rx="4.75" stroke="#EEF9F8" stroke-width="0.5"/>
<path d="M14.4596 11.9146C13.4501 11.9146 12.6264 12.7384 12.6264 13.7478C12.6264 14.7573 13.4501 15.581 14.4596 15.581C15.469 15.581 16.2928 14.7573 16.2928 13.7478C16.2928 12.7384 15.469 11.9146 14.4596 11.9146ZM19.9579 13.7478C19.9579 12.9887 19.9648 12.2364 19.9221 11.4786C19.8795 10.5985 19.6787 9.81732 19.0351 9.1737C18.3901 8.5287 17.6103 8.32929 16.7301 8.28665C15.971 8.24402 15.2187 8.2509 14.461 8.2509C13.7018 8.2509 12.9495 8.24402 12.1918 8.28665C11.3116 8.32929 10.5305 8.53008 9.88683 9.1737C9.24184 9.8187 9.04242 10.5985 8.99979 11.4786C8.95716 12.2378 8.96403 12.9901 8.96403 13.7478C8.96403 14.5056 8.95716 15.2592 8.99979 16.017C9.04242 16.8972 9.24321 17.6783 9.88683 18.3219C10.5318 18.9669 11.3116 19.1664 12.1918 19.209C12.9509 19.2516 13.7032 19.2448 14.461 19.2448C15.2201 19.2448 15.9724 19.2516 16.7301 19.209C17.6103 19.1664 18.3915 18.9656 19.0351 18.3219C19.6801 17.677 19.8795 16.8972 19.9221 16.017C19.9661 15.2592 19.9579 14.507 19.9579 13.7478ZM14.4596 16.5685C12.8987 16.5685 11.6389 15.3087 11.6389 13.7478C11.6389 12.1869 12.8987 10.9272 14.4596 10.9272C16.0205 10.9272 17.2802 12.1869 17.2802 13.7478C17.2802 15.3087 16.0205 16.5685 14.4596 16.5685ZM17.3958 11.4704C17.0313 11.4704 16.737 11.1761 16.737 10.8116C16.737 10.4472 17.0313 10.1529 17.3958 10.1529C17.7602 10.1529 18.0545 10.4472 18.0545 10.8116C18.0546 10.8982 18.0377 10.9839 18.0046 11.0639C17.9715 11.1438 17.923 11.2165 17.8618 11.2777C17.8006 11.3389 17.728 11.3874 17.648 11.4205C17.568 11.4535 17.4823 11.4705 17.3958 11.4704Z" fill="white"/>
</svg>
