<svg width="29" height="28" viewBox="0 0 29 28" fill="none" xmlns="http://www.w3.org/2000/svg">
<rect x="0.90918" y="0.25" width="26.9874" height="26.9874" rx="4.75" stroke="#EEF9F8" stroke-width="0.5"/>
<path d="M11.0282 19.2339V10.5794H8.15165V19.2339H11.0282ZM9.5903 9.39709C10.5934 9.39709 11.2178 8.73254 11.2178 7.90206C11.1991 7.05285 10.5934 6.40674 9.60933 6.40674C8.62538 6.40674 7.98193 7.05286 7.98193 7.90206C7.98193 8.73257 8.60616 9.39709 9.57152 9.39709H9.59021H9.5903ZM12.6204 19.2339H15.4969V14.4008C15.4969 14.1421 15.5156 13.8837 15.5916 13.6988C15.7995 13.1821 16.2728 12.6468 17.0675 12.6468C18.1084 12.6468 18.5248 13.4404 18.5248 14.6039V19.2338H21.4012V14.2714C21.4012 11.6131 19.982 10.3762 18.0894 10.3762C16.5376 10.3762 15.8563 11.2436 15.4778 11.8344H15.497V10.5792H12.6204C12.6582 11.3913 12.6204 19.2337 12.6204 19.2337L12.6204 19.2339Z" fill="white"/>
</svg>
