<svg width="622" height="561" viewBox="0 0 622 561" fill="none" xmlns="http://www.w3.org/2000/svg">
<path d="M594 288.5C594 438.998 471.998 561 321.5 561C171.002 561 49 438.998 49 288.5C49 138.002 171.002 16 321.5 16C471.998 16 594 138.002 594 288.5ZM117.125 288.5C117.125 401.373 208.627 492.875 321.5 492.875C434.373 492.875 525.875 401.373 525.875 288.5C525.875 175.627 434.373 84.125 321.5 84.125C208.627 84.125 117.125 175.627 117.125 288.5Z" fill="#FAFAFA"/>
<g filter="url(#filter0_d_353_14073)">
<rect x="12" y="129" width="150" height="150" rx="20" fill="#05596B"/>
</g>
<rect width="92" height="102" transform="translate(41 153)" fill="#05596B"/>
<path d="M80.2 190.928V185.528H70.48L74.476 182.18C77.788 179.408 79.984 176.456 79.984 172.82C79.984 167.132 76.348 163.856 70.264 163.856C64.396 163.856 60.58 167.744 60.58 173.72H66.376C66.376 170.732 67.816 169.04 70.3 169.04C72.676 169.04 74.008 170.48 74.008 173.18C74.008 175.376 72.82 177.032 69.976 179.372L61.192 186.68V191L80.2 190.928ZM84.1769 176.564V181.172H90.8729V187.904H95.4809V181.172H102.177V176.564H95.4809V169.868H90.8729V176.564H84.1769Z" fill="white"/>
<path d="M53.8578 221.12V227H55.8178V221.12L60.6778 212.54H58.5378L55.3378 218.32C55.0778 218.8 55.0378 218.92 54.8578 219.28C54.6978 218.94 54.5778 218.66 54.3778 218.32L51.1578 212.54H48.9578L53.8578 221.12ZM64.4941 227.24C66.9141 227.24 68.5541 226.06 69.0341 223.96H67.2741C66.9541 225.08 65.9941 225.68 64.5341 225.68C62.6741 225.68 61.5941 224.54 61.4541 222.48L69.0141 222.46V221.76C69.0141 218.86 67.1941 216.94 64.4141 216.94C61.5741 216.94 59.6341 219.06 59.6341 222.12C59.6341 225.16 61.6141 227.24 64.4941 227.24ZM64.4141 218.52C66.0741 218.52 67.1341 219.6 67.1341 221.22H61.4941C61.7341 219.5 62.7741 218.52 64.4141 218.52ZM73.8763 227.24C75.4563 227.24 76.7963 226.54 77.2963 225.42L77.4963 227H79.0963V220.86C79.0963 218.22 77.4563 216.94 75.0363 216.94C72.5163 216.94 70.8363 218.28 70.8363 220.32H72.4763C72.4763 219.14 73.3763 218.44 74.9563 218.44C76.2763 218.44 77.2563 219.02 77.2563 220.66V220.94L74.1763 221.18C71.8763 221.36 70.5363 222.48 70.5363 224.28C70.5363 226.06 71.7763 227.24 73.8763 227.24ZM74.4163 225.78C73.1963 225.78 72.4363 225.26 72.4363 224.22C72.4363 223.26 73.1163 222.62 74.7763 222.46L77.2763 222.26V222.78C77.2763 224.62 76.1963 225.78 74.4163 225.78ZM87.2998 217.14C86.9198 217.06 86.6398 217.02 86.2998 217.02C84.9598 217.02 83.9798 217.7 83.5798 218.72L83.4598 217.24H81.6998V227H83.5798V221.82C83.5798 219.94 84.6798 218.86 86.4598 218.86H87.2998V217.14ZM88.2631 224.16C88.2631 226.02 89.7231 227.24 92.0231 227.24C94.3431 227.24 95.9431 226.06 95.9431 224.2C95.9431 222.74 95.1231 221.98 93.4631 221.58L91.7431 221.16C90.7831 220.92 90.3031 220.48 90.3031 219.82C90.3031 218.92 90.9631 218.4 92.1431 218.4C93.2831 218.4 93.9431 219.02 93.9831 220H95.7831C95.7431 218.14 94.3431 216.94 92.2031 216.94C90.0431 216.94 88.5231 218.08 88.5231 219.88C88.5231 221.32 89.3431 222.18 91.0831 222.6L92.8031 223C93.8231 223.26 94.1431 223.66 94.1431 224.32C94.1431 225.22 93.3831 225.76 92.0631 225.76C90.8231 225.76 90.0631 225.16 90.0631 224.16H88.2631ZM102.857 222.1C102.857 225.12 105.017 227.24 107.957 227.24C110.877 227.24 113.037 225.12 113.037 222.1C113.037 219.08 110.877 216.96 107.957 216.96C105.017 216.96 102.857 219.08 102.857 222.1ZM104.757 222.1C104.757 220.06 106.057 218.64 107.957 218.64C109.837 218.64 111.157 220.06 111.157 222.1C111.157 224.14 109.837 225.56 107.957 225.56C106.057 225.56 104.757 224.14 104.757 222.1ZM114.019 217.22V218.8H115.459V227H117.339V218.8H119.659V217.22H117.339V215.66C117.339 214.6 117.659 213.98 118.879 213.98H119.719V212.36C119.339 212.3 118.919 212.28 118.559 212.28C116.779 212.28 115.459 213.26 115.459 215.66V217.22H114.019ZM56.1621 251V249.18H49.3021V244.6H55.4821V242.86H49.3021V238.34H56.1621V236.54H47.3421V251H56.1621ZM59.6823 251L62.0823 247.42L64.5223 251H66.7023L63.3623 246.16L66.7623 241.22H64.6223L62.2023 244.86L59.7223 241.22H57.5423L60.9423 246.16L57.5223 251H59.6823ZM68.3307 255.38H70.2107V249.4C70.8507 250.6 72.1507 251.26 73.7107 251.26C76.6107 251.26 78.2507 249.02 78.2507 246.04C78.2507 243.04 76.5107 240.94 73.7107 240.94C72.1507 240.94 70.8307 241.64 70.1707 242.98L70.0307 241.22H68.3307V255.38ZM70.2307 246.12C70.2307 244.08 71.3907 242.66 73.3107 242.66C75.2307 242.66 76.3707 244.1 76.3707 246.12C76.3707 248.12 75.2307 249.56 73.3107 249.56C71.3907 249.56 70.2307 248.12 70.2307 246.12ZM84.5429 251.24C86.9629 251.24 88.6029 250.06 89.0829 247.96H87.3229C87.0029 249.08 86.0429 249.68 84.5829 249.68C82.7229 249.68 81.6429 248.54 81.5029 246.48L89.0629 246.46V245.76C89.0629 242.86 87.2429 240.94 84.4629 240.94C81.6229 240.94 79.6829 243.06 79.6829 246.12C79.6829 249.16 81.6629 251.24 84.5429 251.24ZM84.4629 242.52C86.1229 242.52 87.1829 243.6 87.1829 245.22H81.5429C81.7829 243.5 82.8229 242.52 84.4629 242.52ZM96.7627 241.14C96.3827 241.06 96.1027 241.02 95.7627 241.02C94.4227 241.02 93.4427 241.7 93.0427 242.72L92.9227 241.24H91.1627V251H93.0427V245.82C93.0427 243.94 94.1427 242.86 95.9227 242.86H96.7627V241.14ZM101.677 251V242.8H103.597V241.22H101.677V238.16H99.7966V241.22H97.8766V242.8H99.7966V251H101.677ZM106.204 238.9C106.884 238.9 107.444 238.34 107.444 237.66C107.444 236.96 106.884 236.42 106.204 236.42C105.524 236.42 104.964 236.96 104.964 237.66C104.964 238.34 105.524 238.9 106.204 238.9ZM105.284 251H107.164V241.22H105.284V251ZM109.093 248.16C109.093 250.02 110.553 251.24 112.853 251.24C115.173 251.24 116.773 250.06 116.773 248.2C116.773 246.74 115.953 245.98 114.293 245.58L112.573 245.16C111.613 244.92 111.133 244.48 111.133 243.82C111.133 242.92 111.793 242.4 112.973 242.4C114.113 242.4 114.773 243.02 114.813 244H116.613C116.573 242.14 115.173 240.94 113.033 240.94C110.873 240.94 109.353 242.08 109.353 243.88C109.353 245.32 110.173 246.18 111.913 246.6L113.633 247C114.653 247.26 114.973 247.66 114.973 248.32C114.973 249.22 114.213 249.76 112.893 249.76C111.653 249.76 110.893 249.16 110.893 248.16H109.093ZM123.078 251.24C125.498 251.24 127.138 250.06 127.618 247.96H125.858C125.538 249.08 124.578 249.68 123.118 249.68C121.258 249.68 120.178 248.54 120.038 246.48L127.598 246.46V245.76C127.598 242.86 125.778 240.94 122.998 240.94C120.158 240.94 118.218 243.06 118.218 246.12C118.218 249.16 120.198 251.24 123.078 251.24ZM122.998 242.52C124.658 242.52 125.718 243.6 125.718 245.22H120.078C120.318 243.5 121.358 242.52 122.998 242.52Z" fill="white"/>
<g filter="url(#filter1_d_353_14073)">
<rect x="247" y="12" width="150" height="150" rx="20" fill="white"/>
</g>
<path d="M295.18 47.36V52.76H309.076L299.716 74H305.764L314.944 52.76V47.36H295.18ZM317.989 59.564V64.172H324.685V70.904H329.293V64.172H335.989V59.564H329.293V52.868H324.685V59.564H317.989Z" fill="#05596B"/>
<path d="M293.677 110V103.58H300.837V110H302.797V95.54H300.837V101.76H293.677V95.54H291.717V110H293.677ZM308.691 110.24C310.271 110.24 311.611 109.54 312.111 108.42L312.311 110H313.911V103.86C313.911 101.22 312.271 99.94 309.851 99.94C307.331 99.94 305.651 101.28 305.651 103.32H307.291C307.291 102.14 308.191 101.44 309.771 101.44C311.091 101.44 312.071 102.02 312.071 103.66V103.94L308.991 104.18C306.691 104.36 305.351 105.48 305.351 107.28C305.351 109.06 306.591 110.24 308.691 110.24ZM309.231 108.78C308.011 108.78 307.251 108.26 307.251 107.22C307.251 106.26 307.931 105.62 309.591 105.46L312.091 105.26V105.78C312.091 107.62 311.011 108.78 309.231 108.78ZM316.514 114.38H318.394V108.4C319.034 109.6 320.334 110.26 321.894 110.26C324.794 110.26 326.434 108.02 326.434 105.04C326.434 102.04 324.694 99.94 321.894 99.94C320.334 99.94 319.014 100.64 318.354 101.98L318.214 100.22H316.514V114.38ZM318.414 105.12C318.414 103.08 319.574 101.66 321.494 101.66C323.414 101.66 324.554 103.1 324.554 105.12C324.554 107.12 323.414 108.56 321.494 108.56C319.574 108.56 318.414 107.12 318.414 105.12ZM328.506 114.38H330.386V108.4C331.026 109.6 332.326 110.26 333.886 110.26C336.786 110.26 338.426 108.02 338.426 105.04C338.426 102.04 336.686 99.94 333.886 99.94C332.326 99.94 331.006 100.64 330.346 101.98L330.206 100.22H328.506V114.38ZM330.406 105.12C330.406 103.08 331.566 101.66 333.486 101.66C335.406 101.66 336.546 103.1 336.546 105.12C336.546 107.12 335.406 108.56 333.486 108.56C331.566 108.56 330.406 107.12 330.406 105.12ZM339.227 114.38C339.727 114.5 340.247 114.58 340.867 114.58C342.367 114.58 343.347 113.88 344.007 112.2L348.627 100.22H346.687L343.787 108.1L340.947 100.22H338.967L342.907 110.52L342.567 111.46C342.107 112.7 341.387 112.84 340.487 112.84H339.227V114.38ZM298.811 134.22C302.071 134.22 304.651 132.3 305.271 129.42H303.191C302.651 131.2 300.971 132.34 298.851 132.34C295.931 132.34 294.011 130.14 294.011 126.76C294.011 123.38 295.931 121.18 298.851 121.18C300.951 121.18 302.571 122.32 303.111 124.2H305.211C304.671 121.24 302.171 119.3 298.911 119.3C294.771 119.3 291.951 122.32 291.951 126.78C291.951 131.26 294.691 134.22 298.811 134.22ZM309.176 134V119.28H307.296V134H309.176ZM312.864 121.9C313.544 121.9 314.104 121.34 314.104 120.66C314.104 119.96 313.544 119.42 312.864 119.42C312.184 119.42 311.624 119.96 311.624 120.66C311.624 121.34 312.184 121.9 312.864 121.9ZM311.944 134H313.824V124.22H311.944V134ZM320.773 134.24C323.193 134.24 324.833 133.06 325.313 130.96H323.553C323.233 132.08 322.273 132.68 320.813 132.68C318.953 132.68 317.873 131.54 317.733 129.48L325.293 129.46V128.76C325.293 125.86 323.473 123.94 320.693 123.94C317.853 123.94 315.913 126.06 315.913 129.12C315.913 132.16 317.893 134.24 320.773 134.24ZM320.693 125.52C322.353 125.52 323.413 126.6 323.413 128.22H317.773C318.013 126.5 319.053 125.52 320.693 125.52ZM329.273 134V128.82C329.273 126.92 330.293 125.66 332.053 125.66C333.493 125.66 334.413 126.46 334.413 128.44V134H336.293V128.02C336.293 125.52 335.113 123.94 332.533 123.94C331.153 123.94 329.913 124.6 329.293 125.72L329.093 124.22H327.393V134H329.273ZM341.657 134V125.8H343.577V124.22H341.657V121.16H339.777V124.22H337.857V125.8H339.777V134H341.657ZM344.464 131.16C344.464 133.02 345.924 134.24 348.224 134.24C350.544 134.24 352.144 133.06 352.144 131.2C352.144 129.74 351.324 128.98 349.664 128.58L347.944 128.16C346.984 127.92 346.504 127.48 346.504 126.82C346.504 125.92 347.164 125.4 348.344 125.4C349.484 125.4 350.144 126.02 350.184 127H351.984C351.944 125.14 350.544 123.94 348.404 123.94C346.244 123.94 344.724 125.08 344.724 126.88C344.724 128.32 345.544 129.18 347.284 129.6L349.004 130C350.024 130.26 350.344 130.66 350.344 131.32C350.344 132.22 349.584 132.76 348.264 132.76C347.024 132.76 346.264 132.16 346.264 131.16H344.464Z" fill="#05596B"/>
<g filter="url(#filter2_d_353_14073)">
<rect x="228" y="369" width="150" height="150" rx="20" fill="white"/>
</g>
<path d="M261.728 431.432C267.884 431.432 272.096 427.4 272.096 421.424C272.096 416.024 268.496 412.604 263.312 412.604C261.692 412.604 260.216 412.964 259.064 413.648L260.108 409.76H270.404V404.36H255.932L252.584 418.652L257.912 419.66C258.56 418.364 260.18 417.428 261.98 417.428C264.608 417.428 266.12 419.048 266.12 421.784C266.12 424.592 264.5 426.284 261.872 426.284C259.424 426.284 257.948 424.772 257.948 422.252H252.188C252.188 427.76 256.004 431.432 261.728 431.432ZM274.304 417.752C274.304 425.996 278.624 431.468 285.932 431.468C293.24 431.468 297.56 425.996 297.56 417.752C297.56 409.508 292.88 403.856 285.932 403.856C278.984 403.856 274.304 409.508 274.304 417.752ZM280.064 417.752C280.064 411.848 282.224 408.968 285.932 408.968C289.64 408.968 291.8 411.848 291.8 417.752C291.8 423.476 289.64 426.356 285.932 426.356C282.224 426.356 280.064 423.476 280.064 417.752ZM306.48 431V421.352C306.48 418.328 308.1 417.464 309.684 417.464C311.448 417.464 312.6 418.544 312.6 420.776V431H318.144V421.352C318.144 418.292 319.728 417.428 321.312 417.428C323.076 417.428 324.264 418.508 324.264 420.776V431H329.808V419.228C329.808 415.124 327.504 412.424 322.86 412.424C320.268 412.424 318.144 413.684 317.208 415.592C316.164 413.684 314.436 412.424 311.736 412.424C309.144 412.424 307.38 413.612 306.48 414.872L306.12 413H300.936V431H306.48ZM334.564 416.564V421.172H341.26V427.904H345.868V421.172H352.564V416.564H345.868V409.868H341.26V416.564H334.564Z" fill="#05596B"/>
<path d="M281.008 461.86C281.008 465.2 283.128 467.24 286.548 467.24C289.948 467.24 292.068 465.18 292.068 461.86V452.54H290.088V461.74C290.088 464.04 288.828 465.34 286.548 465.34C284.248 465.34 282.968 464.06 282.968 461.74V452.54H281.008V461.86ZM297.286 452.54H295.326V467H297.286V452.54ZM305.439 467C309.719 467 312.599 464.08 312.599 459.78C312.599 455.46 309.679 452.54 305.359 452.54H300.659V467H305.439ZM305.219 454.34C308.519 454.34 310.559 456.42 310.559 459.78C310.559 463.1 308.519 465.18 305.299 465.18H302.619V454.34H305.219ZM313.972 464.16C313.972 466.02 315.432 467.24 317.732 467.24C320.052 467.24 321.652 466.06 321.652 464.2C321.652 462.74 320.832 461.98 319.172 461.58L317.452 461.16C316.492 460.92 316.012 460.48 316.012 459.82C316.012 458.92 316.672 458.4 317.852 458.4C318.992 458.4 319.652 459.02 319.692 460H321.492C321.452 458.14 320.052 456.94 317.912 456.94C315.752 456.94 314.232 458.08 314.232 459.88C314.232 461.32 315.052 462.18 316.792 462.6L318.512 463C319.532 463.26 319.852 463.66 319.852 464.32C319.852 465.22 319.092 465.76 317.772 465.76C316.532 465.76 315.772 465.16 315.772 464.16H313.972ZM263.841 478.14C265.761 478.14 267.361 479.06 267.901 480.9H269.981C269.501 478.12 267.041 476.3 263.881 476.3C259.621 476.3 256.781 479.42 256.781 483.82C256.781 488.28 259.601 491.24 263.701 491.24C265.821 491.24 267.581 490.32 268.361 489.06L268.501 491.02H270.141V483.04H263.461V484.78H268.301V485.2C268.301 488.12 266.321 489.38 263.861 489.38C260.881 489.38 258.841 487.36 258.841 483.86C258.841 480.44 260.721 478.14 263.841 478.14ZM276.834 491.24C279.254 491.24 280.894 490.06 281.374 487.96H279.614C279.294 489.08 278.334 489.68 276.874 489.68C275.014 489.68 273.934 488.54 273.794 486.48L281.354 486.46V485.76C281.354 482.86 279.534 480.94 276.754 480.94C273.914 480.94 271.974 483.06 271.974 486.12C271.974 489.16 273.954 491.24 276.834 491.24ZM276.754 482.52C278.414 482.52 279.474 483.6 279.474 485.22H273.834C274.074 483.5 275.114 482.52 276.754 482.52ZM285.334 491V485.82C285.334 483.92 286.354 482.66 288.114 482.66C289.554 482.66 290.474 483.46 290.474 485.44V491H292.354V485.02C292.354 482.52 291.174 480.94 288.594 480.94C287.214 480.94 285.974 481.6 285.354 482.72L285.154 481.22H283.454V491H285.334ZM299.178 491.24C301.598 491.24 303.238 490.06 303.718 487.96H301.958C301.638 489.08 300.678 489.68 299.218 489.68C297.358 489.68 296.278 488.54 296.138 486.48L303.698 486.46V485.76C303.698 482.86 301.878 480.94 299.098 480.94C296.258 480.94 294.318 483.06 294.318 486.12C294.318 489.16 296.298 491.24 299.178 491.24ZM299.098 482.52C300.758 482.52 301.818 483.6 301.818 485.22H296.178C296.418 483.5 297.458 482.52 299.098 482.52ZM311.398 481.14C311.018 481.06 310.738 481.02 310.398 481.02C309.058 481.02 308.078 481.7 307.678 482.72L307.558 481.24H305.798V491H307.678V485.82C307.678 483.94 308.778 482.86 310.558 482.86H311.398V481.14ZM315.63 491.24C317.21 491.24 318.55 490.54 319.05 489.42L319.25 491H320.85V484.86C320.85 482.22 319.21 480.94 316.79 480.94C314.27 480.94 312.59 482.28 312.59 484.32H314.23C314.23 483.14 315.13 482.44 316.71 482.44C318.03 482.44 319.01 483.02 319.01 484.66V484.94L315.93 485.18C313.63 485.36 312.29 486.48 312.29 488.28C312.29 490.06 313.53 491.24 315.63 491.24ZM316.17 489.78C314.95 489.78 314.19 489.26 314.19 488.22C314.19 487.26 314.87 486.62 316.53 486.46L319.03 486.26V486.78C319.03 488.62 317.95 489.78 316.17 489.78ZM326.058 491V482.8H327.978V481.22H326.058V478.16H324.178V481.22H322.258V482.8H324.178V491H326.058ZM333.787 491.24C336.207 491.24 337.847 490.06 338.327 487.96H336.567C336.247 489.08 335.287 489.68 333.827 489.68C331.967 489.68 330.887 488.54 330.747 486.48L338.307 486.46V485.76C338.307 482.86 336.487 480.94 333.707 480.94C330.867 480.94 328.927 483.06 328.927 486.12C328.927 489.16 330.907 491.24 333.787 491.24ZM333.707 482.52C335.367 482.52 336.427 483.6 336.427 485.22H330.787C331.027 483.5 332.067 482.52 333.707 482.52ZM344.327 491.24C345.887 491.24 347.207 490.56 347.847 489.22L348.007 491H349.687V476.28H347.827V482.8C347.167 481.6 345.907 480.94 344.407 480.94C341.507 480.94 339.767 483.14 339.767 486.14C339.767 489.12 341.487 491.24 344.327 491.24ZM344.707 489.54C342.787 489.54 341.667 488.1 341.667 486.08C341.667 484.08 342.787 482.64 344.707 482.64C346.627 482.64 347.807 484.08 347.807 486.08C347.807 488.12 346.627 489.54 344.707 489.54Z" fill="#05596B"/>
<g filter="url(#filter3_d_353_14073)">
<rect x="444" y="212" width="150" height="150" rx="20" fill="white"/>
</g>
<path d="M518.432 261.472C521.564 261.472 522.788 263.272 522.788 265.396C522.788 267.772 521.24 269.32 518.972 269.32C516.632 269.32 515.048 267.916 515.048 265.288H509.288C509.288 271.3 513.644 274.468 518.828 274.468C524.228 274.468 528.764 271.048 528.764 265.432C528.764 260.896 525.848 258.016 522.248 256.936L527.864 252.004V247.36H510.512V252.472H520.556L514.76 257.548C514.688 257.62 514.616 257.656 514.544 257.728V261.472H518.432Z" fill="#05596B"/>
<path d="M486.028 310L487.308 306.4H493.388L494.688 310H496.748L491.448 295.54H489.268L483.988 310H486.028ZM490.108 298.66C490.208 298.36 490.308 298.02 490.348 297.82C490.388 298.04 490.488 298.38 490.588 298.66L492.808 304.7H487.908L490.108 298.66ZM499.962 310H501.822L503.522 304.78C503.882 303.6 504.062 302.96 504.162 302.48C504.262 303.02 504.462 303.78 504.782 304.76L506.482 310H508.262L511.602 300.22H509.642L508.002 305.3C507.722 306.16 507.542 306.84 507.382 307.62C507.222 306.92 506.902 305.78 506.742 305.3L505.122 300.22H503.202L501.562 305.3C501.342 305.94 501.082 306.76 500.922 307.62C500.742 306.76 500.542 306.02 500.322 305.3L498.702 300.22H496.762L499.962 310ZM515.624 310.24C517.204 310.24 518.544 309.54 519.044 308.42L519.244 310H520.844V303.86C520.844 301.22 519.204 299.94 516.784 299.94C514.264 299.94 512.584 301.28 512.584 303.32H514.224C514.224 302.14 515.124 301.44 516.704 301.44C518.024 301.44 519.004 302.02 519.004 303.66V303.94L515.924 304.18C513.624 304.36 512.284 305.48 512.284 307.28C512.284 309.06 513.524 310.24 515.624 310.24ZM516.164 308.78C514.944 308.78 514.184 308.26 514.184 307.22C514.184 306.26 514.864 305.62 516.524 305.46L519.024 305.26V305.78C519.024 307.62 517.944 308.78 516.164 308.78ZM529.048 300.14C528.668 300.06 528.388 300.02 528.048 300.02C526.708 300.02 525.728 300.7 525.328 301.72L525.208 300.24H523.448V310H525.328V304.82C525.328 302.94 526.428 301.86 528.208 301.86H529.048V300.14ZM534.38 310.24C535.94 310.24 537.26 309.56 537.9 308.22L538.06 310H539.74V295.28H537.88V301.8C537.22 300.6 535.96 299.94 534.46 299.94C531.56 299.94 529.82 302.14 529.82 305.14C529.82 308.12 531.54 310.24 534.38 310.24ZM534.76 308.54C532.84 308.54 531.72 307.1 531.72 305.08C531.72 303.08 532.84 301.64 534.76 301.64C536.68 301.64 537.86 303.08 537.86 305.08C537.86 307.12 536.68 308.54 534.76 308.54ZM541.652 307.16C541.652 309.02 543.112 310.24 545.412 310.24C547.732 310.24 549.332 309.06 549.332 307.2C549.332 305.74 548.512 304.98 546.852 304.58L545.132 304.16C544.172 303.92 543.692 303.48 543.692 302.82C543.692 301.92 544.352 301.4 545.532 301.4C546.672 301.4 547.332 302.02 547.372 303H549.172C549.132 301.14 547.732 299.94 545.592 299.94C543.432 299.94 541.912 301.08 541.912 302.88C541.912 304.32 542.732 305.18 544.472 305.6L546.192 306C547.212 306.26 547.532 306.66 547.532 307.32C547.532 308.22 546.772 308.76 545.452 308.76C544.212 308.76 543.452 308.16 543.452 307.16H541.652ZM482.183 334V328.28H485.883L488.583 334H490.763L487.823 327.9C489.623 327.32 490.623 325.88 490.623 323.88C490.623 321.18 488.783 319.54 485.683 319.54H480.223V334H482.183ZM482.183 321.3H485.683C487.483 321.3 488.563 322.22 488.563 323.9C488.563 325.56 487.523 326.54 485.703 326.54H482.183V321.3ZM496.506 334.24C498.926 334.24 500.566 333.06 501.046 330.96H499.286C498.966 332.08 498.006 332.68 496.546 332.68C494.686 332.68 493.606 331.54 493.466 329.48L501.026 329.46V328.76C501.026 325.86 499.206 323.94 496.426 323.94C493.586 323.94 491.646 326.06 491.646 329.12C491.646 332.16 493.626 334.24 496.506 334.24ZM496.426 325.52C498.086 325.52 499.146 326.6 499.146 328.22H493.506C493.746 326.5 494.786 325.52 496.426 325.52ZM502.486 329.12C502.486 332.2 504.386 334.24 507.266 334.24C509.626 334.24 511.446 332.82 511.826 330.7H509.946C509.606 331.86 508.606 332.56 507.266 332.56C505.486 332.56 504.346 331.2 504.346 329.1C504.346 326.98 505.566 325.62 507.346 325.62C508.606 325.62 509.606 326.28 509.926 327.52H511.806C511.466 325.34 509.746 323.94 507.286 323.94C504.426 323.94 502.486 326.06 502.486 329.12ZM518.029 334.24C520.449 334.24 522.089 333.06 522.569 330.96H520.809C520.489 332.08 519.529 332.68 518.069 332.68C516.209 332.68 515.129 331.54 514.989 329.48L522.549 329.46V328.76C522.549 325.86 520.729 323.94 517.949 323.94C515.109 323.94 513.169 326.06 513.169 329.12C513.169 332.16 515.149 334.24 518.029 334.24ZM517.949 325.52C519.609 325.52 520.669 326.6 520.669 328.22H515.029C515.269 326.5 516.309 325.52 517.949 325.52ZM525.569 321.9C526.249 321.9 526.809 321.34 526.809 320.66C526.809 319.96 526.249 319.42 525.569 319.42C524.889 319.42 524.329 319.96 524.329 320.66C524.329 321.34 524.889 321.9 525.569 321.9ZM524.649 334H526.529V324.22H524.649V334ZM531.998 334H533.858L537.938 324.22H535.978L533.798 329.68C533.458 330.54 533.138 331.38 532.978 332.02C532.818 331.42 532.538 330.6 532.198 329.68L530.058 324.22H528.058L531.998 334ZM543.205 334.24C545.625 334.24 547.265 333.06 547.745 330.96H545.985C545.665 332.08 544.705 332.68 543.245 332.68C541.385 332.68 540.305 331.54 540.165 329.48L547.725 329.46V328.76C547.725 325.86 545.905 323.94 543.125 323.94C540.285 323.94 538.345 326.06 538.345 329.12C538.345 332.16 540.325 334.24 543.205 334.24ZM543.125 325.52C544.785 325.52 545.845 326.6 545.845 328.22H540.205C540.445 326.5 541.485 325.52 543.125 325.52ZM553.745 334.24C555.305 334.24 556.625 333.56 557.265 332.22L557.425 334H559.105V319.28H557.245V325.8C556.585 324.6 555.325 323.94 553.825 323.94C550.925 323.94 549.185 326.14 549.185 329.14C549.185 332.12 550.905 334.24 553.745 334.24ZM554.125 332.54C552.205 332.54 551.085 331.1 551.085 329.08C551.085 327.08 552.205 325.64 554.125 325.64C556.045 325.64 557.225 327.08 557.225 329.08C557.225 331.12 556.045 332.54 554.125 332.54Z" fill="#05596B"/>
<defs>
<filter id="filter0_d_353_14073" x="0" y="117" width="190" height="190" filterUnits="userSpaceOnUse" color-interpolation-filters="sRGB">
<feFlood flood-opacity="0" result="BackgroundImageFix"/>
<feColorMatrix in="SourceAlpha" type="matrix" values="0 0 0 0 0 0 0 0 0 0 0 0 0 0 0 0 0 0 127 0" result="hardAlpha"/>
<feOffset dx="8" dy="8"/>
<feGaussianBlur stdDeviation="10"/>
<feComposite in2="hardAlpha" operator="out"/>
<feColorMatrix type="matrix" values="0 0 0 0 0 0 0 0 0 0 0 0 0 0 0 0 0 0 0.1 0"/>
<feBlend mode="normal" in2="BackgroundImageFix" result="effect1_dropShadow_353_14073"/>
<feBlend mode="normal" in="SourceGraphic" in2="effect1_dropShadow_353_14073" result="shape"/>
</filter>
<filter id="filter1_d_353_14073" x="235" y="0" width="190" height="190" filterUnits="userSpaceOnUse" color-interpolation-filters="sRGB">
<feFlood flood-opacity="0" result="BackgroundImageFix"/>
<feColorMatrix in="SourceAlpha" type="matrix" values="0 0 0 0 0 0 0 0 0 0 0 0 0 0 0 0 0 0 127 0" result="hardAlpha"/>
<feOffset dx="8" dy="8"/>
<feGaussianBlur stdDeviation="10"/>
<feComposite in2="hardAlpha" operator="out"/>
<feColorMatrix type="matrix" values="0 0 0 0 0 0 0 0 0 0 0 0 0 0 0 0 0 0 0.1 0"/>
<feBlend mode="normal" in2="BackgroundImageFix" result="effect1_dropShadow_353_14073"/>
<feBlend mode="normal" in="SourceGraphic" in2="effect1_dropShadow_353_14073" result="shape"/>
</filter>
<filter id="filter2_d_353_14073" x="216" y="357" width="190" height="190" filterUnits="userSpaceOnUse" color-interpolation-filters="sRGB">
<feFlood flood-opacity="0" result="BackgroundImageFix"/>
<feColorMatrix in="SourceAlpha" type="matrix" values="0 0 0 0 0 0 0 0 0 0 0 0 0 0 0 0 0 0 127 0" result="hardAlpha"/>
<feOffset dx="8" dy="8"/>
<feGaussianBlur stdDeviation="10"/>
<feComposite in2="hardAlpha" operator="out"/>
<feColorMatrix type="matrix" values="0 0 0 0 0 0 0 0 0 0 0 0 0 0 0 0 0 0 0.1 0"/>
<feBlend mode="normal" in2="BackgroundImageFix" result="effect1_dropShadow_353_14073"/>
<feBlend mode="normal" in="SourceGraphic" in2="effect1_dropShadow_353_14073" result="shape"/>
</filter>
<filter id="filter3_d_353_14073" x="432" y="200" width="190" height="190" filterUnits="userSpaceOnUse" color-interpolation-filters="sRGB">
<feFlood flood-opacity="0" result="BackgroundImageFix"/>
<feColorMatrix in="SourceAlpha" type="matrix" values="0 0 0 0 0 0 0 0 0 0 0 0 0 0 0 0 0 0 127 0" result="hardAlpha"/>
<feOffset dx="8" dy="8"/>
<feGaussianBlur stdDeviation="10"/>
<feComposite in2="hardAlpha" operator="out"/>
<feColorMatrix type="matrix" values="0 0 0 0 0 0 0 0 0 0 0 0 0 0 0 0 0 0 0.1 0"/>
<feBlend mode="normal" in2="BackgroundImageFix" result="effect1_dropShadow_353_14073"/>
<feBlend mode="normal" in="SourceGraphic" in2="effect1_dropShadow_353_14073" result="shape"/>
</filter>
</defs>
</svg>
