<svg width="13" height="12" viewBox="0 0 13 12" fill="none" xmlns="http://www.w3.org/2000/svg">
<path d="M6.25 0C2.93629 0 0.25 2.68629 0.25 6C0.25 9.31371 2.93629 12 6.25 12C9.56371 12 12.25 9.31371 12.25 6C12.25 2.68629 9.56371 0 6.25 0ZM4.09375 2.3833C4.21737 2.37601 4.32911 2.4499 4.41382 2.58105L5.23413 4.13671C5.3205 4.32105 5.27142 4.51843 5.14258 4.65014L4.76685 5.02587C4.74366 5.05765 4.7284 5.09344 4.72803 5.1328C4.87212 5.69055 5.3092 6.20503 5.69484 6.55883C6.08046 6.91263 6.49493 7.39164 7.03296 7.50512C7.09946 7.52367 7.18093 7.53032 7.22852 7.48609L7.66504 7.04151C7.81572 6.9273 8.0337 6.87195 8.19458 6.96534H8.2019L9.68211 7.83912C9.89939 7.97531 9.9219 8.23856 9.76634 8.39869L8.74683 9.41016C8.59627 9.56456 8.39625 9.61647 8.20192 9.6167C7.34244 9.59095 6.53034 9.16911 5.8633 8.7356C4.7684 7.93907 3.76407 6.95114 3.13355 5.75757C2.89173 5.25707 2.60766 4.61847 2.63477 4.05983C2.63719 3.84967 2.69405 3.64378 2.84205 3.50832L3.86158 2.48879C3.941 2.42121 4.01957 2.38768 4.09375 2.3833V2.3833Z" fill="#46F7AD"/>
</svg>
