<svg width="128" height="44" viewBox="0 0 128 44" fill="none" xmlns="http://www.w3.org/2000/svg">
<g clip-path="url(#clip0_450_1663)">
<rect x="7.42511" y="4.33154" width="111.932" height="34.4407" fill="#03303B"/>
<path d="M101.355 26.2197C100.608 26.2197 100.107 26.5822 99.929 27.2524H102.754C102.542 26.4933 101.952 26.2197 101.355 26.2197Z" fill="#EEF9F8"/>
<path d="M48.322 24.0049H46.9435V26.3643H48.322C48.9666 26.3643 49.4398 25.8514 49.4398 25.1812C49.4398 24.5178 48.9666 24.0049 48.322 24.0049Z" fill="#EEF9F8"/>
<path d="M53.4388 13.1704C52.9382 13.1704 52.609 13.4098 52.4855 13.8611H54.3714C54.2274 13.3482 53.8365 13.1704 53.4388 13.1704Z" fill="#EEF9F8"/>
<path d="M89.0451 29.4828C89.8784 29.4828 90.5538 28.7908 90.5538 27.9372C90.5538 27.0836 89.8784 26.3916 89.0451 26.3916C88.2119 26.3916 87.5364 27.0836 87.5364 27.9372C87.5364 28.7908 88.2119 29.4828 89.0451 29.4828Z" fill="#EEF9F8"/>
<path d="M58.741 26.3354C57.8357 26.3354 57.1774 26.951 57.1774 27.9358C57.1774 28.9206 57.8357 29.5361 58.741 29.5361C59.653 29.5361 60.3114 28.9206 60.3114 27.9358C60.3114 26.951 59.653 26.3354 58.741 26.3354Z" fill="#EEF9F8"/>
<path d="M119.494 0.744141H8.0062C3.72006 0.744141 0.25 4.21151 0.25 8.48588V35.3357C0.25 39.6101 3.72006 43.0775 8.0062 43.0775H119.494C123.78 43.0775 127.25 39.6101 127.25 35.3357V8.48588C127.25 4.21151 123.78 0.744141 119.494 0.744141ZM85.5819 12.1311H86.8986V12.5414C87.1317 12.2131 87.5706 12.008 88.1535 12.008C89.0382 12.008 89.7926 12.6371 89.7926 13.8134V16.5012H88.4759V14.0049C88.4759 13.4647 88.133 13.2116 87.7147 13.2116C87.2277 13.2116 86.8986 13.492 86.8986 14.1144V16.5012H85.5819V12.1311ZM55.9767 12.1311H56.683V11.2967L57.9929 10.9069V12.1311H58.8981V13.3894H57.9929V14.935C57.9929 15.3112 58.322 15.3454 58.8981 15.3112V16.5012C57.1768 16.6721 56.683 16.1592 56.683 14.935V13.3894H55.9767V12.1311ZM16.2767 9.84L28.8403 17.0688L25.2673 20.7892L14.5211 9.61431C15.104 9.45017 15.7281 9.5254 16.2767 9.84ZM12.841 32.0052V11.8165C12.841 11.3035 13.0055 10.8248 13.3004 10.4418L24.2524 21.8356L13.2387 33.2977C12.985 32.9284 12.841 32.477 12.841 32.0052ZM16.2767 33.9816C15.9201 34.1868 15.5224 34.2962 15.1315 34.2962C14.8914 34.2962 14.6446 34.2552 14.4114 34.1731L25.2673 22.8888L28.9294 26.6981L16.2767 33.9816ZM33.8122 23.8873L30.2255 25.9527L26.2754 21.8356L30.1364 17.8211L33.8122 19.9343C34.5254 20.3447 34.9574 21.0833 34.9574 21.9108C34.9574 22.7383 34.5254 23.4769 33.8122 23.8873ZM47.5278 10.2572C48.7005 10.2572 49.6949 10.8316 50.2092 11.6592L49.016 12.3362C48.7622 11.9327 48.2136 11.6181 47.521 11.6181C46.4854 11.6181 45.7174 12.3841 45.7174 13.4578C45.7174 14.4973 46.4511 15.2565 47.6444 15.2565C48.4605 15.2565 48.9954 14.9008 49.2148 14.3127H47.5758V13.0885H50.6481V13.6151C50.6481 15.4822 49.3451 16.6174 47.6238 16.6174C45.6968 16.6174 44.3115 15.2018 44.3115 13.451C44.3115 11.6728 45.7242 10.2572 47.5278 10.2572ZM48.3233 28.3258H46.9449V31.2118H44.8396V22.0339H48.3233C50.1338 22.0339 51.5396 23.4427 51.5396 25.1798C51.5396 26.9238 50.1338 28.3258 48.3233 28.3258ZM54.2211 31.2118H52.2529V21.6441H54.2211V31.2118ZM53.5421 16.6174C52.0471 16.6174 51.1145 15.6189 51.1145 14.3127C51.1145 13.0133 52.0608 12.008 53.4461 12.008C54.7285 12.008 55.6749 12.9928 55.6749 14.3127C55.6749 14.4973 55.6543 14.6683 55.62 14.8393H52.5135C52.678 15.2907 53.0827 15.448 53.5627 15.448C53.9193 15.448 54.2279 15.3112 54.4062 15.1197L55.4555 15.7215C55.0234 16.3165 54.3788 16.6174 53.5421 16.6174ZM62.279 31.2118H60.3108V30.5963C59.8719 31.0956 59.2273 31.3965 58.3495 31.3965C56.6282 31.3965 55.2086 29.8851 55.2086 27.936C55.2086 25.98 56.6282 24.4754 58.3495 24.4754C59.2273 24.4754 59.8719 24.7763 60.3108 25.2756V24.6601H62.279V31.2118ZM61.264 16.5012L63.3488 10.3803H65.1387L67.2235 16.5012H65.6873L65.3787 15.5369H63.1019L62.7933 16.5012H61.264ZM67.5801 31.0135C66.8463 33.0994 65.6805 33.9269 63.8357 33.8312V31.9983C64.7547 31.9983 65.1936 31.7111 65.4816 30.9109L62.8619 24.6601H65.0358L66.4897 28.6677L67.7241 24.6601H69.8295L67.5801 31.0135ZM70.2615 16.6174C69.6717 16.6174 69.2465 16.4191 68.9517 16.0908V18.2451H67.6418V12.1311H68.9517V12.5414C69.2465 12.2063 69.6717 12.008 70.2615 12.008C71.4068 12.008 72.3531 13.0133 72.3531 14.3127C72.3531 15.6189 71.4068 16.6174 70.2615 16.6174ZM73.0183 12.1311H74.335V12.5414C74.6231 12.2063 75.0551 12.008 75.6449 12.008C76.7901 12.008 77.7365 13.0133 77.7365 14.3127C77.7365 15.6189 76.7901 16.6174 75.6449 16.6174C75.0551 16.6174 74.6231 16.4191 74.335 16.0908V18.2451H73.0183V12.1311ZM76.8587 31.3965C74.9248 31.3965 73.6904 30.4801 73.1829 29.1259L74.9934 28.0796C75.3226 28.8387 75.8849 29.3516 76.9273 29.3516C77.9217 29.3516 78.1754 28.955 78.1754 28.6062C78.1754 28.0385 77.6474 27.8197 76.269 27.4367C74.9042 27.0537 73.5601 26.404 73.5601 24.6464C73.5601 22.8751 75.062 21.8561 76.653 21.8561C78.1617 21.8561 79.3413 22.5742 80.0133 23.9215L78.2371 24.961C77.9217 24.3045 77.4896 23.901 76.653 23.901C75.9946 23.901 75.6655 24.2292 75.6655 24.5917C75.6655 25.0157 75.8849 25.3029 77.3182 25.7338C78.7103 26.151 80.2739 26.6366 80.2739 28.5788C80.2739 30.3433 78.8543 31.3965 76.8587 31.3965ZM84.8961 26.5476H83.5382V28.8661C83.5382 29.4269 84.0251 29.4816 84.8961 29.4269V31.2118C82.3176 31.4717 81.57 30.6989 81.57 28.8661V26.5476H80.5139V24.6601H81.57V23.4154L83.5382 22.8204V24.6601H84.8961V26.5476ZM82.5987 16.6174C81.3094 16.6174 80.2739 15.6189 80.2739 14.3127C80.2739 13.0133 81.3094 12.008 82.5987 12.008C83.888 12.008 84.9235 13.0133 84.9235 14.3127C84.9235 15.6189 83.888 16.6174 82.5987 16.6174ZM89.0451 31.3965C87.1112 31.3965 85.5613 29.8851 85.5613 27.936C85.5613 25.98 87.1112 24.4754 89.0451 24.4754C90.979 24.4754 92.5288 25.98 92.5288 27.936C92.5288 29.8851 90.979 31.3965 89.0451 31.3965ZM97.4322 26.7528C96.623 26.6229 95.464 26.9511 95.464 28.2506V31.2118H93.4958V24.6601H95.464V25.8227C95.7246 24.9473 96.6093 24.5301 97.4322 24.5301V26.7528ZM104.633 28.7224H99.9627C100.216 29.3995 100.82 29.6389 101.54 29.6389C102.082 29.6389 102.541 29.4269 102.802 29.1396L104.379 30.0424C103.735 30.9383 102.761 31.3965 101.513 31.3965C99.2701 31.3965 97.8779 29.8851 97.8779 27.936C97.8779 25.98 99.2975 24.4754 101.369 24.4754C103.289 24.4754 104.708 25.9527 104.708 27.936C104.708 28.2095 104.681 28.4694 104.633 28.7224Z" fill="#EEF9F8"/>
<path d="M82.5992 13.2803C82.03 13.2803 81.5911 13.6906 81.5911 14.313C81.5911 14.9353 82.03 15.3456 82.5992 15.3456C83.1684 15.3456 83.6073 14.9353 83.6073 14.313C83.6073 13.6906 83.1684 13.2803 82.5992 13.2803Z" fill="#EEF9F8"/>
<path d="M64.2401 11.9805L63.52 14.2237H64.9602L64.2401 11.9805Z" fill="#EEF9F8"/>
<path d="M75.3764 15.3803C75.9799 15.3803 76.4188 14.97 76.4188 14.3135C76.4188 13.6569 75.9799 13.2466 75.3764 13.2466C74.7729 13.2466 74.334 13.6569 74.334 14.3135C74.334 14.97 74.7729 15.3803 75.3764 15.3803Z" fill="#EEF9F8"/>
<path d="M70.0012 13.2466C69.3909 13.2466 68.952 13.6569 68.952 14.3135C68.952 14.97 69.3909 15.3803 70.0012 15.3803C70.6047 15.3803 71.0436 14.97 71.0436 14.3135C71.0436 13.6569 70.6047 13.2466 70.0012 13.2466Z" fill="#EEF9F8"/>
</g>
<defs>
<clipPath id="clip0_450_1663">
<rect width="127" height="42.3333" fill="white" transform="translate(0.25 0.744141)"/>
</clipPath>
</defs>
</svg>
