<svg width="82" height="82" viewBox="0 0 82 82" fill="none" xmlns="http://www.w3.org/2000/svg">
<rect x="1" y="1" width="80" height="80" rx="20" fill="#153853" fill-opacity="0.1"/>
<path d="M58.7205 28.6279C57.5386 28.6279 56.5729 29.5755 56.5462 30.7512L55.8552 36.0922C55.5195 35.367 54.7857 34.8622 53.9357 34.8622C53.1238 34.8622 52.3843 35.3298 52.0319 36.0603C50.8514 37.7512 48.85 40.4265 48.0733 41.0084C47.0157 41.8036 45.5205 42.3593 45.5052 42.365C45.4252 42.3946 45.3529 42.437 45.2905 42.4908C44.5976 42.7631 44.0043 43.2527 43.5986 43.8898C43.5919 43.8993 43.5867 43.9084 43.5809 43.9184L43.58 43.9179C43.3976 44.2127 43.2581 44.5341 43.1652 44.8727C42.8148 45.8136 42.3962 47.2717 42.3624 48.9089L42.1576 52.117L41.5681 52.1198H41.2029C41.1233 52.0884 41.0376 52.0693 40.9471 52.0693C40.8567 52.0693 40.7705 52.0879 40.691 52.1189H40.3267L39.7362 52.116L39.5324 48.9389C39.499 47.2731 39.08 45.8141 38.7286 44.8731C38.6371 44.5331 38.4986 44.2122 38.3148 43.9184C38.31 43.9108 38.3048 43.9036 38.3005 43.896C37.8938 43.2546 37.2986 42.7627 36.6038 42.4898C36.5414 42.4365 36.469 42.3936 36.389 42.3641C36.3738 42.3584 34.8805 41.8027 33.82 41.007C33.0448 40.4255 31.0438 37.7512 29.8619 36.0598C29.5114 35.3293 28.7729 34.8612 27.9595 34.8612C27.11 34.8612 26.3762 35.366 26.0405 36.0908L25.349 30.7503C25.3219 29.5746 24.3571 28.627 23.1743 28.627C21.9752 28.627 21 29.6022 21 30.8003V38.6784C21 38.7798 21.0238 38.8774 21.0667 38.967C21.13 39.2479 21.2367 39.5127 21.3767 39.7408L26.1324 48.3131C26.2405 48.5684 26.3738 48.8065 26.5295 49.0212C26.5348 49.0293 26.54 49.0365 26.5457 49.0446C26.9152 49.5508 27.4057 49.955 27.9667 50.217C28.1267 50.3217 28.9886 50.9212 29.7124 52.095C29.6881 52.1017 29.6638 52.1084 29.6405 52.1174H28.9743C28.5795 52.1174 28.26 52.4374 28.26 52.8317V58.065C28.26 58.4593 28.5795 58.7793 28.9743 58.7793H40.9452C40.9462 58.7793 40.9462 58.7793 40.9471 58.7793H40.9481H52.9195C53.3138 58.7793 53.6338 58.4593 53.6338 58.065V52.8317C53.6338 52.4374 53.3138 52.1174 52.9195 52.1174H52.2529C52.2295 52.1084 52.2052 52.1017 52.1805 52.095C52.9067 50.9174 53.771 50.3184 53.9252 50.2174C54.4805 49.9584 54.9662 49.5612 55.3324 49.065C55.339 49.0565 55.3452 49.0484 55.3519 49.0393C55.5167 48.8117 55.6543 48.567 55.761 48.3108L60.5033 39.7641C60.6505 39.5212 60.7562 39.2622 60.8205 38.9927C60.8681 38.896 60.8929 38.7884 60.8929 38.6784V30.8012C60.8943 29.6031 59.9195 28.6279 58.7205 28.6279ZM28.6014 48.9365C28.2543 48.7812 27.9486 48.535 27.7167 48.225C27.7105 48.216 27.7048 48.2074 27.6981 48.1989C27.5962 48.0603 27.509 47.9027 27.4386 47.7312C27.4281 47.705 27.4157 47.6803 27.4024 47.656L22.6124 39.0241C22.5257 38.8822 22.469 38.7279 22.4438 38.5646C22.44 38.5417 22.4352 38.5189 22.429 38.496V30.8012C22.429 30.3908 22.7638 30.0565 23.1748 30.0565C23.5867 30.0565 23.9214 30.3908 23.9214 30.8012C23.9214 30.8317 23.9233 30.8627 23.9271 30.8931L24.8271 37.8412C24.831 37.8965 24.8414 37.9512 24.8586 38.0055C24.879 38.0708 24.8933 38.1379 24.9029 38.2055C24.929 38.3884 25.0319 38.5512 25.1771 38.6636C25.88 39.4274 26.5476 40.2965 27.1633 41.2479C27.1671 41.2536 27.1719 41.2579 27.1757 41.2631C27.6114 42.2727 28.0724 43.2822 28.5495 44.2655C28.6733 44.5198 28.9276 44.6679 29.1929 44.6679C29.2976 44.6679 29.4038 44.645 29.5043 44.5965C29.859 44.4241 30.0071 43.9965 29.8348 43.6417C29.3467 42.6365 28.8743 41.6031 28.431 40.5703C28.4043 40.5079 28.3671 40.4541 28.3267 40.4036C28.1457 40.0698 27.5438 38.8908 27.3781 37.686C27.3633 37.5784 27.351 37.4717 27.3438 37.3641C27.3438 37.3636 27.3438 37.3631 27.3438 37.3627C27.34 37.3079 27.3286 37.255 27.3133 37.2046C27.3119 37.1998 27.3119 37.195 27.3105 37.1908C27.2876 37.1203 27.2757 37.0479 27.2757 36.9774C27.2757 36.5989 27.5829 36.2912 27.9605 36.2912C28.2314 36.2912 28.4771 36.4527 28.5857 36.7022C28.6048 36.7455 28.6276 36.787 28.6548 36.8255C28.9676 37.2746 31.7471 41.2393 32.9638 42.1512C33.9357 42.8803 35.1595 43.4117 35.6643 43.6155C35.74 43.6836 35.831 43.7365 35.9329 43.7674C36.4129 43.9155 36.8271 44.235 37.0995 44.6698C37.101 44.6727 37.1033 44.676 37.1052 44.6789C37.2171 44.8589 37.3014 45.0574 37.3557 45.2684C37.3624 45.2936 37.3695 45.3179 37.379 45.3422C37.6933 46.1779 38.0748 47.4846 38.1062 48.9998L38.3052 52.1098L31.3295 52.077C30.3419 50.0317 28.8576 49.0865 28.68 48.9789C28.6548 48.9627 28.6281 48.9489 28.6014 48.9365ZM29.6895 57.3522V53.5474H30.8852C30.9657 53.5474 31.0424 53.5293 31.1162 53.5036L39.0024 53.5412C39.0238 53.5431 39.0448 53.5474 39.0667 53.5474H40.2329L40.2319 57.3522H29.6895ZM52.2067 57.3522H41.6624V53.5474H42.8286C42.85 53.5474 42.8714 53.5431 42.8929 53.5412L50.7781 53.5036C50.8524 53.5293 50.9295 53.5474 51.0095 53.5474H52.2067V57.3522ZM59.4657 38.4922C59.459 38.517 59.4548 38.5422 59.45 38.5679C59.4257 38.7279 59.37 38.8822 59.2695 39.0493L54.4924 47.656C54.4786 47.6822 54.4652 47.7089 54.4543 47.7365C54.3919 47.8917 54.31 48.0417 54.2114 48.1812C54.2048 48.1893 54.1995 48.1965 54.1938 48.2046C53.9614 48.5241 53.6495 48.7774 53.2933 48.9374C53.269 48.9479 53.2448 48.9608 53.2219 48.9741C53.1514 49.016 51.5876 49.9622 50.5657 52.0765L43.5905 52.1093L43.7905 48.9684C43.821 47.4831 44.2014 46.1765 44.5148 45.3412C44.5243 45.3184 44.5314 45.2946 44.5371 45.2712C44.59 45.0689 44.67 44.8774 44.7762 44.7017C44.7838 44.6912 44.791 44.6798 44.7976 44.6684C45.0681 44.2355 45.4824 43.9155 45.9619 43.7674C46.0643 43.7365 46.1543 43.6831 46.2305 43.6155C46.7357 43.4117 47.9605 42.8808 48.9305 42.1512C50.1481 41.2393 52.9271 37.275 53.2395 36.8255C53.2667 36.7874 53.289 36.747 53.3076 36.7041C53.4181 36.4536 53.6638 36.2912 53.9352 36.2912C54.3129 36.2912 54.62 36.5989 54.62 36.9774C54.62 37.0479 54.6081 37.1203 54.5857 37.1908C54.5838 37.195 54.5838 37.1993 54.5829 37.2031C54.5671 37.2546 54.5548 37.3084 54.5514 37.3646C54.5338 37.6336 54.489 37.9055 54.4286 38.1703C54.4248 38.185 54.4219 38.2008 54.419 38.216C54.4143 38.2341 54.4095 38.2517 54.4052 38.2698C54.1643 39.257 53.7162 40.1312 53.5662 40.407C53.5271 40.4565 53.491 40.5093 53.4648 40.5698C53.0352 41.5717 52.5624 42.605 52.0605 43.6422C51.8886 43.997 52.0371 44.4246 52.3924 44.5965C52.4929 44.645 52.599 44.6674 52.7029 44.6674C52.9681 44.6674 53.2229 44.5189 53.3467 44.2641C53.8367 43.2512 54.2971 42.2422 54.7224 41.2593C54.7252 41.255 54.729 41.2512 54.7319 41.247C55.3371 40.3112 55.9957 39.4527 56.6905 38.6931C56.8524 38.5817 56.9619 38.407 56.9919 38.2112C57.0019 38.1408 57.0162 38.0703 57.0376 38.0027C57.0495 37.9631 57.059 37.9227 57.0638 37.8817L57.9686 30.8927C57.9724 30.8627 57.9743 30.8317 57.9743 30.8012C57.9743 30.3908 58.309 30.0565 58.7209 30.0565C59.1319 30.0565 59.4657 30.3908 59.4657 30.8012V38.4922Z" fill="#153853"/>
<path d="M45.1967 27.3128C45.8953 27.3128 46.4624 27.8819 46.4624 28.5814C46.4624 28.9762 46.7824 29.2957 47.1767 29.2957C47.5719 29.2957 47.891 28.9762 47.891 28.5814C47.891 27.0943 46.6829 25.8843 45.1967 25.8843C44.8024 25.8843 44.4824 26.2043 44.4824 26.5986C44.4824 26.9933 44.8024 27.3128 45.1967 27.3128Z" fill="#153853"/>
<path d="M40.5672 40.5944C40.6772 40.6639 40.8081 40.7034 40.9476 40.7034H40.9495C41.0895 40.7034 41.22 40.663 41.33 40.5934C50.4572 35.6496 50.2048 29.1668 50.1586 28.5515C50.1429 25.8287 47.9229 23.6191 45.1967 23.6191C43.4081 23.6191 41.8224 24.5891 40.9476 26.0301C40.0734 24.5891 38.4876 23.6191 36.7 23.6191C33.9724 23.6191 31.7519 25.8291 31.7353 28.5515C31.6891 29.1668 31.4367 35.6506 40.5672 40.5944ZM33.1605 28.6506C33.1624 28.6277 33.1638 28.6049 33.1638 28.5815C33.1638 26.633 34.75 25.0472 36.7 25.0472C38.6086 25.0472 40.1934 26.5991 40.2334 28.5063C40.2419 28.8949 40.5591 29.2058 40.9476 29.2058C41.3357 29.2058 41.6534 28.8953 41.6619 28.5068C41.7019 26.5991 43.2886 25.0472 45.1972 25.0472C47.1457 25.0472 48.7305 26.633 48.7305 28.5815C48.7305 28.6044 48.7324 28.6277 48.7343 28.6506C48.7391 28.7096 49.2005 34.5587 40.9472 39.1729C32.7476 34.5929 33.1395 28.8906 33.1605 28.6506Z" fill="#153853"/>
<rect x="1" y="1" width="80" height="80" rx="20" stroke="#153853"/>
</svg>
