<svg width="40" height="40" viewBox="0 0 40 40" fill="none" xmlns="http://www.w3.org/2000/svg">
<rect width="40" height="40" rx="4" fill="#E6F8E4"/>
<path opacity="0.2" d="M18.75 10.45C19.44 9.86001 20.57 9.86001 21.27 10.45L22.85 11.81C23.15 12.07 23.71 12.28 24.11 12.28H25.81C26.87 12.28 27.74 13.15 27.74 14.21V15.91C27.74 16.3 27.95 16.87 28.21 17.17L29.57 18.75C30.16 19.44 30.16 20.57 29.57 21.27L28.21 22.85C27.95 23.15 27.74 23.71 27.74 24.11V25.81C27.74 26.87 26.87 27.74 25.81 27.74H24.11C23.72 27.74 23.15 27.95 22.85 28.21L21.27 29.57C20.58 30.16 19.45 30.16 18.75 29.57L17.17 28.21C16.87 27.95 16.31 27.74 15.91 27.74H14.18C13.12 27.74 12.25 26.87 12.25 25.81V24.1C12.25 23.71 12.04 23.15 11.79 22.85L10.44 21.26C9.86 20.57 9.86 19.45 10.44 18.76L11.79 17.17C12.04 16.87 12.25 16.31 12.25 15.92V14.2C12.25 13.14 13.12 12.27 14.18 12.27H15.91C16.3 12.27 16.87 12.06 17.17 11.8L18.75 10.45Z" fill="#004912"/>
<path d="M18.7896 23.17C18.5896 23.17 18.3996 23.09 18.2596 22.95L15.8396 20.53C15.5496 20.24 15.5496 19.76 15.8396 19.47C16.1296 19.18 16.6096 19.18 16.8996 19.47L18.7896 21.36L23.0896 17.06C23.3796 16.77 23.8596 16.77 24.1496 17.06C24.4396 17.35 24.4396 17.83 24.1496 18.12L19.3196 22.95C19.1796 23.09 18.9896 23.17 18.7896 23.17Z" fill="#004912"/>
</svg>
