<svg width="40" height="40" viewBox="0 0 40 40" fill="none" xmlns="http://www.w3.org/2000/svg">
<rect width="40" height="40" rx="4" fill="#F9E7E9"/>
<path d="M26 23V27C26 28.65 24.65 30 23 30H17C15.35 30 14 28.65 14 27V21.98L17.89 22C18.62 22 19.34 22.17 20 22.5C20.66 22.83 21.38 23 22.12 23H26Z" fill="#F87887"/>
<path opacity="0.2" d="M26 18.83V23H22.12C21.38 23 20.66 22.83 20 22.5C19.34 22.17 18.62 22 17.89 22L14 21.98V18.83C14 18.37 14.26 17.74 14.59 17.41L16.71 15.29C16.89 15.11 17 14.85 17 14.59V12.91C17.16 12.97 17.32 13 17.5 13H22.5C22.68 13 22.84 12.97 23 12.91V14.59C23 14.85 23.11 15.11 23.29 15.29L25.41 17.41C25.74 17.74 26 18.37 26 18.83Z" fill="#F87887"/>
<path d="M22.5 10H17.5C16.67 10 16 10.67 16 11.5C16 12.15 16.42 12.71 17 12.91C17.16 12.97 17.32 13 17.5 13H22.5C22.68 13 22.84 12.97 23 12.91C23.58 12.71 24 12.15 24 11.5C24 10.67 23.33 10 22.5 10Z" fill="#F87887"/>
</svg>
