<svg width="82" height="82" viewBox="0 0 82 82" fill="none" xmlns="http://www.w3.org/2000/svg">
<rect x="1" y="1" width="80" height="80" rx="20" fill="#153853" fill-opacity="0.1"/>
<path d="M53.067 21.8344C53.0064 21.7719 52.9335 21.7228 52.8528 21.6903C52.7721 21.6577 52.6855 21.6424 52.5986 21.6454C52.512 21.6471 52.4267 21.6662 52.3476 21.7015C52.2686 21.7369 52.1975 21.7878 52.1386 21.8512L49.7418 24.4318C49.6285 24.5531 49.5663 24.7133 49.5681 24.8793C49.5699 25.0452 49.6356 25.204 49.7515 25.3228L49.9334 25.5099L48.9818 26.4615L47.4786 26.086C46.8212 25.9239 46.133 25.9343 45.4808 26.1163C44.8286 26.2983 44.2345 26.6457 43.756 27.1247L40.2076 30.8531L36.5134 27.1589C36.0682 26.711 35.5064 26.3966 34.8917 26.2515C34.277 26.1063 33.6339 26.1362 33.0353 26.3376C32.9626 26.362 32.8947 26.3989 32.8347 26.4467L32.6728 26.5757L32.2586 26.1376L33.0689 25.3273C33.1898 25.2063 33.2578 25.0423 33.2578 24.8712C33.2578 24.7001 33.1898 24.536 33.0689 24.4151L30.4882 21.8344C30.3673 21.7135 30.2032 21.6455 30.0321 21.6455C29.861 21.6455 29.697 21.7135 29.576 21.8344L21.1889 30.2215C21.0679 30.3425 21 30.5066 21 30.6776C21 30.8487 21.0679 31.0128 21.1889 31.1338L23.7695 33.7144C23.8905 33.8354 24.0546 33.9033 24.2257 33.9033C24.3967 33.9033 24.5608 33.8354 24.6818 33.7144L24.9734 33.4228L26.5018 34.9518L26.1263 36.4551C25.9644 37.1053 25.9722 37.7862 26.1489 38.4326C26.3256 39.079 26.6652 39.6692 27.1353 40.1467L32.116 45.5699C32.4432 45.8758 32.8318 46.1085 33.256 46.2525V50.8841C33.2546 51.4377 33.4081 51.9808 33.6992 52.4517C33.9903 52.9227 34.4073 53.3029 34.9031 53.5493C35.1844 53.6884 35.421 53.9038 35.5861 54.1708C35.7511 54.4378 35.8379 54.7457 35.8366 55.0596V55.1938H35.1915C35.0204 55.1938 34.8563 55.2617 34.7353 55.3827C34.6143 55.5037 34.5463 55.6678 34.5463 55.8389V59.0647C34.5463 59.2358 34.6143 59.3999 34.7353 59.5209C34.8563 59.6419 35.0204 59.7099 35.1915 59.7099H47.4495C47.6206 59.7099 47.7847 59.6419 47.9057 59.5209C48.0267 59.3999 48.0947 59.2358 48.0947 59.0647V55.8389C48.0947 55.6678 48.0267 55.5037 47.9057 55.3827C47.7847 55.2617 47.6206 55.1938 47.4495 55.1938H46.8044V54.5325L47.5566 53.788C48.1151 53.4348 48.5754 52.9465 48.895 52.3682C49.2146 51.7899 49.3831 51.1403 49.385 50.4796V42.8596C49.8709 42.9391 50.369 42.8961 50.834 42.7344C51.2991 42.5727 51.7164 42.2975 52.0482 41.9338L55.4586 38.2305C55.8516 37.8404 56.1273 37.3479 56.2545 36.8089C56.3816 36.27 56.3551 35.7062 56.1779 35.1815C56.0747 34.8705 56.6295 33.8525 57.2928 33.0718C57.411 33.1888 57.5697 33.2556 57.736 33.2583H57.7424C57.9116 33.2577 58.0738 33.1908 58.1941 33.0718L60.8044 30.4912C60.8647 30.4312 60.9125 30.36 60.9451 30.2815C60.9778 30.203 60.9946 30.1188 60.9946 30.0338C60.9946 29.9488 60.9778 29.8646 60.9451 29.7861C60.9125 29.7076 60.8647 29.6363 60.8044 29.5763L53.067 21.8344ZM24.4779 32.017C24.4158 32.0787 24.3672 32.1528 24.3353 32.2344L24.2237 32.346L22.5553 30.6776L30.0302 23.2028L31.6986 24.8712L31.0702 25.4996C30.994 25.5291 30.9241 25.5729 30.8644 25.6286L24.4779 32.017ZM33.256 44.5854V44.837C33.1801 44.7917 33.1095 44.7381 33.0457 44.677L28.0644 39.2538C27.7459 38.9332 27.5153 38.5361 27.3948 38.1006C27.2742 37.6652 27.2677 37.206 27.376 36.7673L27.8399 34.9105C27.867 34.8025 27.8657 34.6892 27.8361 34.5818C27.8065 34.4744 27.7495 34.3765 27.6708 34.2976L25.8837 32.5105L31.3437 27.0505L32.1418 27.8951C32.2533 28.013 32.4051 28.0846 32.567 28.0956C32.7289 28.1066 32.889 28.0562 33.0153 27.9544L33.545 27.528C33.9046 27.4272 34.2846 27.4243 34.6457 27.5194C35.0068 27.6146 35.336 27.8044 35.5992 28.0693L39.3153 31.786L38.7115 32.4202C38.5157 32.3641 38.3132 32.3346 38.1095 32.3325C37.9838 32.3251 37.8576 32.327 37.7321 32.3383C37.1773 32.4128 36.672 32.6965 36.3196 33.1314C35.9672 33.5663 35.7945 34.1195 35.8366 34.6776V41.4241C35.1086 41.5739 34.4544 41.9702 33.9843 42.546C33.5143 43.1218 33.257 43.8421 33.256 44.5854ZM46.8044 58.4196H35.8366V56.4841H46.8044V58.4196ZM48.0947 42.0434V50.4796C48.0934 50.9313 47.9758 51.3752 47.7532 51.7683C47.5305 52.1614 47.2105 52.4906 46.8237 52.7241C46.7796 52.7505 46.7389 52.7821 46.7024 52.8183L45.7076 53.8041C45.6464 53.8638 45.5977 53.9351 45.5644 54.0139C45.5312 54.0927 45.5141 54.1773 45.5141 54.2628V55.1938H37.127V55.0596C37.1288 54.5059 36.9755 53.9628 36.6844 53.4918C36.3932 53.0209 35.976 52.6409 35.4799 52.3951C35.1984 52.2558 34.9617 52.0404 34.7967 51.7733C34.6317 51.5062 34.5449 51.1981 34.5463 50.8841V44.5854C34.548 44.1865 34.6728 43.7979 34.9038 43.4727C35.1348 43.1475 35.4606 42.9016 35.8366 42.7686V46.8067H37.127V34.6776C37.1184 34.4288 37.2001 34.1852 37.3569 33.9919C37.5138 33.7985 37.7353 33.6683 37.9805 33.6254C38.2619 33.6322 38.5319 33.738 38.7431 33.9241C38.8396 34.0062 38.9181 34.1074 38.9736 34.2213C39.0292 34.3352 39.0605 34.4594 39.0657 34.586V44.226H40.356V33.2951C40.3559 33.1593 40.3843 33.025 40.4395 32.901C40.4946 32.7769 40.5753 32.6659 40.6762 32.575C40.777 32.4842 40.8959 32.4156 41.025 32.3737C41.1542 32.3318 41.2907 32.3175 41.4257 32.3318C41.6731 32.3729 41.8972 32.5027 42.056 32.6969C42.2147 32.8912 42.2973 33.1366 42.2882 33.3873V44.226H43.5786V35.2305C43.5785 35.0948 43.6069 34.9605 43.6621 34.8365C43.7172 34.7124 43.7979 34.6014 43.8987 34.5105C43.9996 34.4197 44.1185 34.3511 44.2476 34.3092C44.3767 34.2673 44.5132 34.253 44.6483 34.2673C44.8963 34.3077 45.1211 34.4372 45.2805 34.6315C45.4399 34.8258 45.523 35.0716 45.5141 35.3228V44.226H46.8044V38.8976C47.1804 39.0306 47.5063 39.2765 47.7372 39.6017C47.9682 39.9269 48.093 40.3155 48.0947 40.7144V42.0434ZM54.9547 35.5918C55.0551 35.8937 55.0683 36.2177 54.9929 36.5267C54.9174 36.8358 54.7564 37.1173 54.5282 37.3389L51.1179 41.0428C50.8944 41.2659 50.6194 41.4307 50.3173 41.5227C50.0151 41.6147 49.695 41.6312 49.385 41.5705V40.7144C49.384 39.9711 49.1267 39.2508 48.6567 38.675C48.1866 38.0992 47.5324 37.703 46.8044 37.5531V35.3228C46.8115 34.7523 46.609 34.199 46.2352 33.7679C45.8615 33.3368 45.3424 33.0579 44.7766 32.9841C44.3629 32.942 43.9457 33.0151 43.5708 33.1951C43.5602 33.0619 43.5387 32.9298 43.5063 32.8002C43.4953 32.7589 43.4786 32.7202 43.4663 32.6796C43.4415 32.5946 43.4122 32.5111 43.3786 32.4293C43.3586 32.3828 43.3328 32.3402 43.3095 32.2951C43.2734 32.2247 43.2386 32.1544 43.196 32.0886C43.167 32.0434 43.1315 32.0022 43.1018 31.9596C43.0573 31.8996 43.0134 31.8402 42.9637 31.7847C42.927 31.7441 42.8876 31.7067 42.8482 31.6686C42.796 31.6183 42.7437 31.5693 42.6876 31.5241C42.6444 31.4893 42.5992 31.4596 42.5534 31.4267C42.4947 31.386 42.4353 31.348 42.3734 31.3131C42.3244 31.286 42.2741 31.2615 42.2231 31.2383C42.1586 31.2086 42.0941 31.1828 42.0295 31.1596C41.9753 31.1409 41.9212 31.1247 41.8657 31.1099C41.8341 31.1022 41.8044 31.0886 41.7721 31.0822L44.6837 28.0247C45.0044 27.7064 45.4015 27.4759 45.8369 27.3552C46.2723 27.2346 46.7314 27.2278 47.1702 27.3357L49.027 27.8002C49.1351 27.8273 49.2484 27.8259 49.3558 27.7961C49.4632 27.7664 49.5611 27.7094 49.6399 27.6305L50.7541 26.5163L56.3915 32.1538C55.7902 32.8486 54.5747 34.4505 54.9547 35.5899V35.5918ZM57.7515 31.6989L57.5947 31.5376L57.5753 31.5189L51.1044 24.8609L52.6276 23.2196L59.4379 30.0325L57.7515 31.6989Z" fill="#153853"/>
<rect x="1" y="1" width="80" height="80" rx="20" stroke="#153853"/>
</svg>
