<svg width="32" height="33" viewBox="0 0 32 33" fill="none" xmlns="http://www.w3.org/2000/svg">
<rect width="32" height="32" transform="translate(0 0.177124)" fill="#DDA36D" fill-opacity="0.33"/>
<path d="M27 4.82288H5V26.8229H27V4.82288Z" fill="#001117"/>
<path d="M25.7659 10.3444C25.7634 10.3398 25.7615 10.335 25.7589 10.3304C25.7577 10.3284 25.7564 10.3266 25.7552 10.3247C25.618 10.0893 25.4205 9.89472 25.183 9.76111L16.7517 5.01842C16.522 4.89019 16.2632 4.82288 16.0001 4.82288C15.737 4.82288 15.4783 4.89019 15.2486 5.01842L6.81701 9.76115C6.57867 9.89539 6.38061 10.091 6.24339 10.3276C6.24191 10.3302 6.24013 10.3325 6.23868 10.3351C6.23634 10.3393 6.23466 10.3437 6.23241 10.3479C6.10367 10.5767 6.03591 10.8347 6.03564 11.0972V20.5484C6.03586 20.8203 6.10832 21.0874 6.24563 21.3221C6.38294 21.5569 6.58016 21.751 6.81711 21.8845L15.2486 26.6272C15.461 26.746 15.6987 26.8123 15.9418 26.8209C15.9593 26.8223 15.9766 26.8239 15.9944 26.824H16.0013C16.0254 26.824 16.0492 26.8226 16.0728 26.8204C16.3111 26.8098 16.5435 26.7436 16.7516 26.6272L25.183 21.8845C25.42 21.751 25.6173 21.5569 25.7546 21.3222C25.8919 21.0874 25.9643 20.8203 25.9645 20.5484V11.0972C25.9643 10.8334 25.8959 10.5741 25.7659 10.3444ZM16.0001 6.35455L23.6405 10.6523L20.7066 12.319L12.9762 8.05544L16.0001 6.35455ZM16.0873 14.9434L8.37143 10.6457L11.4048 8.93941L19.1431 13.2073L16.0873 14.9434ZM16.7782 24.8533L16.8536 16.2711L19.9305 14.5231V18.1712C19.9305 18.3745 20.0113 18.5695 20.155 18.7132C20.2988 18.857 20.4937 18.9377 20.697 18.9377C20.9003 18.9377 21.0953 18.857 21.239 18.7132C21.3828 18.5695 21.4635 18.3745 21.4635 18.1712V13.6522L24.4315 11.966V20.5484L16.7782 24.8533Z" fill="#001117"/>
</svg>
