<svg width="82" height="82" viewBox="0 0 82 82" fill="none" xmlns="http://www.w3.org/2000/svg">
<rect x="1" y="1" width="80" height="80" rx="20" fill="#153853" fill-opacity="0.1"/>
<path d="M60.0842 48.563H48.5176C48.3813 48.563 48.2505 48.6171 48.1541 48.7134C48.0577 48.8098 48.0035 48.9404 48.0034 49.0767V53.7038H36.9509C36.8146 53.7038 36.6839 53.7579 36.5875 53.8543C36.491 53.9506 36.4368 54.0813 36.4367 54.2176V58.8426H21.5288C21.4601 58.8406 21.3917 58.8525 21.3276 58.8774C21.2635 58.9024 21.2051 58.9399 21.1558 58.9878C21.1065 59.0357 21.0673 59.0931 21.0406 59.1564C21.0138 59.2197 21 59.2878 21 59.3565C21 59.4253 21.0138 59.4933 21.0406 59.5567C21.0673 59.62 21.1065 59.6773 21.1558 59.7252C21.2051 59.7732 21.2635 59.8107 21.3276 59.8356C21.3917 59.8606 21.4601 59.8724 21.5288 59.8705H36.9509C37.0184 59.8705 37.0852 59.8572 37.1475 59.8314C37.2098 59.8056 37.2665 59.7677 37.3142 59.72C37.3619 59.6723 37.3997 59.6157 37.4255 59.5533C37.4513 59.491 37.4646 59.4242 37.4646 59.3567V54.7317H48.5176C48.6538 54.7316 48.7845 54.6774 48.8809 54.581C48.9772 54.4846 49.0313 54.3539 49.0313 54.2176V49.5926H60.0842C60.218 49.5888 60.345 49.5329 60.4383 49.437C60.5316 49.341 60.5837 49.2124 60.5837 49.0786C60.5837 48.9448 60.5316 48.8162 60.4383 48.7203C60.345 48.6243 60.218 48.5685 60.0842 48.5647V48.563Z" fill="#153853"/>
<path d="M33.738 28.0002C34.3478 28.0002 34.944 27.8193 35.451 27.4805C35.9581 27.1417 36.3533 26.6602 36.5866 26.0968C36.82 25.5334 36.8811 24.9134 36.7621 24.3153C36.6431 23.7172 36.3495 23.1678 35.9182 22.7366C35.487 22.3054 34.9376 22.0117 34.3395 21.8927C33.7414 21.7738 33.1215 21.8348 32.5581 22.0682C31.9947 22.3016 31.5131 22.6968 31.1743 23.2038C30.8355 23.7109 30.6547 24.307 30.6547 24.9168C30.6558 25.7342 30.981 26.5179 31.559 27.0959C32.137 27.6739 32.9206 27.9991 33.738 28.0002ZM33.738 22.8593C34.1448 22.8593 34.5424 22.98 34.8806 23.2059C35.2188 23.4319 35.4824 23.7531 35.6381 24.1289C35.7938 24.5048 35.8345 24.9183 35.7551 25.3172C35.6758 25.7162 35.4799 26.0827 35.1923 26.3703C34.9046 26.6579 34.5382 26.8538 34.1392 26.9331C33.7403 27.0125 33.3268 26.9718 32.9509 26.8161C32.5751 26.6604 32.2539 26.3968 32.0279 26.0586C31.802 25.7204 31.6813 25.3228 31.6813 24.916C31.6819 24.3707 31.8987 23.8479 32.2843 23.4623C32.6699 23.0767 33.1927 22.8599 33.738 22.8593Z" fill="#153853"/>
<path d="M30.6554 50.8854C31.6545 48.5551 32.33 46.0989 32.6629 43.5854C32.6735 43.5177 32.6704 43.4486 32.6538 43.3821C32.6373 43.3157 32.6076 43.2532 32.5666 43.1983C32.5255 43.1435 32.4739 43.0974 32.4148 43.0627C32.3557 43.0281 32.2903 43.0056 32.2224 42.9966C32.1545 42.9876 32.0855 42.9923 32.0194 43.0104C31.9533 43.0284 31.8915 43.0595 31.8376 43.1018C31.7837 43.144 31.7388 43.1967 31.7055 43.2565C31.6722 43.3164 31.6512 43.3823 31.6438 43.4504C31.3227 45.8709 30.6723 48.2361 29.7104 50.4804L27.5863 55.435C27.4903 55.6527 27.4384 55.8872 27.4336 56.1251C27.4288 56.3629 27.4713 56.5993 27.5585 56.8207C27.6457 57.042 27.7759 57.2439 27.9417 57.4145C28.1074 57.5852 28.3053 57.7213 28.524 57.815C28.7427 57.9087 28.9778 57.958 29.2157 57.9602C29.4536 57.9624 29.6895 57.9174 29.9099 57.8279C30.1303 57.7383 30.3307 57.6059 30.4996 57.4383C30.6685 57.2707 30.8025 57.0713 30.8938 56.8517L33.0188 51.8962C33.9908 49.6275 34.6832 47.2489 35.0804 44.8129C35.1025 44.6783 35.0702 44.5403 34.9907 44.4295C34.9111 44.3187 34.7907 44.244 34.6561 44.2219C34.5214 44.1998 34.3835 44.2321 34.2727 44.3117C34.1618 44.3912 34.0871 44.5116 34.065 44.6462C33.6817 47.0009 33.0127 49.3001 32.0729 51.4929L29.9479 56.4483C29.8651 56.6343 29.7131 56.7806 29.5241 56.8563C29.3352 56.932 29.1241 56.9311 28.9359 56.8537C28.748 56.7731 28.5998 56.6211 28.5238 56.4313C28.4478 56.2415 28.4502 56.0293 28.5304 55.8412L30.6554 50.8854Z" fill="#153853"/>
<path d="M36.4634 34.4928C36.4202 34.6221 36.4302 34.7633 36.4912 34.8853C36.5521 35.0072 36.659 35.1 36.7884 35.1432L39.7646 36.1357C39.9586 36.2004 40.1189 36.3395 40.2103 36.5224C40.3017 36.7054 40.3168 36.9171 40.2521 37.1111C40.1854 37.3037 40.0461 37.4625 39.8638 37.5537C39.6815 37.6449 39.4708 37.6611 39.2767 37.599L37.1125 36.8773C36.9832 36.8342 36.8421 36.8443 36.7202 36.9052C36.5983 36.9662 36.5056 37.073 36.4625 37.2023C36.4194 37.3316 36.4295 37.4727 36.4904 37.5946C36.5514 37.7165 36.6582 37.8092 36.7875 37.8523L38.95 38.5736C39.1741 38.6484 39.4108 38.6784 39.6465 38.6617C39.8822 38.6451 40.1123 38.5822 40.3237 38.4766C40.5351 38.3711 40.7236 38.2249 40.8785 38.0465C41.0334 37.868 41.1517 37.6608 41.2265 37.4367C41.3013 37.2126 41.3313 36.9759 41.3146 36.7402C41.298 36.5045 41.2351 36.2744 41.1295 36.063C41.024 35.8516 40.8778 35.6631 40.6994 35.5082C40.5209 35.3533 40.3137 35.2351 40.0896 35.1603L37.1125 34.1678C36.9833 34.1249 36.8424 34.135 36.7207 34.196C36.599 34.2569 36.5064 34.3636 36.4634 34.4928Z" fill="#153853"/>
<path d="M22.0501 46.6436L28.441 47.3149C28.4825 47.3194 28.5242 47.3217 28.566 47.3216C28.8514 47.3211 29.1266 47.2151 29.3385 47.0238C29.5503 46.8326 29.6839 46.5696 29.7135 46.2857L30.1172 42.4524C30.1487 42.1474 30.058 41.8423 29.8649 41.6041C29.6718 41.3659 29.3921 41.2139 29.0872 41.1816L22.6951 40.5078C22.3901 40.4757 22.0848 40.5661 21.8464 40.7591C21.608 40.9521 21.456 41.2319 21.4239 41.537L21.021 45.3703C20.989 45.6756 21.0794 45.981 21.2723 46.2197C21.4652 46.4584 21.745 46.6109 22.0501 46.6436ZM22.4468 41.6436C22.4534 41.6129 22.4698 41.5851 22.4935 41.5644C22.5173 41.5437 22.5471 41.5313 22.5785 41.5291H22.5872L28.978 42.2003C29.0121 42.2039 29.0433 42.2208 29.0648 42.2474C29.0864 42.2739 29.0965 42.3079 29.093 42.342L28.6893 46.1753C28.6852 46.2088 28.6683 46.2394 28.6421 46.2607C28.6159 46.282 28.5825 46.2923 28.5489 46.2895L22.158 45.6203C22.1242 45.6166 22.0932 45.5997 22.0718 45.5732C22.0504 45.5468 22.0404 45.5129 22.0439 45.4791L22.4468 41.6436Z" fill="#153853"/>
<path d="M24.2647 40.4135C24.3544 40.4232 24.4451 40.4091 24.5277 40.3725C24.6102 40.3359 24.6816 40.2782 24.7347 40.2051L27.2584 40.4705C27.2952 40.553 27.3531 40.6243 27.4263 40.6772C27.4994 40.73 27.5853 40.7627 27.6751 40.7718C27.6933 40.7739 27.7117 40.775 27.7301 40.7751C27.8567 40.775 27.9788 40.7281 28.0731 40.6436C28.1673 40.559 28.2271 40.4427 28.2409 40.3168C28.2601 40.1756 28.2369 40.0319 28.1744 39.9039C28.1119 39.7759 28.0128 39.6693 27.8897 39.5976L28.353 35.4281L31.9363 33.4731V40.7231C31.936 41.0434 32.0218 41.3579 32.1847 41.6337C32.3477 41.9094 32.5818 42.1363 32.8626 42.2906C32.8841 42.3061 32.9068 42.3201 32.9305 42.3322L37.9013 44.8181L39.0313 51.3131C39.1025 51.7316 39.32 52.1113 39.6451 52.3844C39.9702 52.6576 40.3817 52.8064 40.8063 52.8043C40.9103 52.8044 41.014 52.7953 41.1163 52.7772C41.5861 52.6946 42.004 52.4292 42.2784 52.0391C42.5528 51.649 42.6615 51.166 42.5805 50.696L41.4313 44.1068C41.3396 43.5815 41.1259 43.085 40.8075 42.6572C40.4891 42.2293 40.0749 41.8822 39.598 41.6435L35.5342 39.611V30.4443C35.5343 30.4151 35.5318 30.386 35.5267 30.3572C35.5128 30.053 35.4217 29.7574 35.262 29.4982C35.1023 29.2389 34.8793 29.0246 34.6139 28.8753C34.3485 28.7261 34.0494 28.6468 33.745 28.6451C33.4405 28.6433 33.1405 28.719 32.8734 28.8651L25.8063 32.7193C25.5525 32.858 25.3359 33.0559 25.1748 33.2961C25.0137 33.5363 24.9129 33.8118 24.8809 34.0993L24.3138 39.2106C24.1785 39.2592 24.0595 39.3446 23.9702 39.4572C23.8809 39.5699 23.8249 39.7052 23.8084 39.8481C23.794 39.9835 23.834 40.1191 23.9196 40.2251C24.0051 40.3312 24.1292 40.3989 24.2647 40.4135ZM25.9026 34.2131C25.9164 34.0899 25.9596 33.9719 26.0285 33.8689C26.0975 33.7659 26.1902 33.681 26.2988 33.6214L33.3688 29.7655C33.4857 29.6999 33.6177 29.6663 33.7517 29.668C33.8857 29.6698 34.0169 29.7068 34.132 29.7755C34.2471 29.8441 34.342 29.9419 34.4072 30.059C34.4725 30.176 34.5056 30.3082 34.5034 30.4422C34.5034 30.4675 34.5054 30.4927 34.5092 30.5176V39.9289C34.5093 40.0242 34.5359 40.1175 34.5861 40.1985C34.6363 40.2795 34.7081 40.3448 34.7934 40.3872L39.1417 42.5614C39.4742 42.7283 39.763 42.9708 39.9849 43.2694C40.2068 43.568 40.3557 43.9145 40.4197 44.281L41.5663 50.8706C41.5863 50.9713 41.5859 51.0751 41.5651 51.1757C41.5444 51.2764 41.5038 51.3719 41.4457 51.4566C41.3875 51.5413 41.3131 51.6136 41.2266 51.6691C41.1402 51.7246 41.0435 51.7623 40.9423 51.78C40.8411 51.7976 40.7373 51.7949 40.6372 51.7719C40.537 51.7489 40.4425 51.7062 40.3591 51.6461C40.2757 51.5861 40.2052 51.51 40.1516 51.4223C40.098 51.3346 40.0625 51.2371 40.0472 51.1356L38.9013 44.5476C38.8791 44.4182 38.8267 44.2957 38.7484 44.1903C38.67 44.0848 38.568 43.9993 38.4505 43.9405L33.4526 41.4405C33.4344 41.4284 33.4155 41.4174 33.3959 41.4076C33.2677 41.3447 33.1596 41.2471 33.0838 41.126C33.0081 41.0049 32.9677 40.8651 32.9672 40.7222V32.6068C32.9672 32.5176 32.9441 32.43 32.9 32.3524C32.8559 32.2749 32.7924 32.2102 32.7157 32.1647C32.639 32.1192 32.5518 32.0944 32.4626 32.0928C32.3735 32.0912 32.2854 32.1128 32.2072 32.1555L27.6272 34.6556C27.5545 34.695 27.4924 34.7514 27.4462 34.8201C27.4001 34.8887 27.3712 34.9675 27.3622 35.0497L26.8788 39.3981L25.3455 39.2368L25.9026 34.2131Z" fill="#153853"/>
<rect x="1" y="1" width="80" height="80" rx="20" stroke="#153853"/>
</svg>
