<svg width="29" height="28" viewBox="0 0 29 28" fill="none" xmlns="http://www.w3.org/2000/svg">
<rect x="0.936768" y="0.25" width="26.9874" height="26.9874" rx="4.75" stroke="#EEF9F8" stroke-width="0.5"/>
<path d="M21.5419 9.55466C21.0445 9.77504 20.5102 9.92396 19.9485 9.99126C20.5281 9.64448 20.9617 9.09867 21.1684 8.4557C20.6239 8.77913 20.0279 9.00678 19.4065 9.12877C18.9886 8.68256 18.435 8.3868 17.8318 8.28741C17.2286 8.18803 16.6094 8.29058 16.0704 8.57915C15.5315 8.86771 15.1028 9.32615 14.8511 9.88327C14.5994 10.4404 14.5386 11.0651 14.6783 11.6603C13.575 11.6049 12.4956 11.3181 11.5103 10.8186C10.525 10.319 9.65573 9.61789 8.95892 8.76067C8.72066 9.17166 8.58367 9.64817 8.58367 10.1557C8.5834 10.6125 8.69591 11.0624 8.9112 11.4653C9.12649 11.8683 9.43791 12.2118 9.81784 12.4656C9.37723 12.4515 8.94634 12.3325 8.56103 12.1183V12.154C8.56099 12.7948 8.78263 13.4158 9.18835 13.9118C9.59407 14.4077 10.1589 14.748 10.7869 14.8749C10.3782 14.9855 9.94968 15.0018 9.53372 14.9226C9.71092 15.4739 10.0561 15.956 10.5209 16.3014C10.9857 16.6469 11.5469 16.8383 12.1259 16.8489C11.143 17.6205 9.92916 18.039 8.67957 18.0372C8.45821 18.0373 8.23705 18.0243 8.01721 17.9985C9.28562 18.814 10.7621 19.2468 12.2701 19.2452C17.3747 19.2452 20.1653 15.0173 20.1653 11.3505C20.1653 11.2314 20.1623 11.1111 20.157 10.9919C20.6998 10.5994 21.1683 10.1133 21.5407 9.55644L21.5419 9.55466Z" fill="white"/>
</svg>
