<svg width="13" height="12" viewBox="0 0 13 12" fill="none" xmlns="http://www.w3.org/2000/svg">
<path d="M12.25 2.76855H0.25V3.69152H12.25V2.76855Z" fill="#F5F5F5"/>
<path d="M11.6235 0.921875H0.876973C0.649395 1.18883 0.474316 1.50195 0.367676 1.84507H12.1326C12.0262 1.50195 11.8511 1.18883 11.6235 0.921875Z" fill="#F5F5F5"/>
<path d="M12.25 4.61523H0.25V5.5382H12.25V4.61523Z" fill="#F5F5F5"/>
<path d="M12.25 6.45996H0.25V7.38293H12.25V6.45996Z" fill="#F5F5F5"/>
<path d="M12.25 8.30664H0.25V9.22961H12.25V8.30664Z" fill="#F5F5F5"/>
<path d="M12.1328 10.1533H0.367676C0.474082 10.4964 0.64916 10.8096 0.876738 11.0763H11.6235C11.8511 10.8096 12.0262 10.4967 12.1328 10.1533Z" fill="#F5F5F5"/>
<path d="M9.62475 0H2.87475C2.07436 0 1.35787 0.358359 0.876465 0.922969H11.6233C11.1416 0.358359 10.4251 0 9.62475 0Z" fill="#FF4B55"/>
<path d="M12.25 3.69336H0.25V4.61633H12.25V3.69336Z" fill="#FF4B55"/>
<path d="M12.25 2.62551C12.25 2.35434 12.2087 2.09277 12.1326 1.84668H0.367422C0.291016 2.09277 0.25 2.35434 0.25 2.62551V2.76965H12.25V2.62551Z" fill="#FF4B55"/>
<path d="M12.25 5.53809H0.25V6.46105H12.25V5.53809Z" fill="#FF4B55"/>
<path d="M12.25 9.37559V9.23145H0.25V9.37559C0.25 9.64676 0.291016 9.90832 0.367422 10.1544H12.1323C12.2088 9.90832 12.25 9.64676 12.25 9.37559Z" fill="#FF4B55"/>
<path d="M11.623 11.0771H0.876465C1.35787 11.642 2.07436 12.0004 2.87475 12.0004H9.62475C10.4251 12.0004 11.1416 11.642 11.623 11.0771Z" fill="#FF4B55"/>
<path d="M12.25 7.38477H0.25V8.30773H12.25V7.38477Z" fill="#FF4B55"/>
<path d="M6.71148 0H2.875C1.42516 0 0.25 1.17516 0.25 2.625V6.46148H6.71148V0Z" fill="#41479B"/>
<path d="M0.947449 1.00903C0.941355 1.02848 0.963386 1.04442 0.980027 1.0327L1.108 0.94129L1.23596 1.0327C1.25261 1.04465 1.27464 1.02848 1.26854 1.00903L1.22096 0.859024L1.34753 0.765508C1.36393 0.753321 1.3555 0.727305 1.33511 0.727305L1.17784 0.726133L1.15089 0.645508C1.08339 0.704336 1.01917 0.766446 0.957996 0.831837L0.994792 0.859024L0.947449 1.00903Z" fill="#F5F5F5"/>
<path d="M1.12796 1.82301L1.17765 1.9723L1.33491 1.97348C1.3553 1.97371 1.36374 1.99973 1.34733 2.01168L1.22077 2.1052L1.26835 2.2552C1.27444 2.27465 1.25241 2.29059 1.23577 2.27887L1.1078 2.18746L0.979834 2.27887C0.963193 2.29082 0.941162 2.27465 0.947256 2.2552L0.9946 2.1052L0.868037 2.01168C0.851631 1.99949 0.860068 1.97348 0.880459 1.97348L1.03772 1.9723L1.08741 1.82301C1.09397 1.80379 1.1214 1.80379 1.12796 1.82301Z" fill="#F5F5F5"/>
<path d="M1.12796 3.20355L1.17765 3.35285L1.33491 3.35402C1.3553 3.35426 1.36374 3.38027 1.34733 3.39223L1.22077 3.48574L1.26835 3.63574C1.27444 3.6552 1.25241 3.67113 1.23577 3.65942L1.1078 3.56801L0.979834 3.65942C0.963193 3.67137 0.941162 3.6552 0.947256 3.63574L0.9946 3.48574L0.868037 3.39223C0.851631 3.38004 0.860068 3.35402 0.880459 3.35402L1.03772 3.35285L1.08741 3.20355C1.09397 3.1841 1.1214 3.1841 1.12796 3.20355Z" fill="#F5F5F5"/>
<path d="M1.12796 4.4734L1.17765 4.6227L1.33491 4.62387C1.3553 4.6241 1.36374 4.65012 1.34733 4.66207L1.22077 4.75559L1.26835 4.90559C1.27444 4.92505 1.25241 4.94098 1.23577 4.92927L1.1078 4.83786L0.979834 4.92927C0.963193 4.94122 0.941162 4.92505 0.947256 4.90559L0.9946 4.75559L0.868037 4.66207C0.851631 4.64989 0.860068 4.62387 0.880459 4.62387L1.03772 4.6227L1.08741 4.4734C1.09397 4.45418 1.1214 4.45418 1.12796 4.4734Z" fill="#F5F5F5"/>
<path d="M1.12796 5.62738L1.17765 5.77668L1.33491 5.77785C1.3553 5.77809 1.36374 5.8041 1.34733 5.81605L1.22077 5.90957L1.26835 6.05957C1.27444 6.07902 1.25241 6.09496 1.23577 6.08324L1.1078 5.99184L0.979834 6.08324C0.963193 6.0952 0.941162 6.07902 0.947256 6.05957L0.9946 5.90957L0.868037 5.81605C0.851631 5.80387 0.860068 5.77785 0.880459 5.77785L1.03772 5.77668L1.08741 5.62738C1.09397 5.60793 1.1214 5.60793 1.12796 5.62738Z" fill="#F5F5F5"/>
<path d="M1.7349 1.16771L1.78459 1.317L1.94186 1.31817C1.96225 1.31841 1.97069 1.34442 1.95428 1.35638L1.82772 1.44989L1.87529 1.59989C1.88139 1.61935 1.85936 1.63528 1.84272 1.62356L1.71475 1.53216L1.58678 1.6238C1.57014 1.63575 1.54811 1.61958 1.5542 1.60013L1.60178 1.45013L1.47522 1.35661C1.45881 1.34442 1.46725 1.31841 1.48764 1.31841L1.6449 1.31724L1.69459 1.16794C1.70115 1.14849 1.72834 1.14849 1.7349 1.16771Z" fill="#F5F5F5"/>
<path d="M1.7349 2.54762L1.78459 2.69691L1.94186 2.69809C1.96225 2.69832 1.97069 2.72434 1.95428 2.73629L1.82772 2.8298L1.87529 2.9798C1.88139 2.99926 1.85936 3.0152 1.84272 3.00348L1.71475 2.91207L1.58678 3.00348C1.57014 3.01543 1.54811 2.99926 1.5542 2.9798L1.60178 2.8298L1.47522 2.73629C1.45881 2.7241 1.46725 2.69809 1.48764 2.69809L1.6449 2.69691L1.69459 2.54762C1.70115 2.5284 1.72834 2.5284 1.7349 2.54762Z" fill="#F5F5F5"/>
<path d="M1.7349 3.86078L1.78459 4.01008L1.94186 4.01125C1.96225 4.01148 1.97069 4.0375 1.95428 4.04945L1.82772 4.14297L1.87529 4.29297C1.88139 4.31242 1.85936 4.32836 1.84272 4.31664L1.71475 4.22523L1.58678 4.31664C1.57014 4.32859 1.54811 4.31242 1.5542 4.29297L1.60178 4.14297L1.47522 4.04945C1.45881 4.03727 1.46725 4.01125 1.48764 4.01125L1.6449 4.01008L1.69459 3.86078C1.70115 3.84133 1.72834 3.84133 1.7349 3.86078Z" fill="#F5F5F5"/>
<path d="M1.7349 5.03998L1.78459 5.18928L1.94186 5.19045C1.96225 5.19068 1.97069 5.2167 1.95428 5.22865L1.82772 5.32217L1.87529 5.47217C1.88139 5.49162 1.85936 5.50756 1.84272 5.49584L1.71475 5.40443L1.58678 5.49584C1.57014 5.50779 1.54811 5.49162 1.5542 5.47217L1.60178 5.32217L1.47522 5.22865C1.45881 5.21646 1.46725 5.19045 1.48764 5.19045L1.6449 5.18928L1.69459 5.03998C1.70115 5.02053 1.72834 5.02053 1.7349 5.03998Z" fill="#F5F5F5"/>
<path d="M2.33964 0.57709L2.38933 0.726387L2.54659 0.727559C2.56698 0.727794 2.57542 0.753809 2.55901 0.765762L2.43245 0.859278L2.48003 1.00928C2.48612 1.02873 2.46409 1.04467 2.44745 1.03295L2.31948 0.941544L2.19151 1.03295C2.17487 1.0449 2.15284 1.02873 2.15894 1.00928L2.20651 0.859278L2.07995 0.765762C2.06355 0.753575 2.07198 0.727559 2.09237 0.727559L2.24964 0.726387L2.29933 0.57709C2.30589 0.557637 2.33331 0.557637 2.33964 0.57709Z" fill="#F5F5F5"/>
<path d="M2.33964 1.82301L2.38933 1.9723L2.54659 1.97348C2.56698 1.97371 2.57542 1.99973 2.55901 2.01168L2.43245 2.1052L2.48003 2.2552C2.48612 2.27465 2.46409 2.29059 2.44745 2.27887L2.31948 2.18746L2.19151 2.27887C2.17487 2.29082 2.15284 2.27465 2.15894 2.2552L2.20651 2.1052L2.07995 2.01168C2.06355 1.99949 2.07198 1.97348 2.09237 1.97348L2.24964 1.9723L2.29933 1.82301C2.30589 1.80379 2.33331 1.80379 2.33964 1.82301Z" fill="#F5F5F5"/>
<path d="M2.33964 3.20355L2.38933 3.35285L2.54659 3.35402C2.56698 3.35426 2.57542 3.38027 2.55901 3.39223L2.43245 3.48574L2.48003 3.63574C2.48612 3.6552 2.46409 3.67113 2.44745 3.65942L2.31948 3.56801L2.19151 3.65942C2.17487 3.67137 2.15284 3.6552 2.15894 3.63574L2.20651 3.48574L2.07995 3.39223C2.06355 3.38004 2.07198 3.35402 2.09237 3.35402L2.24964 3.35285L2.29933 3.20355C2.30589 3.1841 2.33331 3.1841 2.33964 3.20355Z" fill="#F5F5F5"/>
<path d="M2.33964 4.4734L2.38933 4.6227L2.54659 4.62387C2.56698 4.6241 2.57542 4.65012 2.55901 4.66207L2.43245 4.75559L2.48003 4.90559C2.48612 4.92505 2.46409 4.94098 2.44745 4.92927L2.31948 4.83786L2.19151 4.92927C2.17487 4.94122 2.15284 4.92505 2.15894 4.90559L2.20651 4.75559L2.07995 4.66207C2.06355 4.64989 2.07198 4.62387 2.09237 4.62387L2.24964 4.6227L2.29933 4.4734C2.30589 4.45418 2.33331 4.45418 2.33964 4.4734Z" fill="#F5F5F5"/>
<path d="M2.33964 5.62738L2.38933 5.77668L2.54659 5.77785C2.56698 5.77809 2.57542 5.8041 2.55901 5.81605L2.43245 5.90957L2.48003 6.05957C2.48612 6.07902 2.46409 6.09496 2.44745 6.08324L2.31948 5.99184L2.19151 6.08324C2.17487 6.0952 2.15284 6.07902 2.15894 6.05957L2.20651 5.90957L2.07995 5.81605C2.06355 5.80387 2.07198 5.77785 2.09237 5.77785L2.24964 5.77668L2.29933 5.62738C2.30589 5.60793 2.33331 5.60793 2.33964 5.62738Z" fill="#F5F5F5"/>
<path d="M2.94633 1.16627L2.99601 1.31557L3.15328 1.31674C3.17367 1.31697 3.18211 1.34299 3.1657 1.35494L3.03914 1.44846L3.08672 1.59846C3.09281 1.61791 3.07078 1.63385 3.05414 1.62213L2.92617 1.53072L2.7982 1.62213C2.78156 1.63408 2.75953 1.61791 2.76562 1.59846L2.8132 1.44846L2.68664 1.35494C2.67023 1.34275 2.67867 1.31674 2.69906 1.31674L2.85633 1.31557L2.90601 1.16627C2.91258 1.14705 2.94 1.14705 2.94633 1.16627Z" fill="#F5F5F5"/>
<path d="M2.94633 2.54762L2.99601 2.69691L3.15328 2.69809C3.17367 2.69832 3.18211 2.72434 3.1657 2.73629L3.03914 2.8298L3.08672 2.9798C3.09281 2.99926 3.07078 3.0152 3.05414 3.00348L2.92617 2.91207L2.7982 3.00348C2.78156 3.01543 2.75953 2.99926 2.76562 2.9798L2.8132 2.8298L2.68664 2.73629C2.67023 2.7241 2.67867 2.69809 2.69906 2.69809L2.85633 2.69691L2.90601 2.54762C2.91258 2.5284 2.94 2.5284 2.94633 2.54762Z" fill="#F5F5F5"/>
<path d="M2.94633 3.86078L2.99601 4.01008L3.15328 4.01125C3.17367 4.01148 3.18211 4.0375 3.1657 4.04945L3.03914 4.14297L3.08672 4.29297C3.09281 4.31242 3.07078 4.32836 3.05414 4.31664L2.92617 4.22523L2.7982 4.31664C2.78156 4.32859 2.75953 4.31242 2.76562 4.29297L2.8132 4.14297L2.68664 4.04945C2.67023 4.03727 2.67867 4.01125 2.69906 4.01125L2.85633 4.01008L2.90601 3.86078C2.91258 3.84133 2.94 3.84133 2.94633 3.86078Z" fill="#F5F5F5"/>
<path d="M2.94633 5.03998L2.99601 5.18928L3.15328 5.19045C3.17367 5.19068 3.18211 5.2167 3.1657 5.22865L3.03914 5.32217L3.08672 5.47217C3.09281 5.49162 3.07078 5.50756 3.05414 5.49584L2.92617 5.40443L2.7982 5.49584C2.78156 5.50779 2.75953 5.49162 2.76562 5.47217L2.8132 5.32217L2.68664 5.22865C2.67023 5.21646 2.67867 5.19045 2.69906 5.19045L2.85633 5.18928L2.90601 5.03998C2.91258 5.02053 2.94 5.02053 2.94633 5.03998Z" fill="#F5F5F5"/>
<path d="M3.55312 0.57709L3.60281 0.726387L3.76007 0.727559C3.78046 0.727794 3.7889 0.753809 3.77249 0.765762L3.64593 0.859278L3.69328 1.00928C3.69937 1.02873 3.67734 1.04467 3.6607 1.03295L3.53273 0.941544L3.40476 1.03295C3.38812 1.0449 3.36609 1.02873 3.37218 1.00928L3.41953 0.859278L3.29296 0.765762C3.27656 0.753575 3.285 0.727559 3.30539 0.727559L3.46265 0.726387L3.51234 0.57709C3.51937 0.557637 3.54656 0.557637 3.55312 0.57709Z" fill="#F5F5F5"/>
<path d="M3.55337 1.82301L3.60306 1.9723L3.76033 1.97348C3.78072 1.97371 3.78915 1.99973 3.77275 2.01168L3.64619 2.1052L3.69376 2.2552C3.69986 2.27465 3.67783 2.29059 3.66118 2.27887L3.53322 2.18746L3.40525 2.27887C3.38861 2.29082 3.36658 2.27465 3.37267 2.2552L3.42001 2.1052L3.29345 2.01168C3.27705 1.99949 3.28548 1.97348 3.30587 1.97348L3.46314 1.9723L3.51283 1.82301C3.51962 1.80379 3.54681 1.80379 3.55337 1.82301Z" fill="#F5F5F5"/>
<path d="M3.55312 3.20355L3.60281 3.35285L3.76007 3.35402C3.78046 3.35426 3.7889 3.38027 3.77249 3.39223L3.64593 3.48574L3.69328 3.63574C3.69937 3.6552 3.67734 3.67113 3.6607 3.65942L3.53273 3.56801L3.40476 3.65942C3.38812 3.67137 3.36609 3.6552 3.37218 3.63574L3.41953 3.48574L3.29296 3.39223C3.27656 3.38004 3.285 3.35402 3.30539 3.35402L3.46265 3.35285L3.51234 3.20355C3.51937 3.1841 3.54656 3.1841 3.55312 3.20355Z" fill="#F5F5F5"/>
<path d="M3.55312 4.4734L3.60281 4.6227L3.76007 4.62387C3.78046 4.6241 3.7889 4.65012 3.77249 4.66207L3.64593 4.75559L3.69328 4.90559C3.69937 4.92505 3.67734 4.94098 3.6607 4.92927L3.53273 4.83786L3.40476 4.92927C3.38812 4.94122 3.36609 4.92505 3.37218 4.90559L3.41953 4.75559L3.29296 4.66207C3.27656 4.64989 3.285 4.62387 3.30539 4.62387L3.46265 4.6227L3.51234 4.4734C3.51937 4.45418 3.54656 4.45418 3.55312 4.4734Z" fill="#F5F5F5"/>
<path d="M3.55312 5.62738L3.60281 5.77668L3.76007 5.77785C3.78046 5.77809 3.7889 5.8041 3.77249 5.81605L3.64593 5.90957L3.69328 6.05957C3.69937 6.07902 3.67734 6.09496 3.6607 6.08324L3.53273 5.99184L3.40476 6.08324C3.38812 6.0952 3.36609 6.07902 3.37218 6.05957L3.41953 5.90957L3.29296 5.81605C3.27656 5.80387 3.285 5.77785 3.30539 5.77785L3.46265 5.77668L3.51234 5.62738C3.51937 5.60793 3.54656 5.60793 3.55312 5.62738Z" fill="#F5F5F5"/>
<path d="M4.15786 1.16627L4.20754 1.31557L4.36481 1.31674C4.3852 1.31697 4.39364 1.34299 4.37723 1.35494L4.25067 1.44846L4.29801 1.59846C4.3041 1.61791 4.28207 1.63385 4.26543 1.62213L4.13746 1.53072L4.0095 1.62213C3.99286 1.63408 3.97083 1.61791 3.97692 1.59846L4.02426 1.44846L3.8977 1.35494C3.88129 1.34275 3.88973 1.31674 3.91012 1.31674L4.06739 1.31557L4.11707 1.16627C4.12411 1.14705 4.15129 1.14705 4.15786 1.16627Z" fill="#F5F5F5"/>
<path d="M4.15786 2.54762L4.20754 2.69691L4.36481 2.69809C4.3852 2.69832 4.39364 2.72434 4.37723 2.73629L4.25067 2.8298L4.29801 2.9798C4.3041 2.99926 4.28207 3.0152 4.26543 3.00348L4.13746 2.91207L4.0095 3.00348C3.99286 3.01543 3.97083 2.99926 3.97692 2.9798L4.02426 2.8298L3.8977 2.73629C3.88129 2.7241 3.88973 2.69809 3.91012 2.69809L4.06739 2.69691L4.11707 2.54762C4.12411 2.5284 4.15129 2.5284 4.15786 2.54762Z" fill="#F5F5F5"/>
<path d="M4.15786 3.86078L4.20754 4.01008L4.36481 4.01125C4.3852 4.01148 4.39364 4.0375 4.37723 4.04945L4.25067 4.14297L4.29801 4.29297C4.3041 4.31242 4.28207 4.32836 4.26543 4.31664L4.13746 4.22523L4.0095 4.31664C3.99286 4.32859 3.97083 4.31242 3.97692 4.29297L4.02426 4.14297L3.8977 4.04945C3.88129 4.03727 3.88973 4.01125 3.91012 4.01125L4.06739 4.01008L4.11707 3.86078C4.12411 3.84133 4.15129 3.84133 4.15786 3.86078Z" fill="#F5F5F5"/>
<path d="M4.15786 5.03998L4.20754 5.18928L4.36481 5.19045C4.3852 5.19068 4.39364 5.2167 4.37723 5.22865L4.25067 5.32217L4.29801 5.47217C4.3041 5.49162 4.28207 5.50756 4.26543 5.49584L4.13746 5.40443L4.0095 5.49584C3.99286 5.50779 3.97083 5.49162 3.97692 5.47217L4.02426 5.32217L3.8977 5.22865C3.88129 5.21646 3.88973 5.19045 3.91012 5.19045L4.06739 5.18928L4.11707 5.03998C4.12411 5.02053 4.15129 5.02053 4.15786 5.03998Z" fill="#F5F5F5"/>
<path d="M4.76467 0.57709L4.81435 0.726387L4.97162 0.727559C4.99201 0.727794 5.00045 0.753809 4.98404 0.765762L4.85748 0.859278L4.90482 1.00928C4.91092 1.02873 4.88889 1.04467 4.87224 1.03295L4.74428 0.941544L4.61631 1.03295C4.59967 1.0449 4.57764 1.02873 4.58373 1.00928L4.63107 0.859278L4.50451 0.765762C4.48811 0.753575 4.49654 0.727559 4.51693 0.727559L4.6742 0.726387L4.72389 0.57709C4.73092 0.557637 4.75834 0.557637 4.76467 0.57709Z" fill="#F5F5F5"/>
<path d="M4.76467 1.82301L4.81435 1.9723L4.97162 1.97348C4.99201 1.97371 5.00045 1.99973 4.98404 2.01168L4.85748 2.1052L4.90482 2.2552C4.91092 2.27465 4.88889 2.29059 4.87224 2.27887L4.74428 2.18746L4.61631 2.27887C4.59967 2.29082 4.57764 2.27465 4.58373 2.2552L4.63107 2.1052L4.50451 2.01168C4.48811 1.99949 4.49654 1.97348 4.51693 1.97348L4.6742 1.9723L4.72389 1.82301C4.73092 1.80379 4.75834 1.80379 4.76467 1.82301Z" fill="#F5F5F5"/>
<path d="M4.76467 3.20355L4.81435 3.35285L4.97162 3.35402C4.99201 3.35426 5.00045 3.38027 4.98404 3.39223L4.85748 3.48574L4.90482 3.63574C4.91092 3.6552 4.88889 3.67113 4.87224 3.65942L4.74428 3.56801L4.61631 3.65942C4.59967 3.67137 4.57764 3.6552 4.58373 3.63574L4.63107 3.48574L4.50451 3.39223C4.48811 3.38004 4.49654 3.35402 4.51693 3.35402L4.6742 3.35285L4.72389 3.20355C4.73092 3.1841 4.75834 3.1841 4.76467 3.20355Z" fill="#F5F5F5"/>
<path d="M4.76467 4.4734L4.81435 4.6227L4.97162 4.62387C4.99201 4.6241 5.00045 4.65012 4.98404 4.66207L4.85748 4.75559L4.90482 4.90559C4.91092 4.92505 4.88889 4.94098 4.87224 4.92927L4.74428 4.83786L4.61631 4.92927C4.59967 4.94122 4.57764 4.92505 4.58373 4.90559L4.63107 4.75559L4.50451 4.66207C4.48811 4.64989 4.49654 4.62387 4.51693 4.62387L4.6742 4.6227L4.72389 4.4734C4.73092 4.45418 4.75834 4.45418 4.76467 4.4734Z" fill="#F5F5F5"/>
<path d="M4.76467 5.62738L4.81435 5.77668L4.97162 5.77785C4.99201 5.77809 5.00045 5.8041 4.98404 5.81605L4.85748 5.90957L4.90482 6.05957C4.91092 6.07902 4.88889 6.09496 4.87224 6.08324L4.74428 5.99184L4.61631 6.08324C4.59967 6.0952 4.57764 6.07902 4.58373 6.05957L4.63107 5.90957L4.50451 5.81605C4.48811 5.80387 4.49654 5.77785 4.51693 5.77785L4.6742 5.77668L4.72389 5.62738C4.73092 5.60793 4.75834 5.60793 4.76467 5.62738Z" fill="#F5F5F5"/>
<path d="M5.37172 1.16627L5.42141 1.31557L5.57868 1.31674C5.59907 1.31697 5.6075 1.34299 5.5911 1.35494L5.46454 1.44846L5.51188 1.59846C5.51797 1.61791 5.49594 1.63385 5.4793 1.62213L5.35133 1.53072L5.22336 1.62213C5.20672 1.63408 5.18469 1.61791 5.19079 1.59846L5.23813 1.44846L5.11157 1.35494C5.09516 1.34275 5.1036 1.31674 5.12399 1.31674L5.28125 1.31557L5.33094 1.16627C5.33774 1.14705 5.36516 1.14705 5.37172 1.16627Z" fill="#F5F5F5"/>
<path d="M5.37172 2.54762L5.42141 2.69691L5.57868 2.69809C5.59907 2.69832 5.6075 2.72434 5.5911 2.73629L5.46454 2.8298L5.51188 2.9798C5.51797 2.99926 5.49594 3.0152 5.4793 3.00348L5.35133 2.91207L5.22336 3.00348C5.20672 3.01543 5.18469 2.99926 5.19079 2.9798L5.23813 2.8298L5.11157 2.73629C5.09516 2.7241 5.1036 2.69809 5.12399 2.69809L5.28125 2.69691L5.33094 2.54762C5.33774 2.5284 5.36516 2.5284 5.37172 2.54762Z" fill="#F5F5F5"/>
<path d="M5.37172 3.86078L5.42141 4.01008L5.57868 4.01125C5.59907 4.01148 5.6075 4.0375 5.5911 4.04945L5.46454 4.14297L5.51188 4.29297C5.51797 4.31242 5.49594 4.32836 5.4793 4.31664L5.35133 4.22523L5.22336 4.31664C5.20672 4.32859 5.18469 4.31242 5.19079 4.29297L5.23813 4.14297L5.11157 4.04945C5.09516 4.03727 5.1036 4.01125 5.12399 4.01125L5.28125 4.01008L5.33094 3.86078C5.33774 3.84133 5.36516 3.84133 5.37172 3.86078Z" fill="#F5F5F5"/>
<path d="M5.37172 5.03998L5.42141 5.18928L5.57868 5.19045C5.59907 5.19068 5.6075 5.2167 5.5911 5.22865L5.46454 5.32217L5.51188 5.47217C5.51797 5.49162 5.49594 5.50756 5.4793 5.49584L5.35133 5.40443L5.22336 5.49584C5.20672 5.50779 5.18469 5.49162 5.19079 5.47217L5.23813 5.32217L5.11157 5.22865C5.09516 5.21646 5.1036 5.19045 5.12399 5.19045L5.28125 5.18928L5.33094 5.03998C5.33774 5.02053 5.36516 5.02053 5.37172 5.03998Z" fill="#F5F5F5"/>
<path d="M5.97658 0.57709L6.02627 0.726387L6.18353 0.727559C6.20392 0.727794 6.21236 0.753809 6.19596 0.765762L6.06939 0.859278L6.11674 1.00928C6.12283 1.02873 6.1008 1.04467 6.08416 1.03295L5.95619 0.941544L5.82822 1.03295C5.81158 1.0449 5.78955 1.02873 5.79564 1.00928L5.84299 0.859278L5.71643 0.765762C5.70002 0.753575 5.70846 0.727559 5.72885 0.727559L5.88611 0.726387L5.9358 0.57709C5.94283 0.557637 5.97002 0.557637 5.97658 0.57709Z" fill="#F5F5F5"/>
<path d="M5.97658 1.82301L6.02627 1.9723L6.18353 1.97348C6.20392 1.97371 6.21236 1.99973 6.19596 2.01168L6.06939 2.1052L6.11674 2.2552C6.12283 2.27465 6.1008 2.29059 6.08416 2.27887L5.95619 2.18746L5.82822 2.27887C5.81158 2.29082 5.78955 2.27465 5.79564 2.2552L5.84299 2.1052L5.71643 2.01168C5.70002 1.99949 5.70846 1.97348 5.72885 1.97348L5.88611 1.9723L5.9358 1.82301C5.94283 1.80379 5.97002 1.80379 5.97658 1.82301Z" fill="#F5F5F5"/>
<path d="M5.97658 3.20355L6.02627 3.35285L6.18353 3.35402C6.20392 3.35426 6.21236 3.38027 6.19596 3.39223L6.06939 3.48574L6.11674 3.63574C6.12283 3.6552 6.1008 3.67113 6.08416 3.65942L5.95619 3.56801L5.82822 3.65942C5.81158 3.67137 5.78955 3.6552 5.79564 3.63574L5.84299 3.48574L5.71643 3.39223C5.70002 3.38004 5.70846 3.35402 5.72885 3.35402L5.88611 3.35285L5.9358 3.20355C5.94283 3.1841 5.97002 3.1841 5.97658 3.20355Z" fill="#F5F5F5"/>
<path d="M5.97658 4.4734L6.02627 4.6227L6.18353 4.62387C6.20392 4.6241 6.21236 4.65012 6.19596 4.66207L6.06939 4.75559L6.11674 4.90559C6.12283 4.92505 6.1008 4.94098 6.08416 4.92927L5.95619 4.83786L5.82822 4.92927C5.81158 4.94122 5.78955 4.92505 5.79564 4.90559L5.84299 4.75559L5.71643 4.66207C5.70002 4.64989 5.70846 4.62387 5.72885 4.62387L5.88611 4.6227L5.9358 4.4734C5.94283 4.45418 5.97002 4.45418 5.97658 4.4734Z" fill="#F5F5F5"/>
<path d="M5.97658 5.62738L6.02627 5.77668L6.18353 5.77785C6.20392 5.77809 6.21236 5.8041 6.19596 5.81605L6.06939 5.90957L6.11674 6.05957C6.12283 6.07902 6.1008 6.09496 6.08416 6.08324L5.95619 5.99184L5.82822 6.08324C5.81158 6.0952 5.78955 6.07902 5.79564 6.05957L5.84299 5.90957L5.71643 5.81605C5.70002 5.80387 5.70846 5.77785 5.72885 5.77785L5.88611 5.77668L5.9358 5.62738C5.94283 5.60793 5.97002 5.60793 5.97658 5.62738Z" fill="#F5F5F5"/>
</svg>
